<?xml version="1.0" encoding="utf-8"?>
<!-- Generator: Adobe Illustrator 26.0.3, SVG Export Plug-In . SVG Version: 6.00 Build 0)  -->
<svg version="1.1" id="Labels" xmlns="http://www.w3.org/2000/svg" xmlns:xlink="http://www.w3.org/1999/xlink" x="0px" y="0px"
	 viewBox="0 0 480 395" style="enable-background:new 0 0 480 395;" xml:space="preserve">
<style type="text/css">
	.st0{fill:#DBC288;}
	.st1{fill:#E52942;}
	.st2{fill:#FFFFFF;}
	.st3{fill:#169FD9;}
	.st4{enable-background:new    ;}
</style>
<g id="Larger">
	<path class="st0" d="M286.8,60.2L272.7,31l-25.1,21.2C261.1,52.7,274.3,55.4,286.8,60.2z"/>
	<path class="st0" d="M238.5,52.2L213.4,31l-14.1,29.2C211.9,55.4,225.1,52.7,238.5,52.2z"/>
	<path class="st0" d="M190.7,64l-31.4-9.2l-0.8,31.9C167.9,77.4,178.8,69.7,190.7,64z"/>
	<path class="st0" d="M123.5,170.3c0-11,1.5-21.9,4.6-32.4L101.3,154l22.2,20.8C123.5,173.3,123.5,171.8,123.5,170.3z"/>
	<path class="st0" d="M384.8,154l-26.7-16.1c3,10.5,4.6,21.4,4.5,32.4c0,1.5,0,3-0.1,4.5L384.8,154z"/>
	<path class="st0" d="M354.4,127.1l12.1-28.7l-31.9-4.1C343,104,349.6,115.1,354.4,127.1z"/>
	<path class="st0" d="M327.6,86.7l-0.8-31.9L295.5,64C307.4,69.7,318.3,77.4,327.6,86.7z"/>
	<path class="st0" d="M151.6,94.2l-31.9,4.1l12.1,28.7C136.5,115.1,143.2,104,151.6,94.2z"/>
	<path class="st0" d="M124.8,187.6l-17.2,24.7l28,9.8C130.2,211.2,126.6,199.6,124.8,187.6z"/>
	<path class="st0" d="M350.6,222l28-9.8l-17.2-24.7C359.6,199.5,356,211.1,350.6,222z"/>
	<path class="st0" d="M276,284l25,13.5l6.7-27.7C297.9,276,287.2,280.8,276,284z"/>
	<path class="st0" d="M320.1,260.7L349,263l-5.4-28.6C337.1,244.3,329.2,253.2,320.1,260.7z"/>
	<path class="st0" d="M142.6,234.4l-5.4,28.6l28.9-2.3C157,253.1,149.1,244.3,142.6,234.4z"/>
	<path class="st0" d="M178.4,269.7l6.7,27.7l25-13.5C198.9,280.8,188.3,276,178.4,269.7z"/>
	<path class="st0" d="M243.1,288.5c-5.8,0-11.6-0.4-17.3-1.2l17.3,22.4l17.3-22.4C254.7,288.1,248.9,288.5,243.1,288.5z"/>
	<path class="st0" d="M243.6,283.5C181.4,283.5,131,233,131,170.8S181.4,58.2,243.6,58.2s112.6,50.4,112.6,112.6l0,0
		C356.2,233,305.8,283.4,243.6,283.5z M243.6,61.9c-60.2,0-108.9,48.8-108.9,108.9s48.8,108.9,108.9,108.9S352.5,231,352.5,170.9
		l0,0C352.5,110.7,303.8,62,243.6,61.9L243.6,61.9z"/>
	<path class="st1" d="M220.6,187.9c-7.1,0-12.9-5.1-14.3-12.8c-1-5.3-0.2-10.8,2.5-17.2c2.4-5.8,5.5-9.7,9.7-12.2
		c2.6-1.6,5.5-2.4,8.5-2.5c1.2,0,2.4,0.1,3.6,0.4c2.3,0.5,4.3,1.8,5.6,3.8c0.7,1.2,1.1,2.6,1.1,4.1c1.4,1.2,2.5,2.8,3.1,4.6l0.5-0.1
		c0.4-0.1,0.9-0.2,1.3-0.3c0.1-0.3,0.2-0.9,0.3-1.2c2.7-13.4,8.8-25.9,17.6-36.4c2.5-2.9,5.9-6.4,10.9-8.4c1-0.4,2.1-0.7,3.2-0.8
		c0.5-0.1,1-0.1,1.5-0.1c2.9,0,6.6,1.2,7.6,7c0.5,3.6,0.2,7.3-1,10.7c-1.7,5.3-4.1,10.3-7.3,14.9c-4,6.2-8.5,12-13.6,17.3
		c-0.9,0.9-1.9,1.8-3,2.6c-0.6,0.5-1.2,1-1.8,1.5l0,0c0.1,1,0.3,2,0.7,3c0.2,0.7,0.9,1.3,1.7,1.2c0.3,0,0.7-0.1,1-0.2
		c2.9-0.9,5.2-3.1,7.6-5.7c4.5-4.7,8.3-10.2,12-15.5c1-1.5,2-2.9,3-4.4c0.9-1.3,2-2.6,3.2-3.7c1.2-1.2,2.9-1.8,4.6-1.8
		c0.9,0,1.7,0.1,2.5,0.4c2.2,0.5,3.6,2.6,3.2,4.8c0,0.1,0,0.2-0.1,0.3c0,0.5-0.2,0.9-0.4,1.3c-0.6,1.1-0.5,2.1,0.7,4.4
		c0.4,0.7,0.8,1.4,1.1,2.1s0.8,1.4,1.1,2.1c0.9,1.8,1.8,3.6,2.8,5.5c1.2-0.9,2.3-2,3.2-3.3c0.4-0.7,0.6-1.5,0.8-2.2
		c0.1-0.4,0.2-0.8,0.3-1.2c2.1-7.2,5.7-12.3,11.1-15.6c2.3-1.6,5-2.4,7.7-2.6c0.9,0,1.8,0.1,2.7,0.4c2.7,0.6,4.8,2.8,5.1,5.6
		c0.1,0.7,0,1.4-0.2,2.1l0.3,0.1c1.1,0.4,2.1,0.9,3.1,1.6c0.7,0.6,1.5,0.9,2.4,1c0.3,0,1.1,0,2.2-1.2c2-2.3,3.9-4.7,5.6-7.3
		c0.7-1.1,2-3,4.4-3c1.1,0.1,2.2,0.4,3.1,0.9c0.5,0.2,0.9,0.5,1.2,0.7c1.2,0.7,2.1,1.6,2.8,2.8l0.5-0.6c2.1-2.4,4.4-4.6,6.8-6.7
		c1.4-1.3,3.3-2,5.2-2c1.7,0,3.4,0.6,4.9,1.5c6,3.7,6,6.7,3.6,11.9c-1.3,2.9-2.5,6-3.5,9c-0.1,0.4-0.3,0.8-0.4,1.2
		c0.6-0.3,1.3-0.5,2-0.5c1,0,2,0.4,2.8,1c3.5,2.6,3,5.4,2.5,6.8c-0.6,1.5-1.4,3-2.5,4.3c-1.6,1.9-3.2,3.6-4.9,5.3l-1.1,1.2
		c-0.8,0.9-2,1.5-3.3,1.5c-1.2,0-2.3-0.5-3.1-1.2c-3.6-3.1-5.6-6.5-6.2-10.4c-0.3-3,0-6,1-8.8c-2.2,2.7-4.1,5.7-5.6,8.8
		c-1.3,2.6-2.6,5.4-3.8,8.1c-0.4,0.9-0.8,1.8-1.2,2.8s-1.5,3.3-4.2,3.3c-1.1,0-2.1-0.4-3-0.9c-1-0.6-2-1.3-2.9-2.1
		c-2-1.6-2.8-4.3-2.1-6.7l1.1-4.6c0.2-0.8,0.4-1.6,0.6-2.4c-0.5,0.2-1,0.3-1.5,0.4h-0.2c0,0.1,0,0.2,0,0.2
		c-1.2,6.9-5.2,12.9-10.9,16.9c-2.6,1.8-5.7,2.8-8.8,2.8c-1.1,0-2.1-0.1-3.2-0.3c-3.5-0.6-6.3-2.9-8.4-6.9l-0.4-0.8l-2.6,2.3
		c-1.9,1.7-3.8,3.5-5.8,5.2c-3.2,2.8-6.5,4.2-9.9,4.2c-1.7,0-3.5-0.4-5.1-1.1c-1.7-0.8-3.2-1.9-4.5-3.3c-1.6-1.5-1.9-3.9-0.8-5.8
		c0.2-0.4,0.5-0.9,0.7-1.4c0.4-0.8,0.8-1.6,1.3-2.4c-0.6,0.8-1.1,1.5-1.7,2.3c-3.1,4.4-6.8,8.3-11,11.7c-2.9,2.4-6.4,3.7-10.1,3.8
		c-1.5,0-3-0.3-4.5-0.7c-4.2-1.4-7.2-4.6-9.2-9.9c-0.4-1.3-0.8-2.5-1.1-3.9c-0.6,0.1-1.3,0.3-1.9,0.4c-1.4,6.1-4.9,11.5-9.8,15.3
		C227.8,186.5,224.3,187.8,220.6,187.9z M224.2,157.4c-3.1,3.3-4.7,7.8-4.3,12.4c0.1,0.8,0.4,2.7,2.1,2.7l0,0c0.8,0,1.6-0.3,2.2-0.8
		c1.9-1.3,3.2-3.2,4.1-6.2l-0.5-0.3c-0.5-0.3-0.9-0.6-1.3-1C224.3,162,223.5,159.8,224.2,157.4L224.2,157.4z M284.4,161.6
		c0.9,0,2.6,0.3,3.8,2.6c0.1,0.3,0.3,0.6,0.6,0.8l0.2-0.1c0.4-0.1,0.4-0.6,0.4-0.9c-0.1-1.1-0.4-2.1-0.7-3.1
		c-0.6-1.6-1.3-3.2-2.1-4.9l-0.8,1.2c-1.2,1.8-2.5,3.6-3.8,5.4C282.6,161.9,283.5,161.6,284.4,161.6L284.4,161.6z M323.8,143.8
		c-1.5,0.9-2.7,2.3-3.3,3.9c-1.4,2.8-2.1,5.9-2,9c0,1,0.3,2,0.6,2.9c0.2,0.6,0.8,1,1.5,1c0.2,0,0.4,0,0.6-0.1c0.7-0.2,1.3-0.6,1.9-1
		c1.6-1.4,2.8-3.2,3.6-5.2c-1.2-0.7-2.3-1.7-3.2-2.9c-0.9-1.5-1.2-3.2-0.8-4.9C323,145.6,323.3,144.7,323.8,143.8L323.8,143.8z
		 M267,129.8c-0.6,0.5-1.1,1.1-1.6,1.7c-2.6,3.3-4.8,7.1-6.3,11.1c2.7-3.3,5-6.9,7-10.6C266.4,131.2,266.8,130.5,267,129.8
		L267,129.8z"/>
	<path class="st2" d="M275.6,111.3c3,0,4.5,1.6,5.1,4.9c0.4,3.2,0.1,6.5-1,9.6c-1.6,5.1-4,9.9-7,14.2c-3.9,6-8.3,11.7-13.3,16.9
		c-1.4,1.4-3.1,2.6-4.6,3.9c-0.4,0.4-1,1-0.9,1.5c0.1,1.5,0.4,3,0.9,4.4c0.6,1.7,2.2,2.8,4,2.8c0.6,0,1.2-0.1,1.7-0.3
		c3.6-1.2,6.2-3.7,8.7-6.4c5.8-6.1,10.4-13.3,15.2-20.2c0.8-1.2,1.8-2.3,2.9-3.4c0.8-0.7,1.8-1.1,2.9-1.1c0.6,0,1.3,0.1,1.9,0.3
		c0.9,0.1,1.5,1,1.4,1.9c0,0.1,0,0.2-0.1,0.3c0,0.2-0.1,0.3-0.1,0.5c-1.4,2.4-0.5,4.6,0.6,6.8c0.7,1.4,1.5,2.8,2.2,4.2
		c1.3,2.6,2.6,5.2,4,8c2.5-1.3,4.6-3.2,6.2-5.5c0.7-1.3,1.1-2.7,1.4-4.1c1.7-5.9,4.7-10.9,10-14.2c1.9-1.3,4.1-2.1,6.4-2.2
		c0.7,0,1.4,0.1,2.1,0.3c1.7,0.3,3,1.7,3.2,3.4c0.2,0.9-0.3,1.8-1.2,2.1c-0.1,0-0.2,0-0.3,0.1c-0.8,0.1-1.6,0.1-2.4,0.3
		c-3.4,0.8-6.2,3.1-7.6,6.3c-1.5,3.2-2.3,6.6-2.2,10.1c0.1,1.3,0.3,2.6,0.9,3.8c0.6,1.5,2.2,2.5,3.8,2.5c0.5,0,1-0.1,1.5-0.2
		c1-0.3,1.9-0.9,2.7-1.5c2.1-1.9,3.6-4.2,4.5-6.9c0.4-1,0-1.6-0.9-2.1c-1.1-0.6-2.1-1.4-2.8-2.4c-0.5-0.8-0.7-1.9-0.5-2.8
		c0.4-1.4,1.1-2.6,1.9-3.8c0.5-0.9,1.5-1.5,2.6-1.5c0.6,0,1.2,0.1,1.8,0.3c0.9,0.3,1.7,0.7,2.4,1.3c1.1,0.9,2.5,1.4,3.9,1.5
		c1.6-0.1,3.1-0.8,4.1-2.1c2.1-2.4,4.1-4.9,5.8-7.6c0.9-1.3,1.5-1.9,2.4-1.9c0.7,0.1,1.4,0.3,1.9,0.6c0.4,0.2,0.7,0.4,1.1,0.6
		c2,1.3,2.6,2.6,2.1,4.9c-0.2,1.1-0.5,2.2-0.9,3.6c1.9-2.4,3.4-4.8,5.3-6.8c2.1-2.3,4.3-4.4,6.6-6.4c1-0.9,2.3-1.4,3.6-1.4
		c1.3,0,2.5,0.4,3.5,1.1c4.6,2.8,4.7,4.2,2.6,8.7c-1.8,3.8-3.1,7.8-4.5,11.8c-0.2,0.8-0.3,1.6-0.2,2.4c0,0.9,0.3,1.3,0.8,1.3
		c0.4,0,0.7-0.1,1-0.3c0.5-0.3,0.9-0.6,1.4-0.9c0.5-0.5,1.2-0.8,1.9-0.9c0.5,0,0.9,0.2,1.3,0.5c1.6,1.1,2.2,2.4,1.6,3.9
		c-0.5,1.3-1.2,2.5-2.1,3.6c-1.9,2.2-3.9,4.3-5.9,6.4c-0.4,0.4-0.9,0.7-1.5,0.7s-1.1-0.2-1.5-0.6c-2.8-2.4-4.8-5.2-5.3-8.9
		c-0.5-3.3,0.5-6.3,1.4-9.4c0.6-1.9,1.3-3.8,1.9-5.7c0.1-0.3,0.1-0.5,0.2-0.8l-0.3-0.3c-0.9,0.6-1.9,1.3-2.7,2
		c-4.1,3.9-7.4,8.5-9.9,13.5c-1.8,3.6-3.4,7.3-5,11c-0.6,1.2-1.1,1.8-1.9,1.8c-0.6,0-1.2-0.3-1.7-0.6c-0.9-0.5-1.7-1.2-2.5-1.9
		c-1.3-1-1.8-2.7-1.3-4.2c0.8-3.4,1.7-6.8,2.5-10.1c0.1-0.5,0.2-1,0.2-1.4c-1.8,0.8-3.6,1.5-5.5,2c-1.2,0.1-2.1,1.1-2.1,2.3
		c-1.1,6.2-4.7,11.7-9.9,15.3c-2.1,1.5-4.7,2.3-7.4,2.3c-0.9,0-1.9-0.1-2.8-0.2c-3.1-0.5-5.2-2.9-6.6-5.6c-0.6-1.1-1.1-2.3-1.7-3.6
		c-0.8,0.6-1.5,1.2-2.1,1.7c-3,2.6-5.8,5.4-8.9,8c-2.5,2.1-5.2,3.6-8.2,3.6c-1.4,0-2.8-0.3-4.1-0.9c-1.4-0.7-2.7-1.7-3.8-2.8
		c-0.7-0.8-0.9-1.9-0.3-2.8c0.8-1.6,1.6-3.2,2.6-4.8c0.5-0.8,1-1.1,1.5-1.1s1.1,0.4,1.6,1.3c0.8,1.4,1.6,2.1,2.7,2.1
		c0.3,0,0.6,0,0.9-0.1c1.6-0.5,2.5-2,2.3-3.6c-0.1-1.3-0.4-2.6-0.9-3.8c-0.9-2.2-1.9-4.3-2.8-6.5c-0.5-1.1-0.9-1.6-1.3-1.6
		s-0.8,0.5-1.5,1.4c-3,4.2-6,8.5-9.1,12.6c-3,4.1-6.5,7.9-10.5,11.1c-2.4,2-5.5,3.2-8.6,3.3c-1.3,0-2.5-0.2-3.7-0.6
		c-4.1-1.3-6.2-4.6-7.6-8.4c-0.6-2-1.1-3.9-1.6-5.9c-1.8,0.4-3.6,0.8-5.5,1.2c-0.3,0.1-0.6,0.6-0.6,0.9c-1.2,5.8-4.4,11-9.1,14.7
		c-2.4,2-5.3,3.2-8.4,3.2c-5.6,0-10.6-4-11.8-10.8c-1-5.5,0.2-10.7,2.3-15.7c1.9-4.5,4.4-8.4,8.7-11c2.2-1.4,4.7-2.1,7.2-2.1
		c1,0,2.1,0.1,3.1,0.4c3.4,0.8,5.3,3.6,4.5,6.6c1.8,1.2,3.2,3,3.8,5.1c0.2,0.6,0.5,1,1,1c0.1,0,0.2,0,0.4-0.1
		c0.5-0.1,1.1-0.2,1.6-0.3c2.9-0.5,2.9-0.6,3.6-3.4c2.6-13,8.5-25.2,17-35.3c2.8-3.2,5.8-6.1,9.9-7.7c0.8-0.3,1.7-0.6,2.6-0.7
		C274.7,111.4,275.1,111.4,275.6,111.3 M253.7,151.7c0.2-0.1,0.4-0.1,0.5-0.2c0.4-0.2,0.7-0.5,1-0.8c5.2-5.2,9.6-11.1,13.1-17.5
		c0.8-1.7,1.4-3.5,1.7-5.3c0.2-1.2-0.2-2-1.1-2c-0.4,0-0.9,0.2-1.2,0.4c-1.6,1-3.1,2.3-4.3,3.8c-4.3,5.4-7,11.6-8.8,18.3
		C254.2,149.3,254,150.5,253.7,151.7 M222,174.9c1.3,0,2.6-0.5,3.7-1.3c2.9-2.1,4.4-5.1,5.4-8.4c0.1-0.4-0.4-1.1-0.8-1.5
		c-0.6-0.6-1.4-0.9-2-1.5c-1.2-1.1-2.1-2.4-1.6-4.1c0.4-1.3,0.9-2.6,1.4-3.9c-0.6-0.3-1.2-0.4-1.9-0.4c-1.4,0-2.7,0.7-3.6,1.7
		c-3.7,3.8-5.6,9.1-5.1,14.4C217.7,173.1,219.6,174.9,222,174.9 M275.7,106.2c-0.6,0-1.2,0-1.8,0.1c-1.3,0.2-2.6,0.5-3.8,1
		c-5.5,2.2-9.2,6-11.9,9.1c-8.5,10.1-14.5,22.1-17.5,34.9c-0.3-0.3-0.5-0.7-0.8-1c-0.1-1.5-0.6-3-1.4-4.3c-1.6-2.6-4.2-4.4-7.1-5
		c-4.8-1.1-9.8-0.3-14,2.3c-4.7,2.8-8.1,7.1-10.8,13.4c-2.9,6.9-3.7,12.8-2.6,18.6c1.7,8.9,8.4,14.9,16.8,14.9
		c4.2-0.1,8.3-1.6,11.5-4.3c4-3.2,7.2-7.4,9.2-12.1c2.3,5.5,5.7,9,10.4,10.6c1.7,0.6,3.5,0.9,5.3,0.9c4.2-0.1,8.3-1.6,11.6-4.3
		c2.5-1.9,4.8-4.1,6.9-6.5c0.4,0.7,0.8,1.4,1.4,1.9c1.5,1.6,3.3,2.9,5.3,3.8c1.9,0.8,3.9,1.2,6,1.2c4,0,7.9-1.6,11.5-4.8
		c2-1.7,4-3.5,5.9-5.2l0.2-0.2c2,3.3,5.3,5.5,9,6.2c1.2,0.2,2.4,0.3,3.6,0.3c3.7,0.1,7.3-1.1,10.3-3.2c2.9-2,5.4-4.6,7.4-7.4
		c0.6,1.4,1.5,2.5,2.6,3.5c1,0.9,2.1,1.7,3.2,2.4c1.3,0.8,2.7,1.2,4.2,1.3c2,0,4.7-0.8,6.5-4.8c0.4-0.9,0.8-1.9,1.2-2.8
		c1.2-2.8,2.4-5.4,3.7-8l0,0c0.8,4.2,3,7.9,6.9,11.2c1.3,1.2,3,1.8,4.7,1.8c1.9,0,3.8-0.8,5.1-2.3c0.4-0.4,0.8-0.8,1.1-1.2
		c1.6-1.7,3.3-3.5,4.9-5.4c1.2-1.5,2.2-3.2,2.9-4.9c0.7-1.7,1.7-6.1-3.3-9.8c-0.8-0.6-1.6-1-2.6-1.2c0.8-2.2,1.6-4.3,2.6-6.4
		c1.2-2.6,2.3-5.4,1.5-8.4c-0.9-3.3-3.6-5.2-6-6.7c-1.8-1.2-4-1.8-6.2-1.9c-2.5,0-5,1-6.9,2.6c-2,1.7-3.9,3.5-5.7,5.4
		c-0.5-0.4-1-0.8-1.5-1.1c-0.4-0.3-0.9-0.6-1.5-0.9c-1.3-0.7-2.8-1.2-4.3-1.2c-3.8,0-5.7,2.9-6.5,4.1c-1.6,2.5-3.4,4.8-5.4,7
		c-0.1,0.1-0.3,0.3-0.4,0.4c-0.3-0.1-0.6-0.3-0.9-0.5c-0.7-0.5-1.4-0.9-2.2-1.3c0-0.2,0-0.5,0-0.7c-0.4-3.8-3.2-6.9-7-7.8
		c-1.1-0.3-2.2-0.4-3.3-0.4c-3.2,0.1-6.4,1.1-9.1,2.9c-6,3.7-10,9.3-12.2,17.1c-0.1,0.5-0.2,0.9-0.3,1.3c-0.1,0.5-0.2,1-0.4,1.5
		c-0.1,0.2-0.2,0.3-0.3,0.5l-1.3-2.5c-0.4-0.7-0.8-1.4-1.1-2.1s-0.8-1.4-1.1-2.1c-0.4-0.6-0.6-1.3-0.8-1.9v-0.1
		c0.4-0.7,0.6-1.4,0.7-2.2c0.8-3.6-1.4-7.1-5-7.9l0,0c-1-0.3-2.1-0.4-3.2-0.4c-2.3,0-4.6,0.9-6.3,2.5c-1.3,1.3-2.5,2.6-3.5,4.1
		s-2.1,2.9-3,4.4c-3.8,5.5-7.4,10.7-11.7,15.2c-2.2,2.3-4.1,4.1-6.3,5c0-0.2-0.1-0.4-0.1-0.6c0.2-0.2,0.4-0.4,0.7-0.5
		c1.1-0.8,2.2-1.8,3.2-2.7c5.2-5.4,9.8-11.3,13.9-17.6c3.3-4.8,5.9-10,7.6-15.6c1.3-3.8,1.7-7.9,1.1-11.8
		C284.3,107.2,278.2,106.3,275.7,106.2L275.7,106.2z M321.2,157.7c-0.1-0.4-0.2-0.8-0.2-1.2c0-1.3,0.1-2.7,0.4-4l0.1,0.2
		c0.6,0.8,1.3,1.6,2.1,2.2c-0.5,0.9-1.2,1.8-2,2.5C321.5,157.6,321.3,157.7,321.2,157.7L321.2,157.7z M222.5,169.7
		c0-0.1,0-0.2,0-0.2c-0.2-1.9,0.1-3.8,0.7-5.6c0.5,0.7,1.1,1.4,1.8,2l0.4,0.4c-0.5,1.3-1.4,2.4-2.5,3.2
		C222.7,169.6,222.6,169.7,222.5,169.7L222.5,169.7z"/>
	<path class="st1" d="M187.6,219.1c-1.9,0-3.3-1.4-4.1-4c-0.9-3-1.5-6.1-1.8-9.2c-0.9-8.5,1.3-16.4,3.4-24.2l0.1-0.2
		c2.6-9.5,5.8-18.8,9-27.5l-1.2,1.8l-1.5,2.4l-1.7,2.8c-5.5,8.6-10.6,17.5-15.2,26.6c-0.6,1.1-1.2,2.1-2,3c-1.3,1.8-3.3,2.8-5.5,2.8
		c-0.9,0-1.9-0.2-2.8-0.6c-1.5-0.6-2.9-1.3-4.2-2.2c-3.4-2.4-4.3-5.1-3-9c0.9-2.6,1.9-5.2,2.9-7.8c0.6-1.7,1.3-3.3,1.9-5
		c3.4-9.3,6.3-17.1,8.8-24.3c-0.5,0.6-0.9,1.3-1.4,1.9c-10.7,15-20.6,30.5-29.6,46.6l-0.1,0.2c-1.6,2.9-4.1,4.5-6.9,4.5
		s-5.2-1.6-6.9-4.4c-1.1-1.8-1.2-3.9-0.4-5.8c0.7-1.7,1.6-3.3,2.3-4.7c5.8-11.1,11-21.2,14.7-31.9c1.6-4.6,2.8-9.3,3.5-14.1
		c-7.4,6-15.4,11.4-23.7,16c-1.8,0.9-3.6,1.8-5.4,2.5l-0.6,0.2c-1,0.5-2.2,0.7-3.3,0.8c-1.5,0-2.9-0.6-3.9-1.6c-2-2-2.8-4.9-2-7.6
		c0.4-1.6,1.2-3.1,2.4-4.2c2.2-2,4.5-4,6.8-5.9l2.1-1.8c0.3-0.3,0.7-0.5,1.1-0.7l0.4-0.2l4.2-2.1l-0.6,4.9
		c8.6-5.8,16.4-12.6,23.4-20.3c2.1-3,6.2-3.7,9.2-1.6c0.6,0.4,1.1,0.9,1.5,1.4c2.4,2.6,3.6,6.1,3.3,9.6c-0.2,3.4-0.6,6.7-1.2,10
		c4.2-5.7,8.5-11.4,12.9-17.1c1.1-1.3,2.2-2.4,3.5-3.5l0.9-0.8c1.1-1,2.5-1.6,4-1.6c0.9,0,1.7,0.2,2.5,0.4c5.6,1.8,8.3,6.6,6.7,12.2
		c-1.4,5.1-3,10.3-4.5,15.3c3.6-5.6,7.3-10.8,11-15.5c3.7-4.9,7.8-9.4,12.2-13.6c1.1-1,3.1-2.8,5.8-2.8c0.2,0,0.3,0,0.5,0
		c0.6,0,1.3,0.1,1.8,0.4c2.7,1.1,4.8,3.3,5.9,6c1.1,2.5,1.2,5.4,0.2,8c-1.1,2.6-2.2,5.2-3.3,7.7c-1,2.3-2.1,4.7-3,7
		c-5.8,13.7-10.3,25.3-13.8,37.4c-0.9,3.3-1.6,6.8-2.3,10.2c-0.2,0.9-0.4,1.9-0.6,2.8c0.2-0.1,0.5-0.1,0.8-0.1
		c1.1,0,2.2,0.5,2.9,1.4c1.7,1.7,2.3,4.1,1.6,6.4c-0.3,0.7-0.6,1.4-1.1,2l-0.8,1.1c-3.8,5.3-7.7,10.9-11.6,16.3
		C191,217.5,189.6,219.1,187.6,219.1z"/>
	<path class="st2" d="M214.7,112.1h0.3c0.4,0,0.7,0.1,1.1,0.2c4,1.6,6.3,6.8,4.6,10.7c-2.1,4.9-4.3,9.8-6.4,14.7
		c-5.2,12.4-10.2,24.8-13.9,37.7c-1.3,4.4-2,8.9-2.9,13.4c-0.1,0.9,0,1.8,0.2,2.6c0.1,0.5,0.5,0.8,0.9,0.9c0.2,0,0.4-0.1,0.6-0.2
		c0.5-0.3,1-0.5,1.5-0.5c0.4,0,0.8,0.2,1,0.5c1.1,1,1.5,2.5,1.1,3.9c-0.2,0.5-0.4,0.9-0.7,1.3c-4.1,5.8-8.3,11.6-12.4,17.4
		c-0.9,1.2-1.6,1.8-2.2,1.8s-1.2-0.7-1.7-2.2c-0.9-2.8-1.4-5.8-1.7-8.7c-0.9-8.1,1.3-15.8,3.4-23.5c3.8-14,8.9-27.7,14.2-41.2
		c0.2-0.6,0.4-1.1,0.5-1.7l-0.4-0.2c-0.5,0.5-1,1-1.4,1.5c-4.3,5-7.6,10.8-11.1,16.4c-6,9.7-12.1,19.4-17.1,29.7
		c-0.5,0.9-1,1.7-1.7,2.5c-0.8,1.1-2.1,1.8-3.5,1.9c-0.6,0-1.3-0.1-1.9-0.4c-1.3-0.5-2.5-1.2-3.7-2c-2.4-1.7-3-3.3-2-6.1
		c1.5-4.3,3.2-8.5,4.7-12.8c3.4-9.4,6.9-18.9,10.3-28.3c0.4-1.3,0.8-2.6,1-4c0-0.6,0-1.2-0.1-1.8c-0.6,0.2-1.1,0.6-1.5,1
		c-2.3,2.8-4.6,5.5-6.6,8.4c-10.8,15.1-20.7,30.8-29.8,46.9l-0.1,0.1c-1.2,2.1-2.9,3.2-4.7,3.2s-3.5-1.1-4.8-3.2
		c-0.7-1.1-0.7-2.4-0.2-3.5c0.7-1.5,1.4-3,2.2-4.5c5.5-10.5,11-21,14.9-32.3c2.1-6.1,3.5-12.5,4.2-18.9c0.1-0.5,0-1.1,0-1.7
		c-8.6,7.5-18,14-28,19.6c-1.9,1-3.8,1.8-5.7,2.6c-0.7,0.3-1.5,0.5-2.4,0.6c-0.8,0-1.6-0.3-2.1-0.9c-1.4-1.3-1.9-3.3-1.3-5.1
		c0.3-1.1,0.8-2.2,1.7-3.1c2.8-2.6,5.9-5.1,8.8-7.6c0.3-0.2,0.7-0.4,1.1-0.5c-0.2,1.2-0.3,2.2-0.4,3.1s0,1.3,0.5,1.3
		c0.3,0,0.6-0.1,0.9-0.2c1-0.4,2-0.9,2.9-1.6c8.8-5.9,16.8-12.8,23.9-20.7c0.8-1.1,2.1-1.9,3.5-2c1.4,0.1,2.6,0.8,3.5,1.9
		c1.9,2.1,2.9,4.9,2.6,7.8c-0.3,6.6-1.8,13-3.2,19.4c-0.1,0.5-0.1,0.9,0,1.4c1.4-2,2.8-4.1,4.2-6.1c5-6.7,10-13.5,15.1-20.1
		c1.3-1.5,2.6-2.8,4.1-4c0.6-0.6,1.5-0.9,2.3-0.9c0.6,0,1.2,0.1,1.7,0.3c4.3,1.4,6.3,4.8,5.1,9.1c-2.2,7.7-4.5,15.4-6.8,23.1
		c-0.7,2.5-1.5,5.1-2.2,7.6c-0.1,0.4-0.2,0.7-0.2,1.1l0.3,0.2c0.4-0.7,0.9-1.4,1.3-2.1c5.5-9.7,11.7-19,18.5-27.9
		c3.6-4.8,7.6-9.2,11.9-13.3C211.8,113.2,213,112.1,214.7,112.1 M121.1,136.8L121.1,136.8 M214.7,107.1c-3.8,0-6.2,2.2-7.5,3.4
		c-4.5,4.3-8.7,8.9-12.5,13.9c-0.8,1-1.5,2-2.3,3c0-0.2,0.1-0.4,0.2-0.6c1.9-6.9-1.4-13-8.4-15.2c-1.1-0.4-2.2-0.5-3.3-0.6
		c-2.1,0-4.2,0.8-5.7,2.2l-0.9,0.8c-1.4,1.2-2.7,2.5-3.8,3.9c-2.4,3.1-4.8,6.3-7.2,9.5c0-0.3,0-0.5,0-0.8c0.4-4.2-1.1-8.4-3.9-11.5
		c-3.1-3.9-8.8-4.6-12.7-1.5c-0.6,0.5-1.2,1.1-1.6,1.7c-5.5,6.1-11.6,11.7-18.2,16.6l0.5-3.8l-8.4,4.2l-0.3,0.2
		c-0.6,0.2-1.2,0.6-1.7,1l-2.1,1.8c-2.3,1.9-4.6,3.9-6.9,5.9c-1.5,1.5-2.6,3.4-3.1,5.4c-1,3.6,0,7.4,2.7,10c1.5,1.5,3.5,2.3,5.7,2.3
		c1.5,0,2.9-0.4,4.3-0.9l0.5-0.2c2-0.8,3.9-1.6,5.7-2.6c6.5-3.6,12.8-7.6,18.7-12.1c-0.6,2.4-1.3,4.8-2.1,7.1
		c-3.7,10.6-8.8,20.6-14.6,31.6c-0.8,1.5-1.7,3.1-2.4,4.9c-1.2,2.6-1,5.6,0.5,8.1c2.2,3.5,5.5,5.6,9.1,5.6s7-2.1,9-5.8
		c0.1-0.1,0.1-0.2,0.2-0.3c5.7-10.4,12.1-20.9,19.7-32.3c-0.7,2-1.4,4-2.2,6.1c-0.6,1.7-1.2,3.3-1.9,5c-1,2.6-2,5.2-2.9,7.9
		c-1.7,4.9-0.4,8.9,3.9,11.9c1.5,1,3,1.9,4.7,2.5c1.2,0.5,2.4,0.7,3.7,0.7c2.9,0,5.7-1.4,7.4-3.8c0.9-1.1,1.7-2.2,2.3-3.5
		c2.4-4.8,5-9.6,7.8-14.3c-0.6,2.1-1.2,4.2-1.8,6.4l-0.1,0.2c-2.2,7.9-4.4,16.1-3.5,25.1c0.3,3.3,1,6.6,1.9,9.7
		c1.6,5,4.7,5.8,6.5,5.8c3.5,0,5.6-2.9,6.2-3.9c3.9-5.4,7.9-11,11.7-16.4l0.7-1c0.6-0.8,1.1-1.7,1.4-2.7c1-3.1,0.2-6.5-2.1-8.9
		c-0.7-0.8-1.6-1.4-2.6-1.8v-0.2c0.7-3.5,1.3-6.8,2.2-10c3.4-12,8-23.5,13.7-37.2c1-2.3,2-4.7,3-7c1.1-2.5,2.2-5.1,3.3-7.7
		c1.3-3.2,1.2-6.8-0.2-10c-1.3-3.3-4-5.9-7.2-7.3c-0.8-0.3-1.7-0.5-2.6-0.6L214.7,107.1L214.7,107.1z"/>
	<path class="st0" d="M243.8,205.8v2.9c0,7.9-1.9,18.5-12,18.5s-13.3-10.8-13.3-19.1c0-8.6,2.8-19.5,13.3-19.5c5.7,0,9.4,3.6,11,8.9
		l-7.2,2.8c-0.4-1.9-1-4.8-3.8-4.8c-5-0.3-5.5,8.9-5.5,12.4c0,3.9,0.2,12.4,5.7,12.4c3.8,0,4.4-5.1,4.4-7.6h-4.7v-6.9L243.8,205.8z"
		/>
	<path class="st0" d="M276.4,208c0,14-6.5,19.3-13.1,19.3s-13.1-5.3-13.1-19.3s6.5-19.3,13.1-19.3S276.4,193.9,276.4,208z
		 M263.3,220.4c4.9,0,5.2-9.5,5.2-12.4c0-3.3-0.4-12.4-5.2-12.4s-5.3,9.1-5.3,12.4C258,210.9,258.4,220.4,263.3,220.4L263.3,220.4z"
		/>
	<path class="st0" d="M291.4,189.3v30.4h7.7v6.9H284v-37.4h7.4V189.3z"/>
	<path class="st0" d="M306.2,226.6v-37.4h5.6c1.3,0,16.8-1.9,16.8,19c0,10.7-4.1,18.4-15.8,18.4H306.2z M321.2,208.2
		c0-4.8-1.5-12.3-7.6-12.3V220C319.6,220.3,321.2,212.9,321.2,208.2L321.2,208.2z"/>
	<path class="st3" d="M199.4,78.4l2.4,5.4l2.8-1.2l-2.4-5.4l1.8-0.8l6.2,13.9l-1.8,0.8l-3.1-6.9l-2.8,1.2l3.1,6.9l-1.9,0.8
		l-6.2-13.9L199.4,78.4z"/>
	<path class="st3" d="M214.1,72.8l0.6,1.7l-3.2,1.1l1.5,4.5l2.9-1l0.6,1.7l-2.9,1l1.6,4.9l3.2-1.1l0.6,1.7l-5.2,1.7L209,74.6
		L214.1,72.8z"/>
	<path class="st3" d="M221.8,70.8l6.6,14.1l-2,0.5l-1.2-2.8l-3,0.7l0.1,3l-1.9,0.4l-0.2-15.6L221.8,70.8z M223.6,79.1l-2-5.2l0,0
		l0.6,7.8l2.4-0.5L223.6,79.1z"/>
	<path class="st3" d="M230.9,69.2l1.8,13.3l3.4-0.4l0.2,1.7l-5.4,0.7l-2-15.1L230.9,69.2z"/>
	<path class="st3" d="M240.8,83.5l-2,0.1l-0.9-15.2l2-0.1L240.8,83.5z"/>
	<path class="st3" d="M246.5,72.7l0.2,5.1l-0.2,5.6l-2-0.1l0.4-15.2h1.9l3.2,11.7l0,0l-0.3-6.1l0.1-5.4h2l-0.4,15.2l-1.9-0.1
		l-3.2-11.8l0,0L246.5,72.7z"/>
	<path class="st3" d="M263.5,76.9v0.2c-0.4,2.9-0.7,8-4.7,7.4c-3.6-0.5-3.5-4-2.9-8.3s1.5-7.7,4.9-7.2c2.1,0.3,3,1.5,3.2,3.6l-2,0.5
		c-0.1-1-0.2-2.1-1.4-2.2c-1.6-0.2-2.1,2-2.6,5.6c-0.8,5.2,0,6,0.9,6.1s1.7,0.1,2.2-3.5l0.1-0.8l-1.7-0.2l0.2-1.7L263.5,76.9z"/>
	<path class="st3" d="M280.5,74l-0.5,1.7l-3.3-1l-1.4,4.6l3,0.9l-0.5,1.7l-3-0.9l-2,6.6l-1.9-0.6l4.5-14.6L280.5,74z"/>
	<path class="st3" d="M284.4,75.4l2.2,1c1.4,0.6,3.5,1.6,2,5.1c-0.6,1.3-1.8,3.2-3.5,2.8l-0.3,7.9l-1.9-0.8l0.4-7.9l0,0l-2.9,6.9
		l-1.9-0.8L284.4,75.4z M286.4,81c0.6-1.3,0.9-2.5-0.5-3.1l-0.3-0.1l-2,4.6C285,83.1,285.8,82.4,286.4,81L286.4,81z"/>
	<path class="st3" d="M297.4,90.2c-1.3,2.4-3.8,6.8-7.2,5s-1-6.3,0.3-8.8s3.8-6.8,7.2-5S298.8,87.8,297.4,90.2z M292.4,87.4
		c-1.5,2.8-2.6,5.3-1.2,6.1s2.9-1.5,4.4-4.3s2.6-5.3,1.2-6.1S293.9,84.6,292.4,87.4z"/>
	<path class="st3" d="M307.2,87.5l-4.7,10.2l0,0l0.4-0.5l2.6-2.6l5-4.7L312,91l-7.8,13.2l-1.6-1.2l3-4.8l1.5-2.4l1.1-1.6l0,0
		l-1.6,1.6l-6.1,5.8l-1.1-0.8l4.6-9.7l0,0l-6.6,8.2l-1.5-1.1l9.9-11.6L307.2,87.5z"/>
	<path class="st3" d="M324.6,102.5l-1.2,1.2l-1.6-1.6l-9.6,9.5l-1.4-1.4l9.5-9.5l-1.7-1.7l1.2-1.2L324.6,102.5z"/>
	<path class="st3" d="M325.9,115.8c-2.1,1.7-6.1,4.9-8.6,1.9s1.4-6.3,3.5-8s6.1-4.9,8.6-1.9S328.1,114.1,325.9,115.8z M322.3,111.3
		c-2.5,2.1-4.4,3.9-3.4,5.2s3.2-0.3,5.7-2.3s4.4-3.9,3.4-5.1S324.8,109.3,322.3,111.3z"/>
	<path class="st3" d="M321.9,123.3l12.8-8.4l1.3,2c1,1.5,2,3.4-1.2,5.6c-2.6,1.7-4.5,1.5-6.1-1.2L323,125L321.9,123.3z M334.3,117.5
		l-4.2,2.8c0.9,1.5,1.9,1.4,3.3,0.5c1.1-0.8,1.9-1.7,1-3L334.3,117.5z"/>
	<path class="st3" d="M268.8,252.9l0.4,1.7l-2.2,0.5l3,13.1l-2,0.5l-3-13.1l-2.3,0.5l-0.4-1.7L268.8,252.9z"/>
	<path class="st3" d="M280.1,257.2c0.9,2.6,2.5,7.4-1.2,8.7s-5.4-3.5-6.3-6.1s-2.5-7.4,1.2-8.7S279.2,254.6,280.1,257.2z
		 M274.7,259.1c1.1,3,2.2,5.5,3.7,5s0.8-3.1-0.2-6.2s-2.2-5.5-3.7-5S273.6,256,274.7,259.1L274.7,259.1z"/>
	<path class="st3" d="M289.3,244.1l0.9,1.5l-2,1.1l6.5,11.8l-1.8,1l-6.5-11.8l-2.1,1.1l-0.9-1.5L289.3,244.1z"/>
	<path class="st3" d="M301.3,245.1c1.6,2.2,4.5,6.4,1.2,8.7s-6.2-1.9-7.7-4.1s-4.5-6.4-1.2-8.7S299.8,242.8,301.3,245.1z
		 M296.6,248.4c1.9,2.6,3.6,4.7,4.9,3.8s0-3.2-1.9-5.9s-3.6-4.7-4.9-3.8S294.7,245.7,296.6,248.4L296.6,248.4z"/>
	<path class="st3" d="M303.2,233.4l1.2,1.3l-2.6,2.3l3.2,3.6l2.3-2l1.2,1.3l-2.3,2l3.4,3.9l2.6-2.3l1.2,1.3l-4.1,3.6L299.2,237
		L303.2,233.4z"/>
	<g class="st4">
		<path class="st1" d="M158.6,332v36.8h9.4v8.4h-18.3V332H158.6z"/>
		<path class="st1" d="M191,332l10.9,45.2h-9.5l-1.7-7.6h-9.1l-1.6,7.6h-8.9l10.5-45.2H191z M187.1,350.4l-1-6.8H186l-1,6.8
			l-1.9,12.1h6.3L187.1,350.4z"/>
		<path class="st1" d="M207.3,377.2V332h9c5.7,0,15.9,0.6,15.9,13c0,5-2,9.2-6.4,11.7l7.9,20.6h-9.4l-7.9-20.9h-0.1v20.9h-9V377.2z
			 M216.2,351.4l1.6,0.1c4.1,0,5.7-2.8,5.7-6.5c0-3.2-1.6-5.9-6.1-5.6h-1.2V351.4z"/>
		<path class="st1" d="M269.9,352v3.5c0,9.6-2.3,22.4-14.5,22.4c-12.2,0-16.1-13.1-16.1-23.1c0-10.4,3.4-23.6,16.1-23.6
			c6.9,0,11.4,4.3,13.3,10.7l-8.7,3.4c-0.4-2.3-1.1-5.8-4.6-5.8c-6.1-0.4-6.7,10.8-6.7,15.1c0,4.7,0.3,15.1,6.9,15.1
			c4.6,0,5.3-6.1,5.3-9.2h-5.7V352H269.9z"/>
		<path class="st1" d="M294.5,332v8.4h-9.1v9.8h8v8.4h-8v10.2h9.2v8.4h-18.1V332H294.5z"/>
		<path class="st1" d="M301.8,377.2V332h9c5.7,0,15.9,0.6,15.9,13c0,5-2,9.2-6.4,11.7l7.9,20.6h-9.4l-7.9-20.9h-0.1v20.9h-9V377.2z
			 M310.7,351.4l1.6,0.1c4.1,0,5.7-2.8,5.7-6.5c0-3.2-1.6-5.9-6.1-5.6h-1.2V351.4z"/>
	</g>
</g>
</svg>
