<?xml version="1.0" encoding="utf-8"?>
<!-- Generator: Adobe Illustrator 26.0.3, SVG Export Plug-In . SVG Version: 6.00 Build 0)  -->
<svg version="1.1" id="Labels" xmlns="http://www.w3.org/2000/svg" xmlns:xlink="http://www.w3.org/1999/xlink" x="0px" y="0px"
	 viewBox="0 0 480 395" style="enable-background:new 0 0 480 395;" xml:space="preserve">
<style type="text/css">
	.st0{fill:#1E97D5;}
	.st1{fill:#DBC288;}
	.st2{fill:#D5313E;}
	.st3{fill:#FFFFFF;}
	.st4{fill:#CA9E67;}
	.st5{enable-background:new    ;}
</style>
<g id="Original">
	<rect x="1.5" class="st0" width="480" height="395"/>
	<path class="st1" d="M285.2,60.2L271.1,31L246,52.2C259.4,52.7,272.6,55.4,285.2,60.2z"/>
	<path class="st1" d="M236.9,52.2L211.8,31l-14.1,29.2C210.3,55.4,223.5,52.7,236.9,52.2z"/>
	<path class="st1" d="M189.1,64l-31.4-9.2l-0.8,31.9C166.3,77.4,177.2,69.8,189.1,64z"/>
	<path class="st1" d="M121.9,170.3c0-11,1.5-21.9,4.5-32.4L99.7,154l22.3,20.8C121.9,173.3,121.9,171.8,121.9,170.3z"/>
	<path class="st1" d="M383.2,154l-26.7-16.1c3,10.5,4.5,21.4,4.5,32.4c0,1.5,0,3-0.1,4.5L383.2,154z"/>
	<path class="st1" d="M352.8,127.1l12.1-28.7L333,94.2C341.3,104,348,115.1,352.8,127.1z"/>
	<path class="st1" d="M326,86.7l-0.8-31.9L293.9,64C305.8,69.8,316.6,77.4,326,86.7z"/>
	<path class="st1" d="M150,94.2l-32,4.1l12.1,28.7C134.9,115.1,141.6,104,150,94.2z"/>
	<path class="st1" d="M123.2,187.6L106,212.3l28,9.8C128.6,211.2,124.9,199.6,123.2,187.6z"/>
	<path class="st1" d="M349,222l28-9.8l-17.2-24.7C358,199.5,354.4,211.1,349,222z"/>
	<path class="st1" d="M274.4,284l25,13.5l6.7-27.7C296.2,276,285.6,280.8,274.4,284z"/>
	<path class="st1" d="M318.5,260.7l28.9,2.3l-5.4-28.6C335.5,244.3,327.6,253.2,318.5,260.7z"/>
	<path class="st1" d="M141,234.4l-5.4,28.6l28.9-2.3C155.4,253.1,147.5,244.3,141,234.4z"/>
	<path class="st1" d="M176.8,269.7l6.7,27.7l25-13.5C197.3,280.8,186.6,276,176.8,269.7z"/>
	<path class="st1" d="M241.5,288.5c-5.8,0-11.6-0.4-17.3-1.2l17.3,22.4l17.3-22.4C253,288.1,247.2,288.5,241.5,288.5z"/>
	<path class="st1" d="M241.5,283c-62.2,0-112.7-50.4-112.7-112.6S179.2,57.7,241.4,57.7S354,108.1,354,170.3
		C354.1,232.5,303.7,282.9,241.5,283z M241.5,61.4c-60.2,0-108.9,48.8-108.9,108.9c0,60.2,48.8,108.9,108.9,108.9
		s108.9-48.8,108.9-108.9c0,0,0,0,0-0.1C350.3,110.2,301.6,61.4,241.5,61.4L241.5,61.4z"/>
	<path class="st2" d="M214.8,193.8c-7.4,0-13.3-5.6-14.5-13.6c-0.8-5.4,0.2-10.9,3.2-17.2c2.7-5.8,6-9.5,10.4-11.9
		c2.4-1.4,5.2-2.1,8-2.1c1.5,0,2.9,0.2,4.3,0.6c2.3,0.6,4.2,2,5.4,4.1c0.7,1.3,1,2.7,0.9,4.2c1.4,1.3,2.4,3,3,4.8h0.5
		c0.4-0.1,1-0.1,1.3-0.2c0.1-0.3,0.2-0.9,0.4-1.3c3.3-13.4,10-25.9,19.3-36.1c2.6-2.8,6.2-6.3,11.4-8c1-0.4,2.1-0.6,3.2-0.7
		c0.4,0,0.7,0,1,0c3.1,0,7,1.3,7.8,7.4c0.3,3.6-0.2,7.3-1.5,10.7c-1.9,5.3-4.6,10.3-8,14.8c-4.3,6.1-9.1,11.7-14.5,16.9
		c-1,0.9-2,1.7-3.1,2.4c-0.6,0.5-1.3,0.9-1.9,1.4l0,0c0,1.1,0.2,2.1,0.6,3.1c0.2,0.8,1,1.4,1.8,1.4c0.3,0,0.6-0.1,0.9-0.1
		c3-0.8,5.4-3,8-5.5c4.8-4.6,8.8-10,12.8-15.2c1.1-1.4,2.2-2.9,3.3-4.3c1-1.3,2.1-2.5,3.4-3.6c1.2-1.1,2.8-1.6,4.4-1.6
		c1,0,1.9,0.2,2.9,0.5c2.2,0.6,3.5,2.8,3,5c0,0.1,0,0.2-0.1,0.3c-0.1,0.5-0.2,0.9-0.5,1.3c-0.7,1.1-0.6,2.2,0.5,4.5
		c0.3,0.8,0.7,1.5,1.1,2.2s0.7,1.4,1,2.2c0.9,1.9,1.7,3.8,2.6,5.7l0,0c1.3-0.9,2.4-2,3.4-3.2c0.4-0.7,0.7-1.5,0.9-2.2
		c0.1-0.4,0.2-0.8,0.4-1.2c2.4-7.1,6.3-12.2,11.9-15.3c2.2-1.4,4.8-2.2,7.5-2.3c1.1,0,2.1,0.2,3.2,0.4c2.7,0.7,4.7,3.1,4.9,5.9
		c0.1,0.7,0,1.4-0.3,2.1l0.4,0.1c1.1,0.4,2.1,1,3,1.8c0.7,0.6,1.6,1,2.5,1.1c0.9,0,1.7-0.5,2.2-1.2c2.2-2.2,4.2-4.6,6-7.2
		c0.8-1.1,2.1-2.9,4.4-2.9c1.2,0.1,2.3,0.4,3.3,1.1c0.4,0.2,0.8,0.5,1.2,0.8c1.2,0.7,2.1,1.8,2.7,3c0.2-0.2,0.4-0.4,0.6-0.6
		c2.3-2.3,4.7-4.4,7.2-6.4c1.4-1.2,3.2-1.8,5-1.8c1.9,0,3.6,0.6,5.1,1.7c5.9,4,5.8,7,3.1,12.1c-1.5,2.9-2.7,6-4,9
		c-0.2,0.4-0.4,0.9-0.5,1.3c1.6-0.8,3.5-0.5,4.8,0.6c3.4,2.7,2.9,5.5,2.2,6.9c-0.7,1.5-1.6,3-2.7,4.2c-1.6,1.8-3.4,3.5-5.1,5.2
		l-1.2,1.2c-0.8,0.9-2,1.4-3.2,1.4s-2.4-0.5-3.3-1.4c-3.5-3.2-5.4-6.8-5.8-10.8c-0.2-3.1,0.3-6.1,1.5-9c-2.4,2.7-4.5,5.7-6.2,8.9
		c-1.5,2.6-2.8,5.4-4.2,8.1c-0.5,0.9-0.9,1.8-1.4,2.7s-1.6,3.1-4.2,3.1c-1.1-0.1-2.2-0.4-3.1-1.1c-1-0.7-2-1.4-2.8-2.2
		c-2-1.7-2.7-4.4-1.9-6.9c0.5-1.6,1.8-6.3,2.1-7.1c-0.5,0.2-1.1,0.3-1.7,0.4h-0.2l-0.1,0.3c-1.5,6.9-5.8,12.8-11.8,16.6
		c-2.5,1.6-5.4,2.5-8.3,2.4c-1.3,0-2.6-0.2-3.9-0.4c-3.5-0.8-6.2-3.1-8.2-7.3c-0.1-0.3-0.3-0.6-0.4-0.9c-0.9,0.8-1.8,1.5-2.7,2.3
		c-2,1.7-4,3.4-6.1,5c-2.7,2.3-6.1,3.7-9.6,3.8c-1.9,0-3.8-0.5-5.6-1.3c-1.7-0.9-3.2-2.1-4.4-3.5c-1.5-1.6-1.7-4-0.5-5.9
		c0.3-0.4,0.5-0.9,0.8-1.3c0.5-1,1.1-2,1.8-3c-0.8,0.9-1.5,1.9-2.3,2.8c-3.4,4.3-7.3,8.1-11.7,11.3c-2.8,2.1-6.3,3.3-9.8,3.4
		c-1.7,0-3.4-0.3-5.1-0.9c-4.2-1.6-7.1-5-8.9-10.4c-0.4-1.3-0.7-2.6-0.9-4c-0.7,0.1-1.4,0.2-2.1,0.4c-1.7,6.1-5.4,11.4-10.6,15.1
		C221.7,192.5,218.3,193.7,214.8,193.8z M219.2,162.9c-3.4,3.2-5.2,7.8-5,12.5c0,0.9,0.3,2.9,2.1,2.9c0.8,0,1.6-0.3,2.2-0.8
		c1.9-1.2,3.4-3.2,4.5-6.2c-0.1-0.1-0.3-0.2-0.5-0.4c-0.4-0.3-0.9-0.6-1.3-1c-2.2-2.1-2.9-4.4-2.1-6.8
		C219.1,163.1,219.2,163,219.2,162.9L219.2,162.9z M279.7,169.9c0.9,0,2.6,0.4,3.9,2.8c0.1,0.3,0.3,0.6,0.6,0.9c0,0,0.1,0,0.2-0.1
		c0.5-0.1,0.5-0.7,0.5-1c-0.1-1.1-0.3-2.2-0.6-3.2c-0.6-1.7-1.2-3.3-2-5.1l-0.9,1.2c-1.4,1.8-2.9,3.7-4.4,5.6
		C277.7,170.3,278.7,169.9,279.7,169.9L279.7,169.9z M320.5,153.5c-1.6,0.9-2.9,2.2-3.7,3.9c-1.5,2.8-2.3,5.9-2.4,9c0,1,0.2,2,0.5,3
		c0.2,0.7,0.9,1.1,1.6,1.1c0.2,0,0.4,0,0.6-0.1c0.7-0.2,1.4-0.6,2-1c1.7-1.4,3-3.2,3.9-5.2c-1.2-0.8-2.3-1.8-3.1-3
		c-0.9-1.5-1.1-3.3-0.6-5C319.6,155.3,320,154.4,320.5,153.5L320.5,153.5z M263.7,136.9c-0.7,0.5-1.3,1.1-1.8,1.7
		c-2.9,3.3-5.2,7.1-6.9,11.2c2.9-3.3,5.5-6.9,7.8-10.7C263.1,138.4,263.4,137.7,263.7,136.9z"/>
	<path class="st3" d="M272.7,118.7c3.3,0,4.9,1.6,5.3,5.2c0.3,3.3-0.2,6.6-1.4,9.7c-1.8,5-4.4,9.8-7.6,14.1
		c-4.2,6-8.9,11.5-14.1,16.5c-1.5,1.4-3.3,2.5-4.9,3.8c-0.4,0.4-1,1-1,1.5c0,1.5,0.3,3,0.8,4.5c0.6,1.8,2.3,3,4.2,3
		c0.5,0,1-0.1,1.6-0.2c3.7-1,6.4-3.5,9-6.1c6.2-6,11-13,16.3-19.8c0.9-1.2,1.9-2.3,3-3.3c0.8-0.7,1.7-1,2.7-1c0.7,0,1.4,0.1,2.1,0.4
		c0.9,0.2,1.5,1.1,1.3,2c0,0.1-0.1,0.2-0.1,0.3c0,0.2-0.1,0.3-0.1,0.5c-1.5,2.4-0.7,4.7,0.3,6.9c0.7,1.5,1.4,2.9,2.1,4.4
		c1.2,2.7,2.5,5.4,3.8,8.3c2.5-1.3,4.8-3.1,6.5-5.3c0.7-1.3,1.3-2.7,1.6-4.1c2-5.9,5.2-10.8,10.8-13.9c1.9-1.2,4-1.8,6.2-1.9
		c0.8,0,1.7,0.1,2.5,0.4c1.7,0.4,2.9,1.9,3.1,3.6c0.2,0.9-0.4,1.8-1.3,2c-0.1,0-0.2,0-0.3,0c-0.8,0.1-1.6,0.1-2.4,0.2
		c-3.5,0.6-6.5,2.9-8,6.1c-1.7,3.1-2.5,6.6-2.6,10.1c0,1.3,0.2,2.6,0.7,3.9c0.6,1.6,2.2,2.7,3.9,2.7c0.4,0,0.9-0.1,1.3-0.2
		c1-0.3,2-0.8,2.8-1.4c2.2-1.8,3.9-4.1,4.9-6.8c0.4-1,0.1-1.6-0.8-2.2c-1.1-0.7-2-1.5-2.8-2.6c-0.5-0.9-0.6-1.9-0.4-2.9
		c0.5-1.4,1.2-2.6,2.1-3.8c0.6-0.9,1.5-1.4,2.5-1.4c0.7,0,1.3,0.2,2,0.4c0.9,0.4,1.7,0.8,2.4,1.4c1.1,1,2.5,1.6,4,1.6
		c1.5-0.1,3-0.7,4-1.9c2.2-2.3,4.3-4.8,6.2-7.5c0.9-1.2,1.5-1.8,2.4-1.8c0.7,0.1,1.4,0.3,2,0.7c0.4,0.2,0.7,0.5,1.1,0.7
		c2,1.4,2.5,2.7,1.9,5.1c-0.3,1.1-0.6,2.2-1,3.6c2-2.4,3.7-4.7,5.6-6.7c2.2-2.2,4.5-4.3,6.9-6.2c1-0.8,2.2-1.3,3.5-1.3
		c1.4,0,2.7,0.5,3.8,1.3c4.5,3.1,4.6,4.4,2.3,8.9c-1.9,3.8-3.5,7.8-5.1,11.7c-0.2,0.8-0.4,1.6-0.3,2.4c0,0.9,0.3,1.4,0.8,1.4
		c0.3,0,0.7-0.1,1-0.3c0.5-0.2,1-0.5,1.4-0.9c0.5-0.5,1.2-0.8,1.9-0.9c0.5,0,1,0.2,1.3,0.5c1.5,1.2,2.1,2.5,1.5,4
		c-0.6,1.3-1.3,2.5-2.2,3.5c-2,2.2-4.1,4.2-6.2,6.2c-0.4,0.4-0.9,0.6-1.4,0.6c-0.6,0-1.1-0.3-1.6-0.7c-2.7-2.5-4.6-5.4-5-9.2
		c-0.3-3.3,0.7-6.4,1.9-9.4c0.7-1.9,1.5-3.8,2.2-5.7c0.1-0.3,0.1-0.5,0.2-0.8l-0.3-0.3c-1,0.6-1.9,1.2-2.8,1.9
		c-4.3,3.8-7.8,8.2-10.5,13.3c-2,3.6-3.8,7.2-5.6,10.9c-0.6,1.2-1.2,1.8-2,1.8c-0.6-0.1-1.3-0.3-1.8-0.7c-0.9-0.6-1.7-1.3-2.5-2
		c-1.2-1.1-1.7-2.8-1.1-4.3c1-3.4,2-6.8,3-10.1c0.1-0.5,0.2-1,0.3-1.5c-1.9,0.7-3.8,1.3-5.7,1.8c-1.2,0-2.2,1-2.3,2.2
		c-1.4,6.2-5.3,11.7-10.7,15.1c-2.1,1.3-4.5,2-6.9,2c-1.1,0-2.3-0.1-3.4-0.4c-3.2-0.7-5.1-3.1-6.5-6c-0.5-1.1-1-2.3-1.6-3.8
		c-0.8,0.6-1.5,1.1-2.2,1.7c-3.1,2.6-6.1,5.2-9.3,7.7c-2.2,2-5.1,3.1-8.1,3.3c-1.6,0-3.1-0.3-4.5-1c-1.4-0.8-2.6-1.8-3.7-3
		c-0.7-0.8-0.8-2-0.2-2.9c0.9-1.6,1.8-3.2,2.8-4.7c0.3-0.6,0.9-1,1.5-1.1c0.6,0,1.2,0.5,1.6,1.4c0.8,1.5,1.6,2.2,2.8,2.2
		c0.3,0,0.6,0,0.8-0.1c1.6-0.4,2.7-1.9,2.4-3.6c-0.1-1.3-0.3-2.6-0.8-3.9c-0.8-2.2-1.7-4.5-2.6-6.7c-0.5-1.1-0.8-1.6-1.2-1.6
		s-0.8,0.4-1.5,1.3c-3.2,4.1-6.4,8.3-9.8,12.4c-3.2,4.1-7,7.8-11.2,10.9c-2.4,1.8-5.3,2.9-8.4,3c-1.4,0-2.9-0.3-4.2-0.8
		c-4.1-1.5-6.1-4.9-7.4-8.8c-0.5-2-1-4-1.3-6.1c-1.8,0.3-3.7,0.6-5.6,1c-0.3,0.1-0.6,0.6-0.7,0.9c-1.4,5.8-4.9,10.9-9.8,14.4
		c-2.3,1.8-5.2,2.9-8.2,2.9c-5.8,0-11-4.3-12-11.4c-0.8-5.6,0.7-10.8,3-15.8c2.1-4.4,4.8-8.4,9.3-10.8c2.1-1.2,4.5-1.8,6.9-1.8
		c1.2,0,2.5,0.2,3.7,0.5c3.4,0.9,5.2,3.9,4.3,6.9c1.8,1.3,3.1,3.2,3.6,5.4c0.2,0.6,0.4,1,1,1h0.3c0.6-0.1,1.1-0.1,1.6-0.2
		c2.9-0.4,3-0.5,3.7-3.3c3.2-13.1,9.7-25.1,18.7-35c2.9-3.2,6.2-5.9,10.3-7.4c0.8-0.3,1.7-0.5,2.6-0.6L272.7,118.7 M249.3,158.6
		c0.2-0.1,0.4-0.1,0.5-0.2c0.3-0.2,0.7-0.5,1-0.8c5.5-5,10.2-10.8,14-17.2c0.9-1.7,1.6-3.5,2-5.3c0.3-1.3-0.2-2.1-1.1-2.1
		c-0.4,0-0.8,0.2-1.2,0.4c-1.7,0.9-3.2,2.1-4.5,3.6c-4.6,5.3-7.6,11.5-9.7,18.1C249.9,156.2,249.6,157.3,249.3,158.6 M216.3,180.8
		c1.3,0,2.5-0.4,3.6-1.2c3.1-2,4.7-5,5.8-8.3c0.1-0.4-0.3-1.2-0.7-1.6c-0.6-0.6-1.4-1-2-1.6c-1.2-1.1-2-2.5-1.5-4.2
		c0.4-1.3,1.1-2.6,1.6-3.9c-0.6-0.4-1.4-0.5-2.1-0.5c-1.3,0-2.6,0.6-3.5,1.6c-3.9,3.7-6,9-5.8,14.4
		C211.8,178.9,213.8,180.8,216.3,180.8 M272.7,113.7c-0.4,0-0.8,0-1.2,0c-1.3,0.1-2.6,0.4-3.9,0.8c-5.6,1.9-9.6,5.7-12.4,8.7
		c-9.1,9.9-15.7,21.8-19.3,34.7c-0.3-0.4-0.6-0.8-0.9-1.2c-0.1-1.5-0.5-3-1.2-4.4c-1.5-2.6-4-4.5-7-5.3c-1.6-0.4-3.3-0.7-5-0.7
		c-3.2,0-6.4,0.9-9.2,2.4c-4.9,2.6-8.5,6.8-11.4,13c-3.2,6.8-4.3,12.8-3.4,18.7c1.3,9.2,8.3,15.7,17,15.7c4.1-0.1,8-1.4,11.2-3.9
		c4.3-3.1,7.7-7.2,9.9-12c2,5.8,5.4,9.5,10.1,11.3c1.9,0.7,3.9,1.1,6,1.1c4-0.1,8-1.5,11.2-3.9c2.7-1.9,5.1-4,7.4-6.4
		c0.3,0.8,0.8,1.5,1.4,2.1c1.5,1.7,3.2,3.1,5.2,4.1c2.1,1,4.3,1.5,6.6,1.5c3.8,0,7.5-1.5,11.2-4.3c2.1-1.7,4.2-3.4,6.2-5.1l0.3-0.3
		c1.9,3.4,5.1,5.8,8.9,6.7c1.5,0.3,3,0.5,4.5,0.5c3.4,0,6.8-1,9.7-2.9c3-2,5.7-4.4,7.9-7.3c0.5,1.4,1.4,2.7,2.5,3.8
		c1,0.9,2,1.8,3.2,2.5c1.3,0.9,2.9,1.4,4.5,1.5c1.9,0,4.5-0.8,6.4-4.5c0.5-0.9,0.9-1.8,1.4-2.8c1.4-2.8,2.7-5.4,4.1-8l0.1-0.2
		c0.6,4.4,2.7,8.3,6.5,11.8c1.3,1.3,3.1,2,5,2s3.6-0.8,4.9-2.1l1.2-1.2c1.7-1.7,3.5-3.4,5.2-5.3c1.3-1.4,2.3-3.1,3.1-4.9
		c0.8-1.7,2-6-2.9-9.9c-0.8-0.6-1.7-1.1-2.6-1.4c0.9-2.2,1.9-4.4,2.9-6.4c3.1-6,3.4-10.4-3.9-15.3c-1.9-1.4-4.2-2.1-6.5-2.2
		c-2.4,0-4.7,0.9-6.6,2.4c-2.1,1.7-4.1,3.4-6,5.3c-0.5-0.4-1-0.8-1.5-1.2c-0.4-0.3-0.9-0.6-1.4-0.9c-1.3-0.9-2.9-1.3-4.5-1.4
		c-3.6,0-5.6,2.7-6.4,3.9c-1.7,2.4-3.6,4.8-5.7,6.9c-0.1,0.2-0.3,0.3-0.5,0.4c-0.3-0.1-0.6-0.3-0.9-0.6c-0.7-0.5-1.4-1-2.2-1.4
		c0-0.3,0-0.5,0-0.8c-0.3-3.8-3-7.1-6.7-8.1c-1.3-0.4-2.6-0.6-3.9-0.6c-3.1,0.1-6.1,1-8.7,2.6c-6.2,3.5-10.5,9-13,16.7
		c-0.1,0.4-0.3,0.9-0.4,1.3c-0.1,0.5-0.3,1-0.5,1.5c-0.1,0.2-0.3,0.4-0.5,0.6l-1.2-2.7c-0.3-0.7-0.7-1.5-1-2.2s-0.7-1.4-1-2.2
		c-0.4-0.6-0.6-1.3-0.7-2.1l0,0l0.1-0.1c0.4-0.6,0.7-1.4,0.8-2.1c1-3.5-1.1-7.2-4.6-8.1c-1.2-0.4-2.4-0.6-3.6-0.6
		c-2.2,0-4.3,0.8-6,2.2c-1.4,1.2-2.6,2.5-3.7,4c-1.1,1.4-2.2,2.9-3.3,4.3c-4.1,5.4-7.9,10.5-12.5,14.9c-2.4,2.3-4.4,4.1-6.7,4.8
		c-0.1-0.2-0.1-0.5-0.1-0.8l0.7-0.5c1.2-0.8,2.3-1.7,3.3-2.6c5.4-5.2,10.4-11,14.7-17.2c3.5-4.7,6.4-9.9,8.4-15.4
		c1.5-3.8,2-7.9,1.6-11.9C282.2,117.1,278.5,113.7,272.7,113.7L272.7,113.7z M317.1,167.8c-0.1-0.4-0.1-0.9-0.1-1.3
		c0-1.4,0.2-2.9,0.6-4.2c0.1,0.1,0.1,0.2,0.2,0.4c0.6,0.9,1.2,1.7,2,2.4c-0.6,1-1.3,1.8-2.2,2.5
		C317.5,167.6,317.3,167.7,317.1,167.8L317.1,167.8z M216.7,175.7c0-0.1,0-0.2,0-0.4c-0.1-2,0.3-4,1-5.8c0.5,0.8,1.1,1.6,1.8,2.2
		l0.5,0.4c-0.6,1.3-1.5,2.5-2.8,3.3C217.1,175.6,216.9,175.6,216.7,175.7L216.7,175.7z"/>
	<path class="st2" d="M179.7,224c-2,0-3.3-1.4-4.1-4.2c-0.8-3.1-1.3-6.2-1.5-9.4c-0.5-8.6,2-16.6,4.5-24.3l0.1-0.2
		c3.1-9.6,6.7-19.1,10.4-27.9c-0.5,0.7-2.5,3.8-3.1,4.6l-1.9,2.8c-5.7,8.4-11.6,17.2-16.6,26.3c-0.6,1-1.3,2-2.1,2.9
		c-1.3,1.6-3.3,2.6-5.4,2.6c-1,0-2.1-0.2-3-0.7c-1.5-0.6-2.9-1.5-4.1-2.4c-3.3-2.5-4.1-5.3-2.6-9.2c1-2.6,2.2-5.2,3.2-7.8
		c0.7-1.7,1.4-3.3,2.1-5c3.9-9.4,7.1-17.3,10.1-24.5c-0.6,0.7-1.1,1.4-1.7,2.1c-11.5,14.7-22.1,30-31.9,45.9c0,0.1-0.1,0.2-0.1,0.2
		c-1.4,2.5-3.9,4.1-6.8,4.2c-2.8,0-5.4-1.7-7.1-4.7c-1-1.8-1.1-4-0.1-5.8c0.8-1.6,1.7-3.2,2.5-4.7c6.4-11,12-21,16.2-31.7
		c1.8-4.6,3.2-9.3,4.1-14.2c-7.8,5.8-16.1,10.9-24.8,15.2c-1.8,0.9-3.7,1.6-5.6,2.3l-0.6,0.2c-1,0.4-2,0.6-3.1,0.6
		c-1.6,0-3.1-0.6-4.1-1.8c-2-2.1-2.6-5-1.7-7.7c0.5-1.6,1.3-3,2.6-4.2c2.3-2,4.8-3.8,7.1-5.6c0.7-0.6,1.5-1.1,2.2-1.7
		c0.4-0.3,0.8-0.5,1.2-0.6l0.4-0.2l4.3-1.9l-0.8,4.9l0,0c8.9-5.5,17.2-12.1,24.5-19.5c1.3-1.6,3.2-2.5,5.3-2.6
		c2.2,0.1,4.2,1.2,5.4,2.9c2.3,2.7,3.4,6.3,2.9,9.8c-0.3,3.5-0.9,6.9-1.7,10.3c4.5-5.6,9.2-11.3,13.8-16.9c1.1-1.3,2.3-2.4,3.7-3.5
		l1-0.8c1.1-0.9,2.4-1.4,3.8-1.4c0.9,0,1.9,0.2,2.8,0.6c5.6,2.1,8.1,7,6.3,12.6c-1.7,5.2-3.5,10.5-5.3,15.6c4-5.6,7.9-10.7,12-15.5
		c3.9-4.8,8.3-9.2,12.9-13.2c1.5-1.5,3.6-2.4,5.7-2.6c0.2,0,0.5,0,0.8,0c0.6,0.1,1.3,0.2,1.9,0.5c2.6,1.3,4.7,3.5,5.6,6.3
		c1,2.6,1,5.5-0.2,8.1c-1.2,2.6-2.5,5.1-3.7,7.6c-1.1,2.3-2.3,4.6-3.4,7c-6.4,13.6-11.5,25.2-15.5,37.3c-1.1,3.3-1.9,6.8-2.7,10.3
		c-0.2,1-0.5,1.9-0.7,2.9c0.2,0,0.4-0.1,0.7-0.1c1.2,0,2.3,0.5,3,1.5c1.6,1.7,2.1,4.3,1.3,6.5c-0.3,0.7-0.7,1.4-1.1,2l-0.6,0.8
		c-4.2,5.4-8.4,10.8-12.7,16.3C182.9,222.6,181.5,224,179.7,224z"/>
	<path class="st3" d="M211.3,116.9h0.5c0.4,0,0.7,0.1,1.1,0.3c3.9,1.8,6.1,7.1,4.3,11c-2.3,4.9-4.8,9.7-7.1,14.6
		c-5.8,12.3-11.3,24.7-15.6,37.6c-1.5,4.4-2.4,8.9-3.5,13.4c-0.1,0.9-0.1,1.8,0.1,2.6c0,0.5,0.5,0.9,1,0.9c0.2,0,0.4-0.1,0.6-0.1
		c0.5-0.3,1-0.4,1.5-0.5c0.4,0,0.8,0.2,1.1,0.6c1,1.1,1.4,2.6,0.9,4c-0.2,0.5-0.5,0.9-0.8,1.3c-4.4,5.7-8.9,11.4-13.3,17.1
		c-0.9,1.1-1.6,1.7-2.2,1.7s-1.2-0.8-1.7-2.3c-0.8-2.9-1.2-5.9-1.4-8.9c-0.5-8.2,2-15.9,4.4-23.6c4.5-14,10.2-27.6,16.1-41.1
		c0.2-0.6,0.4-1.1,0.6-1.7l-0.4-0.2c-0.5,0.5-1,0.9-1.5,1.5c-4.6,4.9-8.2,10.6-11.9,16.2c-6.5,9.6-13.1,19.1-18.5,29.3
		c-0.5,0.9-1.1,1.7-1.8,2.5c-0.8,1.1-2.1,1.7-3.5,1.8c-0.7,0-1.4-0.2-2-0.5c-1.3-0.6-2.5-1.3-3.6-2.1c-2.4-1.8-2.9-3.4-1.8-6.3
		c1.7-4.3,3.6-8.5,5.3-12.7c3.9-9.4,7.8-18.8,11.6-28.2c0.5-1.3,0.9-2.6,1.2-4c0.1-0.6,0-1.2-0.1-1.8c-0.6,0.2-1.1,0.5-1.6,0.9
		c-2.4,2.7-4.9,5.4-7.1,8.2c-11.6,14.8-22.3,30.3-32.2,46.3l-0.1,0.1c-1.3,2-3,3.1-4.7,3.1s-3.6-1.1-4.9-3.4c-0.6-1.1-0.6-2.4,0-3.6
		c0.7-1.5,1.6-3,2.4-4.5c6-10.4,12-20.8,16.4-32c2.4-6.1,4.1-12.5,5-19c0.1-0.6,0.1-1.2,0.1-1.8c-9.1,7.2-18.8,13.4-29.2,18.6
		c-1.9,0.9-3.9,1.7-5.9,2.4c-0.7,0.3-1.5,0.5-2.3,0.5c-0.9,0-1.7-0.3-2.3-1c-1.3-1.4-1.8-3.4-1.1-5.2c0.3-1.1,0.9-2.2,1.8-3
		c3-2.5,6.1-4.9,9.2-7.3c0.4-0.2,0.7-0.4,1.1-0.5c-0.2,1.2-0.4,2.2-0.5,3.2s0,1.3,0.5,1.3c0.3,0,0.6-0.1,0.9-0.2c1-0.4,2-0.9,3-1.5
		c9.1-5.6,17.5-12.3,25-19.9c0.9-1.1,2.1-1.7,3.5-1.9c1.4,0.1,2.7,0.8,3.6,2c1.9,2.2,2.7,5.1,2.3,8c-0.6,6.6-2.4,13.1-4.1,19.5
		c-0.1,0.5-0.2,1-0.1,1.4c1.5-2,3-4,4.5-6c5.4-6.6,10.7-13.2,16.2-19.7c1.3-1.5,2.8-2.8,4.3-4c0.6-0.5,1.4-0.8,2.2-0.8
		c0.7,0,1.3,0.1,1.9,0.4c4.2,1.6,6.1,5.2,4.8,9.4c-2.5,7.7-5.2,15.4-7.8,23.1c-0.9,2.5-1.7,5.1-2.6,7.6c-0.1,0.4-0.2,0.7-0.3,1.1
		l0.3,0.2c0.5-0.7,1-1.3,1.4-2c6-9.6,12.7-18.7,19.9-27.4c3.8-4.7,8-9,12.6-12.9c1.1-1.1,2.5-1.8,4.1-2 M115.7,137.8L115.7,137.8
		 M211.3,111.8c-2.7,0.1-5.3,1.3-7.3,3.2c-4.8,4.1-9.2,8.6-13.2,13.5c-0.9,1.1-1.8,2.2-2.8,3.3l0.3-1c2.2-6.8-0.9-13.1-7.8-15.7
		c-1.2-0.5-2.4-0.7-3.6-0.7c-2,0-3.9,0.7-5.5,2l-0.9,0.8c-1.4,1.1-2.8,2.4-4,3.8c-2.6,3.1-5.2,6.3-7.8,9.5c0-0.4,0.1-0.7,0.1-1.1
		c0.5-4.2-0.7-8.5-3.5-11.7c-2.7-3.1-5.5-3.8-7.3-3.8c-2.7,0.1-5.3,1.3-7.1,3.3c-5.9,6-12.4,11.4-19.4,16.1l0.7-3.9l-8.5,3.8
		l-0.3,0.1c-0.6,0.2-1.2,0.6-1.8,1l-2.2,1.7c-2.4,1.8-4.8,3.7-7.2,5.7c-1.6,1.4-2.7,3.3-3.3,5.3c-1.2,3.6-0.3,7.5,2.2,10.2
		c1.5,1.7,3.7,2.6,5.9,2.6c1.4,0,2.7-0.3,4-0.8l0.6-0.2c2-0.7,4-1.5,5.9-2.4c6.8-3.4,13.3-7.3,19.6-11.6c-0.7,2.5-1.6,4.9-2.5,7.4
		c-4.2,10.6-9.8,20.5-16.1,31.4c-0.8,1.5-1.8,3.1-2.6,4.9c-1.3,2.6-1.2,5.6,0.2,8.1c2.1,3.8,5.5,6,9.2,6c3.5,0,6.8-2,8.9-5.4
		c0.1-0.1,0.1-0.2,0.2-0.3c6.3-10.4,13.4-20.9,21.8-32.4l-2.8,6.7c-0.7,1.7-1.4,3.3-2.1,4.9c-1.1,2.6-2.2,5.2-3.3,7.8
		c-1.9,4.9-0.8,8.9,3.4,12.1c1.4,1.1,3,2,4.6,2.7c1.3,0.6,2.6,0.9,4,0.9c2.8,0,5.5-1.3,7.2-3.5c0.9-1,1.8-2.2,2.5-3.4
		c2.7-5,5.7-9.9,8.8-14.7c-0.8,2.3-1.6,4.7-2.3,7l-0.1,0.2c-2.5,7.9-5.1,16.1-4.6,25.2c0.2,3.3,0.7,6.7,1.5,9.9
		c1.4,5.3,4.7,6.1,6.5,6.1c3,0,4.9-2.1,6.2-3.6c4.2-5.3,8.4-10.8,12.5-16.1l0.8-1c0.6-0.8,1.1-1.7,1.5-2.6c1.1-3.1,0.5-6.5-1.7-8.9
		c-0.7-0.8-1.5-1.5-2.5-1.9l0.1-0.2c0.8-3.5,1.6-6.8,2.7-10.1c4-12,9-23.5,15.4-37c1.1-2.3,2.2-4.7,3.4-6.9c1.2-2.5,2.5-5.1,3.7-7.7
		c1.4-3.2,1.5-6.8,0.2-10c-1.2-3.4-3.7-6.1-7-7.7c-0.8-0.4-1.7-0.6-2.6-0.7c-0.3,0-0.7-0.1-1-0.1L211.3,111.8z M115.7,132.8
		L115.7,132.8z"/>
	<path class="st4" d="M159,261.5c-11.3,0-16.4-11.2-16.4-22.4c0-14.3,6.1-22.8,16.4-22.8c6.7,0,11.8,4,13.9,11l0.7,2.2l-12,4.6H174
		v5.6C174,253.7,168.6,261.5,159,261.5z M156.6,246.4c0.6,1.9,1.5,3,2.6,3s1.6-1.4,1.8-3H156.6z M158.9,228.4
		c-1.8,0-3.1,4.6-3.1,10.5c0,2.2,0.2,4.4,0.6,6.6v-11.3h4.6l-0.5-2.8c-0.5-2.7-1-3-1.5-3H158.9z"/>
	<path class="st3" d="M159,218.8c5.9,0,9.8,3.7,11.5,9.2l-7.5,2.9c-0.4-2-1-5-3.9-5h-0.2c-5,0-5.5,9.4-5.5,13c0,4,0.3,13,5.9,13
		c3.9,0,4.5-5.3,4.5-8h-4.9v-7.2h12.6v3c0,8.3-2,19.2-12.5,19.2s-13.9-11.2-13.9-19.9C145.1,230.1,148,218.8,159,218.8 M159,213.8
		c-11.6,0-18.9,9.7-18.9,25.3c0,12.4,5.8,24.9,18.9,24.9c5.3,0,17.5-2.4,17.5-24.2v-8H175l1.6-0.6l-1.3-4.4
		C172.8,218.6,166.8,213.8,159,213.8L159,213.8z"/>
	<path class="st4" d="M191.7,261.5c-7.8,0-16.2-5.9-16.2-22.6s8.4-22.6,16.2-22.6s16.2,5.9,16.2,22.6S199.5,261.5,191.7,261.5z
		 M191.7,228.5c-1.5,0-3,3.6-3,10.5c0,5.9,1.3,10.5,3,10.5s3-4.6,3-10.5C194.7,232,193.2,228.4,191.7,228.5L191.7,228.5z"/>
	<path class="st3" d="M191.7,218.8c6.9,0,13.7,5.5,13.7,20.1s-6.8,20.1-13.7,20.1s-13.7-5.5-13.7-20.1S184.8,218.8,191.7,218.8
		 M191.7,251.8c5.1,0,5.5-9.9,5.5-13c0-3.5-0.4-13-5.5-13s-5.5,9.5-5.5,13C186.2,241.9,186.6,251.8,191.7,251.8 M191.7,213.8
		c-8.6,0-18.7,6.6-18.7,25.1s10.1,25.1,18.7,25.1s18.7-6.6,18.7-25.1S200.3,213.8,191.7,213.8L191.7,213.8z M191.7,244.4
		c-0.6-3.7-0.6-7.5,0-11.2C192.3,236.9,192.3,240.7,191.7,244.4z"/>
	<polygon class="st4" points="210.8,260.8 210.8,216.9 223.5,216.9 223.5,248.6 231.6,248.6 231.6,260.8 	"/>
	<path class="st3" d="M221,219.4v31.7h8v7.2h-15.7v-38.9H221 M226,214.4h-17.7v48.9h25.8v-17.2h-8L226,214.4L226,214.4z"/>
	<path class="st4" d="M234,260.8v-43.9h8.5c0.3,0,0.8,0,1.3,0c4-0.1,7.9,1.2,11.1,3.5c4.8,3.7,7.3,10.1,7.3,18.8
		c0,14-6.7,21.6-18.9,21.6H234z M246.7,248.2c0.7-0.6,1.2-1.3,1.6-2.2c0.9-2.2,1.4-4.5,1.3-6.9c0-0.9-0.1-7-2.9-9.4L246.7,248.2z"/>
	<path class="st3" d="M243.8,219.4c4.4,0,15.9,1.4,15.9,19.8c0,11.1-4.3,19.1-16.4,19.1h-6.9v-38.9h5.8
		C242.5,219.4,243,219.4,243.8,219.4 M244.5,251.5c5.9,0,7.5-7.5,7.5-12.3c0-5-1.6-12.8-7.9-12.8v25.1H244.5 M243.8,214.4
		L243.8,214.4c-0.6,0-1.1,0-1.5,0h-10.9v48.9h11.9c13.6,0,21.4-8.8,21.4-24.1C264.7,216.2,248.7,214.4,243.8,214.4L243.8,214.4z"/>
	<path class="st3" d="M276.5,255.3l0.6,1.3l-1.6,0.7l4.3,9.7l-1.5,0.6l-4.3-9.7l-1.7,0.8l-0.6-1.3L276.5,255.3z"/>
	<path class="st3" d="M285.9,257c1,1.9,2.9,5.4,0.2,6.9s-4.7-2-5.7-3.9s-2.9-5.4-0.2-6.9S284.9,255.1,285.9,257z M281.9,259.2
		c1.2,2.2,2.4,4,3.5,3.4s0.2-2.6-1-4.8s-2.4-4-3.5-3.4S280.7,257,281.9,259.2L281.9,259.2z"/>
	<path class="st3" d="M291.7,245.8l0.8,1.1L291,248l6.3,8.6l-1.3,0.9l-6.3-8.6l-1.5,1.1l-0.8-1.1L291.7,245.8z"/>
	<path class="st3" d="M301.3,245.5c1.4,1.6,4,4.7,1.7,6.7s-5-1-6.4-2.6s-4-4.7-1.7-6.7S299.9,243.9,301.3,245.5z M297.9,248.5
		c1.7,1.9,3.2,3.4,4.1,2.6s-0.3-2.5-2-4.5s-3.2-3.4-4.1-2.6S296.2,246.6,297.9,248.5L297.9,248.5z"/>
	<path class="st3" d="M302.1,236.2l1,1l-1.9,1.9l2.7,2.6l1.7-1.7l1,1l-1.7,1.7l2.9,2.8l1.9-1.9l1,1l-3,3.1l-8.6-8.4L302.1,236.2z"/>
	<path class="st3" d="M247.4,65.7l-0.6,4.7l2.4,0.3l0.6-4.7l1.6,0.2l-1.5,11.9l-1.6-0.2L249,72l-2.4-0.3l-0.7,5.9l-1.6-0.2l1.5-11.9
		L247.4,65.7z"/>
	<path class="st3" d="M259.4,67.8l-0.3,1.4l-2.6-0.5l-0.8,3.7l2.3,0.5l-0.3,1.4l-2.4-0.5l-0.8,4l2.6,0.5l-0.3,1.4l-4.2-0.9L255,67
		L259.4,67.8z"/>
	<path class="st3" d="M265.3,69.3l-0.8,12.3l-1.5-0.4l0.2-2.4l-2.3-0.7l-1.1,2.1l-1.5-0.4l5.8-10.8L265.3,69.3z M263.4,75.8l0.6-4.4
		l0,0l-2.6,5.6l1.8,0.5L263.4,75.8z"/>
	<path class="st3" d="M272.1,71.6l-3.7,10l2.5,0.9l-0.5,1.3l-4-1.5l4.2-11.3L272.1,71.6z"/>
	<path class="st3" d="M273.7,85.2l-1.5-0.6l4.8-11l1.5,0.6L273.7,85.2z"/>
	<path class="st3" d="M281.6,79.6l-1.7,3.7l-2,3.9l-1.4-0.7l5.5-10.7l1.4,0.7l-1.8,9.4l0,0l1.9-4.4l2-3.8l1.4,0.7L281.4,89l-1.3-0.7
		l1.8-9.5l0,0L281.6,79.6z"/>
	<path class="st3" d="M292.2,88.3l-0.1,0.2c-1.2,1.9-3.1,5.5-5.8,3.8c-2.4-1.6-1.2-4,0.6-6.9s3.6-5.1,5.9-3.6
		c1.4,0.9,1.6,2.1,1.1,3.7l-1.6-0.3c0.3-0.8,0.5-1.5-0.3-2.1c-1.1-0.7-2.1,0.7-3.7,3.2c-2.3,3.5-1.9,4.3-1.3,4.7s1.2,0.7,2.8-1.8
		l0.4-0.6l-1.1-0.7l0.8-1.2L292.2,88.3z"/>
	<path class="st3" d="M305.3,91.4l-0.9,1.1l-2.1-1.8l-2.4,2.9l1.9,1.6l-0.9,1.1l-1.8-1.6l-3.5,4.2l-1.2-1l7.8-9.2L305.3,91.4z"/>
	<path class="st3" d="M307.5,93.4l1.4,1.3c0.8,0.8,2.1,2.1,0,4.3c-0.8,0.8-2.2,1.8-3.4,1.1l-2.5,5.7l-1.2-1.2l2.5-5.7l0,0l-4.1,4.2
		l-1.1-1.1L307.5,93.4z M307.4,98.1c0.8-0.8,1.4-1.6,0.5-2.4l-0.2-0.2l-2.8,2.8C305.7,99.2,306.6,98.9,307.4,98.1z"/>
	<path class="st3" d="M312.9,107.9c-1.6,1.4-4.7,4-6.7,1.7s1-5,2.6-6.4s4.7-4,6.7-1.7S314.5,106.5,312.9,107.9z M309.9,104.5
		c-1.9,1.7-3.4,3.2-2.6,4.1s2.5-0.3,4.5-2s3.4-3.2,2.6-4.1S311.9,102.8,309.9,104.5L309.9,104.5z"/>
	<path class="st3" d="M320.8,108.4l-6.1,6.4l0,0l0.4-0.2l2.6-1.3l4.9-2.2l0.8,1.2l-9.2,7.8l-0.9-1.3l3.5-2.8l1.8-1.4l1.3-0.9l0,0
		l-1.6,0.8l-6.1,2.8l-0.6-0.9l5.9-6l0,0l-7,4.4l-0.9-1.2l10.4-6.1L320.8,108.4z"/>
	<path class="st3" d="M330.1,123.7l-1.2,0.7l-0.8-1.6l-9.4,5l-0.7-1.4l9.4-5l-0.9-1.7l1.2-0.6L330.1,123.7z"/>
	<path class="st3" d="M328,133.9c-2,0.9-5.7,2.4-6.9-0.4s2.4-4.5,4.4-5.3s5.7-2.4,6.9,0.4C333.6,131.4,330,133.1,328,133.9z
		 M326.2,129.7c-2.3,1-4.2,2-3.7,3.2s2.5,0.5,4.9-0.5s4.2-2,3.7-3.2S328.6,128.7,326.2,129.7z"/>
	<path class="st3" d="M323.4,138.7l11.4-3.8l0.6,1.8c0.4,1.3,0.9,3-2.1,4c-2.3,0.8-3.7,0.2-4.4-2.2l-5,1.7L323.4,138.7z
		 M334.1,136.9l-3.8,1.3c0.3,1.3,1.2,1.4,2.5,1c1-0.3,1.8-0.9,1.4-2.1L334.1,136.9z"/>
	<g class="st5">
		<path class="st1" d="M150.3,349.4c0,17-7.9,23.3-15.9,23.3s-15.9-6.4-15.9-23.3s7.9-23.3,15.9-23.3
			C142.4,326.1,150.3,332.4,150.3,349.4z M134.4,364.5c5.9,0,6.4-11.5,6.4-15.1c0-4-0.4-15.1-6.4-15.1c-5.9,0-6.4,11-6.4,15.1
			C128.1,353,128.5,364.5,134.4,364.5z"/>
		<path class="st1" d="M156.9,372v-45.2h9c5.7,0,15.9,0.6,15.9,13c0,5-2,9.2-6.4,11.7l7.9,20.6h-9.4l-7.9-20.9h-0.1V372H156.9z
			 M165.8,346.2l1.6,0.1c4.1,0,5.7-2.8,5.7-6.5c0-3.2-1.6-5.9-6.1-5.6h-1.2V346.2z"/>
		<path class="st1" d="M199.4,326.8V372h-8.9v-45.2H199.4z"/>
		<path class="st1" d="M236.6,346.8v3.5c0,9.6-2.3,22.4-14.5,22.4S206,359.6,206,349.6c0-10.4,3.4-23.6,16.1-23.6
			c6.9,0,11.4,4.3,13.3,10.7l-8.7,3.4c-0.4-2.3-1.1-5.8-4.6-5.8c-6.1-0.4-6.7,10.8-6.7,15.1c0,4.7,0.3,15.1,6.9,15.1
			c4.6,0,5.3-6.1,5.3-9.2H222v-8.4h14.6V346.8z"/>
		<path class="st1" d="M252.1,326.8V372h-8.9v-45.2H252.1z"/>
		<path class="st1" d="M268.8,326.8l11.2,27.3l0.1-0.1c-0.5-2.2-0.7-4.5-0.7-6.8v-20.3h8.9V372h-8.5l-11-27.3l-0.1,0.1l0.4,4.6
			l0.1,1.9V372h-8.9v-45.2H268.8z"/>
		<path class="st1" d="M313.6,326.8l10.9,45.2H315l-1.7-7.6h-9.1l-1.6,7.6h-8.9l10.5-45.2H313.6z M309.7,345.3l-1-6.8h-0.1l-1,6.8
			l-1.9,12.1h6.3L309.7,345.3z"/>
	</g>
	<g class="st5">
		<path class="st1" d="M338.8,326.8v36.8h9.4v8.4h-18.3v-45.2L338.8,326.8L338.8,326.8z"/>
	</g>
</g>
</svg>
