<?xml version="1.0" encoding="utf-8"?>
<!-- Generator: Adobe Illustrator 26.0.3, SVG Export Plug-In . SVG Version: 6.00 Build 0)  -->
<svg version="1.1" id="Poter" xmlns="http://www.w3.org/2000/svg" xmlns:xlink="http://www.w3.org/1999/xlink" x="0px" y="0px"
	 viewBox="0 0 480 395" style="enable-background:new 0 0 480 395;" xml:space="preserve">
<style type="text/css">
	.st0{enable-background:new    ;}
	.st1{fill:#1E97D5;}
	.st2{fill:#E62942;}
	.st3{fill:#DBC288;}
	.st4{fill:#169FD9;}
	.st5{fill:#FFFFFF;}
</style>
<g id="Porter">
	<g class="st0">
		<path class="st1" d="M151.1,367.4v-45.2h9.3c1.9,0,15.4-1.2,15.4,13.4c0,8.5-5.5,13.3-13.7,13.3l-2-0.1v18.7L151.1,367.4
			L151.1,367.4z M160,341.5c4.3,0.2,6.8-1.4,6.8-6.1c0-3.2-1.3-5.9-5.1-5.9H160V341.5z"/>
		<path class="st1" d="M211.5,344.8c0,17-7.9,23.3-15.9,23.3s-15.9-6.4-15.9-23.3s7.9-23.3,15.9-23.3
			C203.5,321.5,211.5,327.8,211.5,344.8z M195.6,359.9c5.9,0,6.4-11.5,6.4-15.1c0-4-0.4-15.1-6.4-15.1c-5.9,0-6.4,11-6.4,15.1
			C189.2,348.4,189.6,359.9,195.6,359.9z"/>
	</g>
	<g class="st0">
		<path class="st1" d="M218.8,367.4v-45.2h9c5.7,0,15.9,0.6,15.9,13c0,5-2,9.2-6.4,11.7l7.9,20.6h-9.4l-7.9-20.9h-0.1v20.9h-9V367.4
			z M227.8,341.6l1.6,0.1c4.1,0,5.7-2.8,5.7-6.5c0-3.2-1.6-5.9-6.1-5.6h-1.2V341.6z"/>
	</g>
	<g class="st0">
		<path class="st1" d="M272.8,322.2v8.4h-7.1v36.8h-8.9v-36.8h-7v-8.4H272.8z"/>
		<path class="st1" d="M295.9,322.2v8.4h-9.1v9.8h8v8.4h-8V359h9.2v8.4h-18.1v-45.2L295.9,322.2L295.9,322.2z"/>
		<path class="st1" d="M302.4,367.4v-45.2h9c5.7,0,15.9,0.6,15.9,13c0,5-2,9.2-6.4,11.7l7.9,20.6h-9.4l-7.9-20.9h-0.1v20.9h-9V367.4
			z M311.3,341.6l1.6,0.1c4.1,0,5.7-2.8,5.7-6.5c0-3.2-1.6-5.9-6.1-5.6h-1.2V341.6z"/>
	</g>
	<path class="st2" d="M287.2,62l-14.1-29.3L248,53.9C261.5,54.4,274.7,57.1,287.2,62z"/>
	<path class="st2" d="M239,53.9l-25.1-21.2l-14,29.3C212.4,57.1,225.6,54.4,239,53.9z"/>
	<path class="st2" d="M191.1,65.7l-31.4-9.2L159,88.4C168.4,79.1,179.3,71.5,191.1,65.7z"/>
	<path class="st2" d="M124,172c0-10.9,1.5-21.8,4.5-32.4l-26.7,16.1l22.2,20.8C124,175,124,173.5,124,172z"/>
	<path class="st2" d="M385.3,155.7l-26.7-16.1c3,10.5,4.6,21.4,4.5,32.4c0,1.5,0,3-0.1,4.5L385.3,155.7z"/>
	<path class="st2" d="M354.9,128.8L367,100l-31.9-4.1C343.4,105.7,350.1,116.8,354.9,128.8z"/>
	<path class="st2" d="M328.1,88.4l-0.8-31.9L296,65.7C307.9,71.5,318.7,79.2,328.1,88.4z"/>
	<path class="st2" d="M152,95.9l-31.9,4.1l12.1,28.7C137,116.8,143.7,105.7,152,95.9z"/>
	<path class="st2" d="M125.2,189.3L108,214l28,9.8C130.6,212.9,127,201.3,125.2,189.3z"/>
	<path class="st2" d="M351.1,223.7l28-9.8l-17.2-24.7C360.1,201.3,356.4,212.9,351.1,223.7z"/>
	<path class="st2" d="M276.5,285.6l25,13.5l6.7-27.7C298.3,277.7,287.7,282.5,276.5,285.6z"/>
	<path class="st2" d="M320.5,262.4l28.9,2.3l-5.5-28.6C337.5,246,329.6,254.9,320.5,262.4z"/>
	<path class="st2" d="M143.1,236.1l-5.4,28.6l28.9-2.3C157.5,254.9,149.5,246,143.1,236.1z"/>
	<path class="st2" d="M178.9,271.5l6.7,27.7l25-13.5C199.4,282.5,188.7,277.7,178.9,271.5z"/>
	<path class="st2" d="M243.6,290.2c-5.8,0-11.6-0.4-17.3-1.2l17.3,22.4l17.3-22.3C255.1,289.8,249.3,290.2,243.6,290.2z"/>
	<path class="st2" d="M244.1,285.2c-62.2,0-112.6-50.4-112.6-112.6S181.9,59.9,244.1,59.9s112.6,50.4,112.6,112.6
		S306.3,285.1,244.1,285.2z M244.1,63.6c-60.2,0-108.9,48.8-108.9,108.9S184,281.4,244.1,281.4S353,232.7,353,172.5l0,0
		C353,112.4,304.2,63.7,244.1,63.6z"/>
	<path class="st3" d="M244.3,207.5v2.9c0,7.9-1.9,18.5-12,18.5s-13.3-10.8-13.3-19c0-8.6,2.8-19.5,13.3-19.5c5.7,0,9.4,3.6,11,8.9
		l-7.2,2.7c-0.3-1.9-0.9-4.8-3.8-4.8c-5-0.3-5.5,8.9-5.5,12.4c0,3.9,0.2,12.4,5.7,12.4c3.8,0,4.4-5.1,4.4-7.6h-4.7v-6.9L244.3,207.5
		z"/>
	<path class="st3" d="M276.9,209.7c0,14-6.5,19.3-13.1,19.3s-13.1-5.2-13.1-19.3s6.5-19.3,13.1-19.3S276.9,195.6,276.9,209.7z
		 M263.7,222.1c4.9,0,5.2-9.5,5.2-12.4c0-3.3-0.4-12.4-5.2-12.4s-5.3,9.1-5.3,12.4C258.5,212.6,258.8,222.1,263.7,222.1L263.7,222.1
		z"/>
	<path class="st3" d="M291.9,191v30.4h7.7v6.9h-15.1V191H291.9z"/>
	<path class="st3" d="M306.7,228.4V191h5.6c1.3,0,16.8-1.9,16.8,19c0,10.7-4.1,18.4-15.8,18.4H306.7z M321.7,209.9
		c0-4.8-1.5-12.3-7.6-12.3v24.1C320,222,321.7,214.6,321.7,209.9L321.7,209.9z"/>
	<path class="st4" d="M199.9,80.1l2.4,5.4l2.8-1.3l-2.4-5.4l1.8-0.8l6.2,13.9l-1.8,0.8l-3.1-6.9L203,87l3.1,6.9l-1.9,0.8L198,80.8
		L199.9,80.1z"/>
	<path class="st4" d="M214.5,74.5l0.6,1.7l-3.2,1.1l1.5,4.5l2.9-1l0.6,1.7l-2.9,1l1.6,4.9l3.2-1.1l0.6,1.7l-5.2,1.7l-4.8-14.4
		L214.5,74.5z"/>
	<path class="st4" d="M222.2,72.5l6.6,14.1l-2,0.5l-1.2-2.8l-3,0.7l0.1,3l-1.9,0.4l-0.2-15.6L222.2,72.5z M224.1,80.8l-2-5.2l0,0
		l0.6,7.8l2.4-0.5L224.1,80.8z"/>
	<path class="st4" d="M231.3,70.9l1.8,13.4l3.4-0.5l0.2,1.7l-5.4,0.7l-2-15.1L231.3,70.9z"/>
	<path class="st4" d="M241.3,85.2l-2,0.1l-0.9-15.2l2-0.1L241.3,85.2z"/>
	<path class="st4" d="M247,74.4l0.2,5.1l-0.2,5.6h-2l0.4-15.2l1.9,0.1l3.2,11.7l0,0l-0.3-6.1l0.1-5.4l2,0.1L252,85.2l-1.9-0.1
		l-3.2-11.8l0,0L247,74.4z"/>
	<path class="st4" d="M263.9,78.6v0.2c-0.4,2.9-0.7,8-4.7,7.4c-3.6-0.5-3.5-4-2.9-8.3s1.5-7.7,4.9-7.2c2.1,0.3,3,1.5,3.2,3.6l-2,0.5
		c-0.1-1-0.2-2-1.4-2.2c-1.6-0.2-2.1,2-2.6,5.6c-0.8,5.2,0,6,0.9,6.1s1.7,0.1,2.2-3.5l0.1-0.8l-1.7-0.2l0.2-1.7L263.9,78.6z"/>
	<path class="st4" d="M280.9,75.7l-0.5,1.7l-3.3-1l-1.4,4.6l3,0.9l-0.5,1.7l-3-0.9l-2,6.6l-1.9-0.6l4.5-14.6L280.9,75.7z"/>
	<path class="st4" d="M284.9,77.1l2.2,1c1.4,0.6,3.4,1.6,2,5.1c-0.6,1.3-1.8,3.2-3.5,2.8l-0.3,7.9l-1.9-0.8l0.4-7.9l0,0l-2.9,6.9
		l-1.9-0.8L284.9,77.1z M286.9,82.7c0.6-1.3,0.9-2.5-0.5-3.1l-0.3-0.1l-2,4.6C285.4,84.8,286.3,84.1,286.9,82.7L286.9,82.7z"/>
	<path class="st4" d="M297.9,91.9c-1.3,2.4-3.8,6.8-7.2,5s-1-6.3,0.3-8.8s3.8-6.8,7.2-4.9S299.2,89.5,297.9,91.9z M292.8,89.1
		c-1.6,2.8-2.6,5.3-1.2,6.1s2.9-1.5,4.4-4.3s2.6-5.3,1.2-6.1S294.4,86.3,292.8,89.1z"/>
	<path class="st4" d="M307.7,89.2L303,99.4l0,0l0.4-0.5l2.6-2.6l5-4.7l1.4,1l-7.8,13.2l-1.6-1.2l3-4.8l1.6-2.4l1.1-1.7l0,0l-1.6,1.6
		l-6.1,5.8l-1.1-0.8l4.6-9.7l0,0l-6.6,8.2l-1.5-1.1l9.9-11.6L307.7,89.2z"/>
	<path class="st4" d="M325.1,104.2l-1.2,1.2l-1.6-1.6l-9.5,9.5l-1.4-1.4l9.5-9.5l-1.7-1.7l1.2-1.2L325.1,104.2z"/>
	<path class="st4" d="M326.4,117.5c-2.1,1.7-6.1,4.9-8.6,1.9s1.4-6.3,3.5-8s6.1-4.9,8.6-1.9S328.5,115.8,326.4,117.5z M322.7,113
		c-2.5,2-4.4,3.9-3.4,5.2s3.2-0.3,5.7-2.3s4.4-3.9,3.4-5.2S325.2,111,322.7,113z"/>
	<path class="st4" d="M322.4,125l12.8-8.3l1.3,2c1,1.4,2,3.4-1.2,5.5c-2.6,1.7-4.5,1.5-6.1-1.2l-5.6,3.7L322.4,125z M334.8,119.3
		l-4.2,2.7c0.9,1.5,1.9,1.4,3.3,0.5c1.1-0.8,1.9-1.7,1-3L334.8,119.3z"/>
	<path class="st4" d="M269.3,254.6l0.4,1.7l-2.2,0.5l3.1,13.1l-2,0.5l-3.1-13.1l-2.3,0.5l-0.4-1.7L269.3,254.6z"/>
	<path class="st4" d="M280.6,258.9c0.9,2.6,2.5,7.4-1.2,8.7s-5.4-3.5-6.3-6.1s-2.5-7.4,1.2-8.7S279.7,256.3,280.6,258.9z
		 M275.1,260.8c1.1,3,2.2,5.5,3.7,5s0.8-3.1-0.2-6.2s-2.2-5.5-3.7-5S274.1,257.7,275.1,260.8z"/>
	<path class="st4" d="M289.8,245.8l0.9,1.5l-2,1.1l6.5,11.8l-1.8,1l-6.5-11.8l-2.1,1.2l-0.9-1.5L289.8,245.8z"/>
	<path class="st4" d="M301.8,246.8c1.6,2.2,4.5,6.4,1.2,8.7c-3.2,2.2-6.1-1.9-7.7-4.1s-4.5-6.4-1.2-8.7S300.2,244.5,301.8,246.8z
		 M297.1,250.1c1.9,2.6,3.6,4.7,4.9,3.8s0-3.2-1.9-5.9s-3.6-4.7-4.9-3.8S295.2,247.4,297.1,250.1L297.1,250.1z"/>
	<path class="st4" d="M303.7,235.1l1.2,1.3l-2.5,2.3l3.2,3.6l2.3-2l1.2,1.3l-2.3,2l3.4,3.9l2.5-2.3l1.2,1.3l-4.1,3.6l-10.1-11.4
		L303.7,235.1z"/>
	<path class="st1" d="M216.7,193c-7.4,0-13.2-5.3-14.7-13.3c-1-5.5-0.1-11.1,2.7-17.6c2.5-5.9,5.8-9.9,10.1-12.4
		c2.6-1.6,5.6-2.4,8.6-2.5c1.3,0,2.6,0.2,3.9,0.5c2.3,0.5,4.4,1.9,5.6,3.9c0.8,1.3,1.1,2.7,1.1,4.2c1.4,1.3,2.5,3,3.2,4.8
		c0.2,0,0.4-0.1,0.6-0.1c0.4-0.1,1-0.2,1.4-0.3c0.1-0.3,0.2-0.9,0.3-1.3c2.9-13.8,9.3-26.6,18.4-37.3c2.5-2.9,6.1-6.6,11.2-8.5
		c1-0.4,2.1-0.7,3.3-0.8c0.5-0.1,1-0.1,1.4-0.1c3,0,6.8,1.2,7.8,7.2c0.5,3.7,0.1,7.5-1.2,11c-1.8,5.4-4.3,10.6-7.6,15.3
		c-4.1,6.3-8.9,12.2-14.1,17.6c-1,0.9-2,1.8-3.1,2.6c-0.6,0.5-1.3,1-1.9,1.5l0,0c0.1,1.1,0.3,2.2,0.7,3.2c0.2,0.8,1,1.4,1.9,1.3
		c0.3,0,0.7-0.1,1-0.2c3-1,5.4-3.2,7.9-5.8c4.7-4.8,8.6-10.5,12.5-15.9c1-1.5,2.1-3,3.1-4.5c1-1.4,2.1-2.6,3.3-3.8
		c1.3-1.2,2.9-1.8,4.6-1.8c0.9,0,1.8,0.1,2.6,0.4c2.2,0.5,3.7,2.7,3.2,4.9c0,0.1,0,0.2-0.1,0.2c0,0.5-0.2,0.9-0.4,1.3
		c-0.7,1.2-0.5,2.3,0.6,4.6c0.4,0.8,0.8,1.5,1.1,2.2s0.8,1.4,1.1,2.2c1,1.9,1.9,3.8,2.9,5.8c1.3-0.9,2.5-2.1,3.4-3.4
		c0.4-0.7,0.7-1.5,0.8-2.3c0.1-0.4,0.2-0.8,0.3-1.2c2.2-7.3,6-12.6,11.6-16c2.3-1.6,5.1-2.4,7.9-2.6c1,0,1.9,0.1,2.8,0.4
		c2.8,0.6,4.8,2.9,5.2,5.8c0.1,0.7,0,1.5-0.2,2.2l0.4,0.1c1.1,0.4,2.2,1,3.1,1.7c0.7,0.6,1.6,1,2.5,1.1c0.9-0.1,1.7-0.5,2.2-1.2
		c2.1-2.4,4.1-4.9,5.8-7.5c0.7-1.1,2.1-3,4.5-3c1.1,0.1,2.2,0.4,3.2,1c0.4,0.2,0.9,0.5,1.3,0.8c1.2,0.7,2.2,1.7,2.8,2.9l0.6-0.7
		c2.2-2.4,4.6-4.7,7.1-6.8c1.5-1.3,3.3-2,5.3-2c1.8,0,3.5,0.6,5,1.6c6.1,3.8,6.1,6.9,3.6,12.2c-1.4,3-2.6,6.2-3.7,9.3L375,155
		c1.6-0.9,3.6-0.7,5,0.4c3.5,2.6,3.1,5.5,2.5,6.9c-0.6,1.6-1.5,3-2.6,4.4c-1.6,1.9-3.4,3.7-5,5.4l-1.2,1.2c-0.8,0.9-2,1.5-3.3,1.5
		c-1.2,0-2.3-0.5-3.2-1.3c-3.7-3.2-5.7-6.7-6.2-10.8c-0.3-3.2,0.1-6.4,1.2-9.4c-2.4,2.9-4.5,6-6.1,9.4c-1.4,2.7-2.7,5.6-4,8.4
		c-0.4,1-0.9,1.9-1.3,2.8s-1.5,3.3-4.2,3.3c-1.1,0-2.2-0.4-3.1-1c-1-0.6-2-1.4-2.9-2.2c-2-1.7-2.9-4.4-2.1-6.9l1.9-7.3
		c-0.6,0.2-1.1,0.3-1.8,0.5c-0.1,0-0.1,0-0.2,0.1c0,0.1-0.1,0.2-0.1,0.3c-1.3,7-5.4,13.2-11.4,17.2c-2.6,1.8-5.7,2.8-8.9,2.8
		c-1.1,0-2.3-0.1-3.4-0.3c-3.6-0.6-6.4-3-8.5-7.2c-0.2-0.3-0.3-0.6-0.5-0.9l-2.8,2.5c-2,1.8-4,3.6-6,5.3c-3.3,2.8-6.7,4.2-10.1,4.2
		c-1.8,0-3.6-0.4-5.3-1.1c-1.7-0.8-3.3-2-4.6-3.4c-1.6-1.6-1.9-4-0.7-5.9l0.7-1.4c0.6-1.2,1.3-2.5,2-3.7c0.7-1.4,2.1-2.3,3.7-2.3
		c0.9,0,2.6,0.4,3.9,2.7c0.1,0.3,0.4,0.6,0.6,0.9l0.3-0.1c0.5-0.1,0.5-0.7,0.5-1.1c-0.1-1.1-0.3-2.2-0.7-3.2
		c-0.6-1.7-1.4-3.4-2.2-5.2l-1,1.3c-2.5,3.5-5.1,7-7.8,10.5c-3.3,4.2-6.9,8.5-11.5,11.9c-2.9,2.4-6.5,3.7-10.3,3.8
		c-1.6,0-3.2-0.3-4.7-0.8c-4.3-1.5-7.4-4.8-9.3-10.2c-0.5-1.3-0.8-2.7-1.1-4.1l-2.1,0.5c-1.5,6.3-5.1,11.8-10.2,15.7
		C224.1,191.6,220.5,192.9,216.7,193z M220.7,161.4c-3.4,3.4-5.1,8.1-4.7,12.9c0.1,0.9,0.4,2.9,2.2,2.9c0.8,0,1.7-0.3,2.3-0.9
		c2-1.4,3.3-3.4,4.4-6.5c-0.1-0.1-0.4-0.2-0.6-0.4c-0.5-0.3-0.9-0.6-1.3-1c-2.3-2-3.1-4.3-2.4-6.8l0.1-0.4
		C220.8,161.3,220.7,161.4,220.7,161.4L220.7,161.4z M323.5,148.3c-1.7,0.9-3,2.4-3.8,4.1c-1.4,2.9-2.2,6.1-2.1,9.3c0,1,0.3,2,0.6,3
		c0.3,0.7,0.9,1.1,1.6,1.1c0.2,0,0.5,0,0.7-0.1c0.7-0.2,1.4-0.6,2-1.1c1.7-1.5,3-3.3,3.8-5.4c-1.3-0.8-2.4-1.8-3.3-3
		c-0.9-1.5-1.2-3.3-0.8-5C322.6,150.2,323,149.2,323.5,148.3z M265.1,133.3c-0.7,0.6-1.3,1.2-1.9,1.9c-2.9,3.6-5.2,7.6-6.8,11.9
		c3-3.5,5.5-7.3,7.7-11.3C264.5,135,264.8,134.2,265.1,133.3L265.1,133.3z"/>
	<path class="st5" d="M273.9,114.6c3.1,0,4.7,1.6,5.3,5.1c0.4,3.3,0,6.7-1.1,9.9c-1.7,5.2-4.2,10.1-7.3,14.6
		c-4,6.2-8.7,12-13.8,17.3c-1.5,1.4-3.2,2.6-4.8,4c-0.4,0.4-1,1-1,1.5c0.1,1.5,0.4,3.1,0.9,4.5c0.6,1.8,2.3,2.9,4.2,2.9
		c0.6,0,1.2-0.1,1.8-0.3c3.7-1.2,6.4-3.8,9-6.5c6.1-6.3,10.8-13.6,15.9-20.6c0.9-1.2,1.9-2.4,3-3.4c0.8-0.7,1.8-1.1,2.9-1.1
		c0.7,0,1.3,0.1,2,0.3c0.9,0.2,1.5,1.1,1.3,2c0,0.1,0,0.2-0.1,0.3c0,0.2,0,0.3-0.1,0.5c-1.5,2.5-0.6,4.8,0.6,7
		c0.7,1.5,1.5,2.9,2.3,4.4c1.4,2.7,2.7,5.4,4.1,8.3c2.5-1.4,4.7-3.3,6.4-5.6c0.7-1.3,1.2-2.8,1.5-4.3c1.8-6.1,4.9-11.2,10.5-14.6
		c1.9-1.3,4.2-2.1,6.6-2.2c0.7,0,1.5,0.1,2.2,0.3c1.8,0.4,3.1,1.8,3.3,3.6c0.2,0.9-0.3,1.9-1.2,2.1c-0.1,0-0.2,0-0.3,0
		c-0.8,0.1-1.6,0.1-2.4,0.3c-3.5,0.8-6.4,3.2-7.9,6.4c-1.6,3.2-2.4,6.8-2.4,10.4c0,1.3,0.3,2.7,0.8,3.9c0.7,1.6,2.2,2.6,4,2.6
		c0.5,0,1-0.1,1.5-0.2c1-0.3,2-0.9,2.8-1.5c2.2-1.9,3.8-4.3,4.7-7.1c0.4-1,0-1.6-0.9-2.2c-1.1-0.6-2.1-1.5-2.9-2.5
		c-0.5-0.9-0.7-1.9-0.5-2.9c0.5-1.4,1.1-2.7,2-3.9c0.6-0.9,1.6-1.5,2.6-1.5c0.6,0,1.3,0.1,1.9,0.4c0.9,0.3,1.7,0.8,2.5,1.4
		c1.1,0.9,2.5,1.5,4,1.5c1.6-0.1,3.1-0.8,4.2-2.1c2.2-2.5,4.2-5.1,6-7.8c0.9-1.3,1.5-2,2.4-2c0.7,0.1,1.4,0.3,2,0.7
		c0.4,0.2,0.8,0.4,1.1,0.7c2.1,1.3,2.6,2.7,2.1,5.1c-0.2,1.1-0.6,2.2-0.9,3.7c2-2.5,3.6-4.9,5.5-7c2.1-2.3,4.4-4.5,6.8-6.6
		c1-0.9,2.3-1.4,3.7-1.4c1.3,0,2.6,0.5,3.7,1.2c4.7,3,4.8,4.4,2.6,9c-1.8,3.9-3.2,8-4.8,12.1c-0.2,0.8-0.3,1.6-0.2,2.4
		c0,0.9,0.3,1.4,0.9,1.4c0.4,0,0.7-0.1,1-0.3c0.5-0.3,1-0.6,1.4-0.9c0.5-0.5,1.2-0.9,1.9-0.9c0.5,0,0.9,0.2,1.3,0.5
		c1.6,1.2,2.3,2.4,1.6,4c-0.5,1.3-1.2,2.6-2.1,3.7c-1.9,2.3-4,4.4-6.1,6.6c-0.4,0.4-0.9,0.7-1.5,0.7s-1.1-0.3-1.5-0.6
		c-2.8-2.4-4.9-5.4-5.4-9.2c-0.5-3.4,0.5-6.5,1.6-9.7c0.6-2,1.4-3.9,2-5.9c0.1-0.3,0.1-0.6,0.2-0.8L367,146c-1,0.6-1.9,1.3-2.8,2
		c-4.2,4-7.7,8.6-10.3,13.8c-1.9,3.7-3.6,7.5-5.3,11.3c-0.6,1.3-1.1,1.9-2,1.9c-0.6-0.1-1.3-0.3-1.8-0.6c-0.9-0.6-1.8-1.2-2.6-1.9
		c-1.3-1-1.8-2.8-1.3-4.4c0.9-3.5,1.8-6.9,2.7-10.4c0.1-0.5,0.2-1,0.3-1.5c-1.9,0.8-3.8,1.5-5.7,2c-1.2,0.1-2.2,1.1-2.2,2.3
		c-1.1,6.4-4.8,12.1-10.2,15.8c-2.2,1.5-4.8,2.4-7.5,2.3c-1,0-2-0.1-3-0.3c-3.2-0.6-5.3-3-6.8-5.8c-0.6-1.1-1.1-2.4-1.7-3.8
		c-0.8,0.6-1.5,1.2-2.2,1.8c-3.1,2.7-6.1,5.5-9.2,8.1c-2.6,2.2-5.4,3.6-8.4,3.6c-1.5,0-3-0.3-4.3-0.9c-1.4-0.7-2.8-1.7-3.9-2.9
		c-0.8-0.8-0.9-2-0.3-2.9c0.9-1.6,1.7-3.3,2.7-4.9c0.5-0.8,1-1.2,1.6-1.2s1.2,0.5,1.7,1.4c0.8,1.5,1.7,2.2,2.8,2.2
		c0.3,0,0.6,0,0.9-0.1c1.6-0.4,2.7-2.1,2.4-3.7c-0.1-1.3-0.4-2.6-0.9-3.9c-0.9-2.3-1.9-4.5-2.9-6.7c-0.5-1.1-0.9-1.6-1.3-1.6
		s-0.9,0.5-1.5,1.4c-3.1,4.3-6.2,8.7-9.5,12.9s-6.7,8.3-11,11.4c-2.5,2-5.6,3.2-8.8,3.3c-1.3,0-2.6-0.2-3.9-0.7
		c-4.2-1.4-6.4-4.8-7.8-8.7c-0.6-2-1.1-4.1-1.6-6.1c-1.8,0.4-3.8,0.8-5.7,1.2c-0.3,0.1-0.6,0.6-0.6,1c-1.3,6-4.6,11.3-9.5,15
		c-2.4,2-5.5,3.2-8.6,3.2c-5.8,0-10.9-4.2-12.2-11.2c-1-5.7,0.3-11,2.5-16.2c2-4.6,4.6-8.7,9.1-11.3c2.2-1.4,4.8-2.1,7.4-2.1
		c1.1,0,2.2,0.1,3.3,0.4c3.5,0.8,5.4,3.7,4.6,6.8c1.9,1.2,3.3,3.1,3.8,5.3c0.2,0.6,0.5,1,1,1c0.1,0,0.2,0,0.4,0
		c0.6-0.1,1.1-0.2,1.7-0.2c3-0.5,3.1-0.6,3.7-3.5c2.8-13.4,9-25.9,17.9-36.2c2.9-3.3,6.1-6.2,10.2-7.8c0.8-0.3,1.7-0.6,2.6-0.7
		c0.4,0,0.8-0.1,1.2-0.1 M251.1,156c0.2-0.1,0.4-0.1,0.6-0.2c0.3-0.3,0.7-0.5,1-0.8c5.4-5.3,10-11.4,13.7-18
		c0.9-1.7,1.5-3.6,1.8-5.5c0.2-1.3-0.2-2.1-1.1-2.1c-0.5,0-0.9,0.2-1.3,0.4c-1.7,1-3.2,2.3-4.5,3.9c-4.5,5.5-7.3,11.9-9.3,18.7
		C251.6,153.5,251.4,154.7,251.1,156 M218.2,179.7c1.4,0,2.7-0.5,3.8-1.3c3-2.1,4.6-5.2,5.6-8.7c0.1-0.4-0.4-1.2-0.8-1.6
		c-0.6-0.6-1.4-1-2.1-1.5c-1.2-1.1-2.1-2.5-1.6-4.2c0.4-1.4,1-2.6,1.5-4c-0.6-0.3-1.3-0.5-2-0.5c-1.4,0-2.8,0.7-3.7,1.7
		c-3.9,3.9-5.8,9.3-5.4,14.8C213.7,177.8,215.7,179.7,218.2,179.7 M273.8,109.6c-0.6,0-1.1,0-1.7,0.1c-1.3,0.2-2.6,0.5-3.9,1
		c-5.6,2.2-9.5,6.1-12.2,9.2c-8.9,10.4-15.2,22.8-18.4,36.1c-0.3-0.5-0.7-0.9-1.1-1.3c-0.1-1.6-0.6-3.1-1.4-4.4
		c-1.6-2.6-4.2-4.4-7.2-5.1c-4.9-1.2-10.1-0.4-14.3,2.3c-4.8,2.9-8.4,7.2-11.1,13.6c-3,7-3.9,13.1-2.9,19c1.6,9,8.7,15.3,17.1,15.3
		c4.3-0.1,8.5-1.6,11.8-4.3c4.3-3.3,7.6-7.7,9.7-12.7c2.3,5.9,5.8,9.6,10.7,11.3c1.8,0.6,3.6,0.9,5.5,0.9c4.3-0.1,8.4-1.6,11.8-4.3
		c2.7-2,5.1-4.3,7.3-6.8c0.4,0.8,0.9,1.6,1.5,2.2c1.5,1.6,3.4,3,5.4,3.9s4.1,1.3,6.3,1.3c4,0,7.9-1.6,11.7-4.8
		c2.1-1.8,4.1-3.6,6.1-5.4c0.1-0.1,0.3-0.2,0.4-0.4c2.4,3.7,5.5,5.9,9.2,6.6c1.3,0.2,2.6,0.3,3.9,0.4c3.7,0,7.3-1.1,10.4-3.2
		c3.1-2.1,5.7-4.8,7.8-7.8c0.6,1.5,1.5,2.8,2.7,3.8c1,0.9,2.1,1.7,3.3,2.4c1.3,0.8,2.8,1.3,4.3,1.3c2,0,4.7-0.8,6.5-4.8
		c0.4-0.9,0.9-1.9,1.3-2.8c1.3-2.9,2.5-5.6,3.9-8.2c0.1-0.2,0.2-0.3,0.2-0.5c0.7,4.6,3,8.5,7.1,12c1.3,1.2,3,1.9,4.8,1.9
		c1.9,0,3.8-0.8,5.1-2.2l1.2-1.2c1.7-1.8,3.5-3.6,5.1-5.5c1.3-1.5,2.3-3.2,3-5c0.7-1.7,1.8-6.1-3.3-9.9c-0.8-0.6-1.8-1.1-2.8-1.3
		c0.9-2.3,1.8-4.6,2.8-6.7c2.9-6.1,3.1-10.6-4.5-15.4c-1.9-1.3-4.1-2-6.3-2c-2.5,0-5,1-6.9,2.6c-2.1,1.8-4.1,3.6-6,5.6
		c-0.5-0.4-1-0.9-1.6-1.2c-0.4-0.3-0.9-0.6-1.5-0.9c-1.3-0.8-2.8-1.2-4.4-1.3c-3.7,0-5.7,2.9-6.6,4.1c-1.7,2.5-3.5,5-5.6,7.2
		c-0.2,0.2-0.3,0.3-0.5,0.5c-0.4-0.1-0.7-0.3-1-0.6c-0.7-0.5-1.5-1-2.3-1.4c0-0.3,0-0.6,0-0.8c-0.4-3.9-3.2-7-7-7.9
		c-1.1-0.3-2.3-0.4-3.5-0.4c-3.3,0.1-6.4,1.1-9.2,2.9c-6.1,3.7-10.3,9.4-12.7,17.4c-0.1,0.4-0.2,0.9-0.4,1.3c-0.1,0.5-0.3,1-0.5,1.6
		c-0.2,0.2-0.3,0.5-0.5,0.7c-0.5-1-0.9-1.9-1.4-2.8c-0.4-0.8-0.8-1.5-1.1-2.2s-0.8-1.4-1.1-2.2c-0.8-1.5-0.8-2-0.8-2.1l0,0
		c0,0,0-0.1,0.1-0.1c0.4-0.7,0.6-1.4,0.7-2.2c0.8-3.6-1.4-7.1-4.9-8c-1.1-0.3-2.2-0.5-3.3-0.5c-2.3,0-4.6,0.8-6.3,2.4
		c-1.3,1.3-2.6,2.7-3.6,4.2c-1.1,1.5-2.1,3-3.2,4.5c-4,5.6-7.7,10.9-12.2,15.6c-2.4,2.4-4.4,4.4-6.8,5.2c-0.1-0.3-0.2-0.6-0.2-0.9
		l0.8-0.6c1.1-0.9,2.2-1.8,3.3-2.8c5.4-5.5,10.2-11.5,14.5-18c3.5-4.9,6.1-10.2,8-15.9c1.3-3.9,1.8-8,1.2-12.1
		c-1.4-8.4-7.6-9.3-10.2-9.3L273.8,109.6z M320.3,163.1c-0.1-0.5-0.2-1-0.2-1.5c0-1.5,0.1-3.1,0.6-4.6c0.1,0.2,0.2,0.4,0.3,0.5
		c0.6,0.9,1.3,1.7,2.2,2.4c-0.6,1-1.3,2-2.2,2.7C320.7,162.9,320.5,163,320.3,163.1z M218.5,174.6c0-0.2-0.1-0.3-0.1-0.5
		c-0.2-2.1,0.1-4.2,0.9-6.1c0.6,0.9,1.2,1.6,2,2.3c0.2,0.2,0.4,0.3,0.5,0.4c-0.6,1.4-1.5,2.6-2.8,3.5
		C218.9,174.4,218.7,174.5,218.5,174.6L218.5,174.6z"/>
	<path class="st1" d="M182.4,224.9c-1.9,0-3.3-1.4-4.1-4.1c-0.9-3.1-1.5-6.3-1.8-9.5c-0.8-8.7,1.5-16.9,3.7-24.8l0.1-0.2
		c2.8-10,6.3-19.9,9.8-29.1l-1.6,2.6l-1.5,2.5l-1.8,2.9c-5.5,8.8-11.2,17.9-15.9,27.3c-0.6,1.1-1.3,2.1-2.1,3
		c-1.3,1.8-3.3,2.8-5.5,2.9c-1,0-2-0.2-2.9-0.6c-1.5-0.6-2.9-1.4-4.3-2.3c-3.4-2.4-4.4-5.3-2.9-9.2c1-2.7,2-5.4,3-8
		c0.7-1.7,1.3-3.4,2-5.1c3.8-10,6.8-18,9.5-25.5c-0.6,0.8-1.2,1.6-1.8,2.4c-11.2,15.3-21.5,31.3-30.9,47.8l-0.1,0.2
		c-1.6,2.9-4.2,4.5-7,4.5s-5.3-1.6-7.1-4.5c-1.1-1.8-1.2-4-0.3-5.9c0.8-1.7,1.6-3.4,2.4-4.8c6.1-11.4,11.5-21.7,15.4-32.8
		c1.7-4.8,3-9.7,3.8-14.7c-7.7,6.2-16,11.7-24.7,16.4c-1.8,0.9-3.7,1.8-5.6,2.5l-0.6,0.2c-1.1,0.5-2.2,0.7-3.3,0.8
		c-1.5,0-2.9-0.6-4-1.7c-2.1-2-2.8-5-2-7.8c0.4-1.6,1.3-3.1,2.4-4.3c2.3-2.1,4.7-4,7-6l2.2-1.8c0.4-0.3,0.7-0.5,1.2-0.7l0.4-0.2
		l4.2-2.1l-0.7,5l0.1-0.1c8.9-5.9,17.1-12.8,24.3-20.7c2.2-3,6.4-3.7,9.4-1.5c0.6,0.4,1.1,0.9,1.5,1.5c2.4,2.7,3.6,6.3,3.2,9.9
		c-0.2,3.6-0.7,7.2-1.4,10.7c4.4-5.9,9-11.9,13.6-17.8c1.1-1.3,2.3-2.5,3.6-3.6l1-0.8c1.1-1,2.5-1.6,4-1.6c0.9,0,1.8,0.2,2.6,0.5
		c5.8,1.9,8.4,6.8,6.8,12.5c-1.6,5.5-3.3,11-4.9,16.3c3.9-5.9,7.8-11.4,11.8-16.4c3.8-5,8.1-9.6,12.7-13.9c1.2-1,3.1-2.8,5.9-2.8
		c0.2,0,0.4,0,0.5,0c0.6,0,1.3,0.2,1.9,0.4c2.7,1.2,4.8,3.4,5.9,6.1c1.1,2.6,1.2,5.6,0.1,8.2c-1.1,2.7-2.3,5.3-3.5,7.9
		c-1.1,2.4-2.2,4.8-3.2,7.2c-6,14.1-10.8,26-14.5,38.5c-1,3.4-1.7,7-2.4,10.5c-0.2,1-0.4,2-0.6,3.1c0.3-0.1,0.6-0.1,0.9-0.1
		c1.1,0,2.2,0.5,2.9,1.4c1.7,1.7,2.3,4.2,1.6,6.5c-0.3,0.7-0.6,1.4-1.1,2l-0.8,1.2c-4,5.6-8,11.1-12.1,16.7
		C185.7,223.4,184.4,224.9,182.4,224.9z"/>
	<path class="st5" d="M211.2,115h0.3c0.4,0,0.8,0.1,1.1,0.2c4.1,1.7,6.4,7,4.7,11.1c-2.2,5.1-4.5,10-6.7,15.1
		c-5.4,12.7-10.7,25.5-14.6,38.8c-1.3,4.5-2.1,9.2-3.1,13.8c-0.1,0.9-0.1,1.8,0.2,2.7c0.1,0.5,0.5,0.9,1,0.9c0.2,0,0.4-0.1,0.6-0.2
		c0.5-0.3,1-0.5,1.5-0.5c0.4,0,0.8,0.2,1,0.5c1.1,1,1.5,2.6,1.1,4.1c-0.2,0.5-0.4,0.9-0.8,1.4c-4.3,5.9-8.6,11.9-12.9,17.8
		c-0.9,1.2-1.6,1.8-2.2,1.8s-1.3-0.8-1.7-2.3c-0.9-2.9-1.4-6-1.7-9c-0.8-8.3,1.5-16.2,3.7-24.1c4.1-14.4,9.4-28.4,14.9-42.3
		c0.2-0.6,0.4-1.2,0.5-1.8l-0.4-0.2c-0.5,0.5-1,1-1.4,1.5c-4.5,5.2-8,11.1-11.6,16.8c-6.2,10-12.6,19.9-17.9,30.4
		c-0.5,0.9-1.1,1.8-1.8,2.6c-0.8,1.2-2.2,1.9-3.6,1.9c-0.7,0-1.4-0.1-2-0.4c-1.3-0.5-2.6-1.2-3.7-2c-2.5-1.8-3.1-3.4-2-6.3
		c1.6-4.4,3.3-8.7,5-13.1c3.6-9.7,7.3-19.4,10.9-29.1c0.5-1.3,0.8-2.7,1.1-4.1c0-0.6,0-1.2-0.1-1.8c-0.6,0.3-1.1,0.6-1.6,1
		c-2.4,2.9-4.8,5.6-6.9,8.6c-11.2,15.4-21.6,31.5-31.1,48.1l-0.1,0.1c-1.2,2.2-3,3.3-4.8,3.3s-3.6-1.1-4.9-3.3
		c-0.7-1.1-0.7-2.5-0.2-3.6c0.7-1.6,1.5-3.1,2.3-4.6c5.8-10.8,11.5-21.6,15.6-33.1c2.3-6.3,3.8-12.8,4.5-19.4c0.1-0.5,0-1.1,0-1.8
		c-9,7.6-18.7,14.3-29,19.9c-1.9,1-3.9,1.9-5.9,2.6c-0.8,0.3-1.6,0.5-2.4,0.6c-0.8,0-1.6-0.3-2.2-0.9c-1.4-1.4-1.9-3.4-1.3-5.3
		c0.3-1.2,0.9-2.3,1.7-3.1c3-2.7,6.1-5.2,9.2-7.7c0.4-0.2,0.7-0.4,1.1-0.6c-0.2,1.2-0.3,2.2-0.4,3.2s0,1.3,0.5,1.3
		c0.3,0,0.6-0.1,0.9-0.2c1-0.4,2.1-1,3-1.6c9.1-6,17.4-13.1,24.7-21.1c1.3-2,3.9-2.6,5.9-1.3c0.5,0.3,1,0.8,1.3,1.3
		c2,2.2,2.9,5.1,2.6,8c-0.4,6.8-2,13.4-3.5,19.9c-0.1,0.5-0.1,1,0,1.4c1.5-2.1,2.9-4.2,4.4-6.2c5.2-6.9,10.4-13.8,15.8-20.6
		c1.3-1.5,2.7-2.9,4.3-4.2c0.6-0.6,1.5-0.9,2.4-0.9c0.6,0,1.2,0.1,1.8,0.3c4.4,1.5,6.4,5,5.2,9.4c-2.3,7.9-4.8,15.8-7.2,23.7
		c-0.8,2.6-1.6,5.2-2.3,7.8c-0.1,0.4-0.2,0.7-0.2,1.1l0.3,0.2c0.4-0.7,0.9-1.4,1.4-2.1c5.8-9.9,12.3-19.5,19.3-28.6
		c3.7-4.9,7.9-9.4,12.4-13.6c1.2-1.1,2.5-2.1,4.2-2.1 M114.6,139.6L114.6,139.6 M211.2,110c-3.8,0-6.2,2.2-7.6,3.4
		c-4.7,4.4-9.1,9.1-13,14.2c-1,1.3-2,2.5-3,3.8c0.1-0.5,0.3-1,0.4-1.5c2-6.9-1.4-13.2-8.4-15.6c-1.1-0.4-2.2-0.6-3.4-0.6
		c-2.1,0-4.2,0.8-5.7,2.2l-0.9,0.8c-1.4,1.2-2.7,2.5-3.9,4c-2.6,3.4-5.2,6.8-7.8,10.1c0-0.5,0.1-0.9,0.1-1.4c0.4-4.3-1-8.5-3.9-11.7
		c-3.1-4-8.9-4.7-12.9-1.6c-0.6,0.5-1.2,1.1-1.7,1.7c-5.8,6.3-12.3,12-19.2,17.1l0.5-4l-8.4,4.1l-0.3,0.2c-0.6,0.2-1.2,0.6-1.8,1
		l-2.2,1.8c-2.4,1.9-4.8,3.9-7.1,6c-1.5,1.5-2.6,3.4-3.2,5.5c-1.1,3.6-0.1,7.6,2.6,10.2c1.5,1.5,3.6,2.4,5.8,2.4
		c1.5,0,2.9-0.3,4.3-0.9l0.6-0.2c2-0.8,4-1.6,5.9-2.6c6.9-3.7,13.5-7.9,19.8-12.6c-0.7,2.6-1.5,5.2-2.4,7.8
		c-3.9,10.9-9.2,21.1-15.3,32.4c-0.8,1.5-1.7,3.2-2.5,5c-1.2,2.6-1,5.7,0.5,8.2c2.2,3.6,5.6,5.7,9.2,5.7c3.6,0,7-2.1,9.1-5.8
		c0.1-0.1,0.1-0.2,0.2-0.4c6.2-11,13.1-22.1,21.4-34.3c-0.9,2.4-1.9,4.9-2.8,7.6c-0.6,1.7-1.3,3.4-2,5.1c-1,2.6-2.1,5.3-3,8.1
		c-1.8,5-0.5,9,3.9,12.1c1.5,1.1,3.1,1.9,4.8,2.6c1.2,0.5,2.5,0.7,3.8,0.8c2.9,0,5.7-1.4,7.5-3.8c0.9-1.1,1.7-2.3,2.4-3.5
		c2.7-5.4,5.7-10.7,8.9-15.9c-0.8,2.6-1.6,5.3-2.4,7.9l-0.1,0.2c-2.3,8.1-4.7,16.6-3.8,25.7c0.3,3.4,0.9,6.7,1.9,10
		c1.6,5.1,4.8,5.9,6.5,5.9c3.4,0,5.6-2.9,6.3-3.9c4.1-5.6,8.2-11.2,12.2-16.7l0.8-1.1c0.6-0.8,1.1-1.7,1.4-2.7c1.1-3.1,0.3-6.6-2-9
		c-0.7-0.8-1.6-1.5-2.7-1.9l0.1-0.3c0.7-3.6,1.4-7,2.4-10.3c3.6-12.4,8.4-24.2,14.4-38.2c1-2.4,2.1-4.8,3.2-7.2
		c1.2-2.6,2.4-5.2,3.5-7.9c1.3-3.3,1.3-6.9-0.1-10.2c-1.3-3.4-4-6.1-7.3-7.5c-0.8-0.3-1.7-0.6-2.6-0.6c-0.2,0-0.5,0-0.7,0L211.2,110
		z"/>
</g>
</svg>
