<?xml version="1.0" encoding="utf-8"?>
<!-- Generator: Adobe Illustrator 26.0.3, SVG Export Plug-In . SVG Version: 6.00 Build 0)  -->
<svg version="1.1" id="Label" xmlns="http://www.w3.org/2000/svg" xmlns:xlink="http://www.w3.org/1999/xlink" x="0px" y="0px"
	 viewBox="0 0 480 395" style="enable-background:new 0 0 480 395;" xml:space="preserve">
<style type="text/css">
	.st0{fill:#E62942;}
	.st1{fill:#FFFFFF;}
	.st2{fill:#DBC288;}
	.st3{fill:#1E97D5;}
	.st4{fill:#CA9E67;}
</style>
<g id="Pale_Ale">
	<rect id="red" x="1" class="st0" width="480" height="395"/>
	<path id="Pale_Ale_00000091008640118267909290000017027992298849130891_" class="st1" d="M141.1,376.2V331h9.3
		c1.9,0,15.4-1.2,15.4,13.4c0,8.5-5.5,13.3-13.7,13.3l-2-0.1v18.7L141.1,376.2L141.1,376.2z M150.1,350.3c4.3,0.2,6.8-1.4,6.8-6.1
		c0-3.2-1.3-5.9-5.1-5.9h-1.7V350.3z M186.9,331l10.9,45.2h-9.5l-1.7-7.6h-9.1l-1.6,7.6H167l10.5-45.2H186.9z M182.9,349.4l-1-6.8
		h-0.1l-1,6.8l-1.9,12.1h6.3L182.9,349.4z M212.1,331v36.8h9.4v8.4h-18.3V331H212.1z M245.3,331v8.4h-9.1v9.8h8v8.4h-8v10.2h9.2v8.4
		h-18.1V331H245.3z M285.3,331l10.9,45.2h-9.5l-1.7-7.6h-9.1l-1.6,7.6h-8.9l10.5-45.2H285.3z M281.3,349.4l-1-6.8h-0.1l-1,6.8
		l-1.9,12.1h6.3L281.3,349.4z M310.5,331v36.8h9.4v8.4h-18.3V331H310.5z M343.7,331v8.4h-9.1v9.8h8v8.4h-8v10.2h9.2v8.4h-18.1V331
		H343.7z"/>
	<path id="raios" class="st2" d="M282.5,57.2l-14.3-29.8L242.6,49C256.3,49.5,269.7,52.3,282.5,57.2z M233.4,49l-25.5-21.6
		l-14.3,29.8C206.3,52.3,219.7,49.5,233.4,49z M184.7,61l-31.9-9.4L152,84.1C161.6,74.7,172.6,66.9,184.7,61z M116.3,169.1
		c0-11.1,1.6-22.2,4.7-32.9l-27.2,16.4l22.6,21.2C116.4,172.2,116.3,170.7,116.3,169.1z M382.2,152.6L355,136.2
		c3.1,10.7,4.6,21.8,4.6,32.9c0,1.5,0,3.1-0.1,4.6L382.2,152.6z M351.2,125.1l12.3-29.2L331,91.7C339.6,101.7,346.4,113,351.2,125.1
		z M324,84.1l-0.8-32.5L291.3,61C303.4,66.9,314.4,74.7,324,84.1z M144.9,91.7l-32.5,4.2l12.3,29.2
		C129.6,113,136.4,101.7,144.9,91.7z M117.7,186.7l-17.5,25.1l28.5,9.9C123.1,210.7,119.5,198.9,117.7,186.7z M347.4,221.8l28.5-9.9
		l-17.5-25.1C356.5,198.9,352.9,210.7,347.4,221.8z M271.5,284.8l25.5,13.7l6.8-28.2C293.8,276.7,282.9,281.5,271.5,284.8z
		 M316.3,261.1l29.4,2.3l-5.5-29.1C333.6,244.4,325.6,253.4,316.3,261.1z M135.8,234.3l-5.5,29.1l29.4-2.3
		C150.4,253.4,142.4,244.4,135.8,234.3z M172.2,270.3l6.8,28.2l25.5-13.7C193.1,281.5,182.2,276.7,172.2,270.3z M238,289.4
		c-5.9,0-11.8-0.4-17.6-1.3l17.6,22.8l17.6-22.8C249.8,288.9,243.9,289.4,238,289.4z"/>
	<path id="circle" class="st2" d="M238,283.7c-63.3,0-114.6-51.3-114.6-114.6S174.7,54.5,238,54.5s114.6,51.3,114.6,114.6l0,0
		C352.5,232.4,301.3,283.7,238,283.7z M238,58.3c-61.2,0-110.8,49.6-110.8,110.8S176.8,279.9,238,279.9s110.8-49.6,110.8-110.8
		C348.7,108,299.2,58.4,238,58.3z"/>
	<path id="molsonblue" class="st3" d="M210.8,193c-7.5,0-13.5-5.7-14.7-13.8c-0.8-5.5,0.2-11.1,3.3-17.5c2.7-5.8,6.1-9.7,10.5-12.1
		c2.5-1.4,5.3-2.1,8.2-2.2c1.5,0,3,0.2,4.4,0.6c2.3,0.6,4.3,2.1,5.5,4.1c0.7,1.3,1,2.8,0.9,4.2c1.4,1.4,2.4,3,3,4.9l0.6-0.1
		c0.4-0.1,1-0.1,1.4-0.2c0.1-0.3,0.3-0.9,0.4-1.3c3.4-13.7,10.2-26.3,19.7-36.7c2.6-2.9,6.3-6.4,11.5-8.2c1.1-0.4,2.2-0.6,3.3-0.7
		c0.4,0,0.7,0,1,0c3.2,0,7.1,1.3,7.9,7.5c0.3,3.7-0.2,7.5-1.5,10.9c-2,5.4-4.7,10.4-8.2,15c-4.3,6.2-9.3,11.9-14.7,17.2
		c-1,0.9-2.1,1.7-3.1,2.5c-0.7,0.5-1.3,1-1.9,1.4l0,0c0,1.1,0.2,2.2,0.6,3.2c0.2,0.8,1,1.4,1.9,1.4c0.3,0,0.6,0,0.9-0.1
		c3.1-0.9,5.5-3,8.1-5.6c4.8-4.7,9-10.2,13-15.5c1.1-1.4,2.2-2.9,3.3-4.3c1-1.3,2.2-2.6,3.4-3.7c1.2-1.1,2.8-1.6,4.4-1.6
		c1,0,2,0.2,2.9,0.5c2.2,0.6,3.6,2.8,3,5.1c0,0.1,0,0.1-0.1,0.2c-0.1,0.5-0.2,0.9-0.5,1.3c-0.7,1.1-0.6,2.2,0.5,4.6
		c0.3,0.8,0.7,1.5,1.1,2.3s0.7,1.5,1,2.2c0.9,1.9,1.7,3.8,2.6,5.8v0.1c1.3-0.9,2.5-2,3.5-3.3c0.4-0.7,0.7-1.5,0.9-2.3
		c0.1-0.4,0.2-0.8,0.4-1.2c2.4-7.3,6.4-12.4,12.1-15.6c2.3-1.4,4.9-2.2,7.6-2.3c1.1,0,2.2,0.2,3.2,0.5c2.8,0.7,4.8,3.1,5,5.9
		c0.1,0.7,0,1.5-0.3,2.2l0.4,0.1c1.1,0.4,2.2,1.1,3.1,1.8c0.7,0.6,1.6,1,2.6,1.1c0.9-0.1,1.7-0.5,2.3-1.2c2.2-2.3,4.2-4.7,6-7.3
		c0.8-1.1,2.1-2.9,4.5-2.9c1.2,0.1,2.3,0.4,3.3,1.1c0.4,0.2,0.9,0.5,1.3,0.8c1.2,0.7,2.1,1.8,2.7,3l0.7-0.7c2.3-2.3,4.7-4.5,7.3-6.6
		c1.4-1.2,3.2-1.8,5.1-1.9c1.9,0,3.7,0.7,5.2,1.8c6,4,5.8,7.1,3.2,12.3c-1.5,2.9-2.8,6.1-4,9.1l-0.6,1.4c0.6-0.3,1.3-0.5,2-0.5
		c1.1,0,2.1,0.4,2.9,1.1c3.5,2.8,2.9,5.6,2.2,7c-0.7,1.6-1.6,3-2.7,4.3c-1.7,1.8-3.5,3.6-5.2,5.2l-1.2,1.2c-0.8,0.9-2,1.4-3.2,1.4
		s-2.4-0.5-3.3-1.4c-3.6-3.3-5.5-6.9-5.9-11c-0.2-3.2,0.4-6.4,1.5-9.4c-2.5,2.8-4.7,5.9-6.5,9.2c-1.5,2.7-2.9,5.5-4.2,8.2
		c-0.5,0.9-0.9,1.9-1.4,2.8c-0.4,0.8-1.6,3.2-4.2,3.2c-1.1-0.1-2.2-0.4-3.2-1.1c-1-0.7-2-1.4-2.9-2.3c-2-1.7-2.7-4.5-1.9-6.9
		c0.5-1.5,1.9-6.4,2.1-7.3c-0.6,0.2-1.2,0.3-1.8,0.4l-0.2,0.1c0,0.1,0,0.2-0.1,0.3c-1.6,7-5.9,13-11.9,16.8
		c-2.5,1.6-5.4,2.5-8.4,2.5c-1.3,0-2.7-0.2-4-0.4c-3.6-0.8-6.3-3.2-8.3-7.4c-0.1-0.3-0.3-0.6-0.4-0.9l-2.8,2.4
		c-2,1.7-4.1,3.4-6.2,5.1c-2.7,2.4-6.2,3.7-9.8,3.8c-2,0-3.9-0.5-5.7-1.3c-1.7-0.9-3.2-2.1-4.5-3.6c-1.5-1.6-1.7-4.1-0.5-5.9
		c0.3-0.5,0.5-0.9,0.8-1.4c0.7-1.2,1.4-2.4,2.2-3.6c0.8-1.3,2.1-2.1,3.6-2.2c0.9,0,2.7,0.4,3.9,2.8c0.1,0.3,0.3,0.6,0.6,0.9l0.3-0.1
		c0.5-0.1,0.5-0.7,0.5-1.1c-0.1-1.1-0.3-2.2-0.6-3.3c-0.6-1.7-1.3-3.4-2-5.2l-1,1.3c-2.6,3.4-5.3,6.9-8.1,10.2
		c-3.4,4.4-7.4,8.2-11.9,11.5c-2.9,2.2-6.3,3.4-9.9,3.5c-1.8,0-3.5-0.4-5.1-1c-4.3-1.6-7.2-5-9-10.5c-0.4-1.3-0.8-2.7-1-4.1
		l-2.2,0.4c-1.7,6.2-5.5,11.6-10.7,15.4C217.8,191.7,214.4,192.9,210.8,193z M215.4,161.6c-3.5,3.3-5.4,8-5.2,12.8
		c0,0.9,0.3,3,2.2,3l0,0c0.8,0,1.6-0.3,2.3-0.8c2-1.3,3.4-3.3,4.6-6.4l-0.6-0.4c-0.5-0.3-0.9-0.6-1.3-1c-2.2-2.1-2.9-4.4-2.1-6.9
		C215.4,161.8,215.4,161.7,215.4,161.6L215.4,161.6z M318.6,152c-1.7,0.9-3.1,2.3-3.9,4c-1.5,2.8-2.4,6-2.5,9.2c0,1,0.2,2,0.5,3
		c0.2,0.7,0.9,1.2,1.7,1.1c0.2,0,0.4,0,0.6-0.1c0.7-0.2,1.4-0.6,2-1c1.7-1.4,3.1-3.2,4-5.3c-1.3-0.8-2.3-1.9-3.2-3.1
		c-0.9-1.5-1.1-3.3-0.6-5C317.6,153.8,318,152.8,318.6,152L318.6,152z M260.7,135c-0.7,0.5-1.4,1.2-2,1.8c-3,3.5-5.4,7.4-7.2,11.6
		c3.1-3.4,5.8-7.1,8.1-11.1C260,136.6,260.4,135.8,260.7,135z M175.1,223.7c-2,0-3.4-1.4-4.1-4.2c-0.8-3.1-1.3-6.3-1.5-9.6
		c-0.6-8.7,2-16.9,4.5-24.7l0.1-0.2c3.2-9.9,7-19.7,10.7-28.7c-0.6,0.9-2.8,4.2-3.3,5l-1.9,2.8c-5.8,8.6-11.8,17.5-16.8,26.7
		c-0.6,1.1-1.3,2.1-2.2,3c-1.3,1.7-3.3,2.6-5.4,2.7c-1.1,0-2.1-0.2-3.1-0.7c-1.5-0.7-2.9-1.5-4.2-2.5c-3.4-2.5-4.2-5.4-2.6-9.3
		c1.1-2.7,2.2-5.3,3.3-7.9c0.7-1.7,1.4-3.4,2.1-5.1c4-9.7,7.4-17.8,10.4-25.1c-0.6,0.8-1.3,1.5-1.9,2.3
		c-11.7,14.9-22.5,30.5-32.5,46.7c0,0.1-0.1,0.1-0.1,0.2c-1.7,2.7-4.2,4.3-6.9,4.3c-2.9,0-5.5-1.7-7.2-4.8c-1-1.8-1.1-4-0.1-5.9
		c0.8-1.7,1.8-3.3,2.6-4.8c6.5-11.2,12.2-21.3,16.5-32.2c1.9-4.7,3.3-9.6,4.3-14.5c-8,5.9-16.4,11.1-25.3,15.6
		c-1.9,0.9-3.8,1.7-5.7,2.3l-0.6,0.2c-1,0.4-2.1,0.6-3.2,0.6c-1.6,0-3.1-0.6-4.2-1.8c-2-2.1-2.6-5.1-1.7-7.8
		c0.5-1.6,1.4-3.1,2.6-4.2c2.4-2,4.8-3.9,7.2-5.7l2.2-1.7c0.4-0.3,0.8-0.5,1.2-0.6l0.4-0.2l4.3-1.9l-0.8,5l0.1-0.1
		c9.1-5.6,17.5-12.3,25-19.9c1.4-1.6,3.3-2.5,5.4-2.6c2.2,0.1,4.2,1.2,5.5,2.9c2.4,2.8,3.4,6.4,2.9,10c-0.4,3.6-1,7.1-1.8,10.6
		c4.6-5.7,9.4-11.6,14.2-17.3c1.1-1.3,2.4-2.5,3.7-3.5l1-0.8c1.1-0.9,2.5-1.4,3.9-1.4c1,0,1.9,0.2,2.8,0.6c5.7,2.1,8.2,7.1,6.4,12.7
		c-1.8,5.4-3.6,10.9-5.5,16.1c4.1-5.8,8.2-11.1,12.4-16c4-4.8,8.4-9.3,13.1-13.4c1.5-1.5,3.6-2.5,5.8-2.6c0.3,0,0.5,0,0.8,0
		c0.6,0.1,1.3,0.2,1.9,0.5c2.7,1.3,4.7,3.6,5.7,6.3c1,2.7,1,5.6-0.2,8.2c-1.2,2.6-2.5,5.2-3.8,7.8c-1.1,2.3-2.3,4.7-3.4,7.1
		c-6.5,13.9-11.7,25.6-15.8,38c-1.1,3.4-2,7-2.8,10.4c-0.2,1-0.5,2-0.7,3c0.2,0,0.5-0.1,0.7-0.1c1.2,0,2.3,0.6,3,1.5
		c1.7,1.8,2.2,4.3,1.3,6.6c-0.3,0.7-0.7,1.4-1.2,2l-0.9,1.1c-4.2,5.4-8.4,10.9-12.7,16.3C178.4,222.3,177,223.7,175.1,223.7
		L175.1,223.7z"/>
	<path id="molsonwhite" class="st1" d="M269.8,116.6c3.4,0,5,1.7,5.4,5.3c0.3,3.3-0.2,6.7-1.4,9.8c-1.9,5.1-4.5,10-7.8,14.3
		c-4.2,6.1-9.1,11.7-14.4,16.8c-1.5,1.4-3.3,2.5-4.9,3.8c-0.5,0.4-1,1-1,1.5c0,1.5,0.3,3.1,0.8,4.6c0.6,1.8,2.3,3,4.2,3
		c0.5,0,1.1-0.1,1.6-0.2c3.7-1,6.5-3.6,9.2-6.2c6.3-6.1,11.2-13.2,16.5-20.1c0.9-1.2,1.9-2.3,3.1-3.3c0.8-0.7,1.8-1,2.8-1
		c0.7,0,1.5,0.1,2.2,0.4c0.9,0.2,1.5,1.1,1.3,2c0,0.1-0.1,0.2-0.1,0.3c0,0.2-0.1,0.3-0.1,0.5c-1.5,2.4-0.7,4.7,0.3,7
		c0.7,1.5,1.4,3,2.1,4.5c1.3,2.8,2.5,5.5,3.8,8.4c2.6-1.3,4.9-3.1,6.6-5.4c0.7-1.3,1.3-2.7,1.6-4.2c2-6,5.3-11,11-14.2
		c1.9-1.2,4.1-1.9,6.3-2c0.8,0,1.7,0.1,2.5,0.4c1.7,0.4,3,1.9,3.2,3.7c0.2,0.9-0.4,1.9-1.3,2.1c-0.1,0-0.2,0-0.3,0
		c-0.8,0.1-1.6,0.1-2.4,0.2c-3.5,0.7-6.5,2.9-8.1,6.2c-1.7,3.2-2.7,6.7-2.7,10.3c0,1.3,0.2,2.7,0.7,3.9c0.6,1.7,2.2,2.8,4,2.8
		c0.5,0,0.9-0.1,1.3-0.2c1-0.3,2-0.8,2.9-1.4c2.2-1.8,3.9-4.2,5-6.9c0.4-1,0.1-1.6-0.8-2.2c-1.1-0.7-2.1-1.5-2.8-2.6
		c-0.5-0.9-0.6-1.9-0.4-2.9c0.5-1.4,1.2-2.7,2.1-3.8c0.6-0.9,1.5-1.4,2.6-1.4c0.7,0,1.4,0.2,2,0.4c0.9,0.4,1.7,0.8,2.5,1.4
		c1.1,1,2.6,1.6,4.1,1.7c1.6-0.1,3-0.8,4.1-1.9c2.3-2.4,4.4-4.9,6.3-7.6c0.9-1.2,1.6-1.9,2.4-1.9c0.7,0.1,1.4,0.3,2,0.7
		c0.4,0.2,0.7,0.5,1.1,0.7c2,1.4,2.5,2.8,1.9,5.2c-0.3,1.1-0.6,2.2-1.1,3.7c2-2.4,3.8-4.8,5.7-6.8c2.2-2.3,4.6-4.4,7.1-6.3
		c1-0.8,2.2-1.3,3.5-1.3c1.4,0.1,2.7,0.5,3.8,1.3c4.6,3.1,4.7,4.5,2.3,9.1c-2,3.8-3.5,7.9-5.2,11.9c-0.3,0.8-0.4,1.6-0.3,2.4
		c0,0.9,0.3,1.4,0.9,1.4c0.4,0,0.7-0.1,1-0.3c0.5-0.2,1-0.5,1.4-0.9c0.5-0.5,1.2-0.8,1.9-0.9c0.5,0,1,0.2,1.4,0.5
		c1.6,1.2,2.2,2.5,1.5,4c-0.6,1.3-1.3,2.5-2.3,3.6c-2,2.2-4.2,4.3-6.3,6.4c-0.4,0.4-0.9,0.6-1.5,0.7c-0.6,0-1.2-0.3-1.6-0.7
		c-2.7-2.5-4.7-5.5-5.1-9.4c-0.3-3.4,0.8-6.5,1.9-9.6c0.7-2,1.5-3.9,2.2-5.8c0.1-0.3,0.2-0.5,0.2-0.8l-0.3-0.3c-1,0.6-2,1.2-2.9,1.9
		c-4.4,3.8-8,8.4-10.7,13.5c-2,3.6-3.8,7.4-5.7,11.1c-0.6,1.2-1.2,1.8-2,1.8c-0.7-0.1-1.3-0.3-1.8-0.7c-0.9-0.6-1.8-1.3-2.5-2
		c-1.3-1.1-1.7-2.8-1.2-4.4c1-3.4,2-6.9,3-10.3c0.1-0.5,0.2-1,0.3-1.5c-1.9,0.7-3.8,1.3-5.8,1.8c-1.2,0-2.2,1-2.3,2.2
		c-1.4,6.4-5.3,11.9-10.9,15.3c-2.1,1.4-4.5,2.1-7,2.1c-1.2,0-2.3-0.1-3.5-0.4c-3.2-0.7-5.2-3.2-6.6-6.1c-0.5-1.2-1-2.4-1.6-3.8
		c-0.8,0.6-1.5,1.1-2.2,1.7c-3.1,2.6-6.2,5.3-9.5,7.8c-2.3,2-5.2,3.2-8.2,3.3c-1.6,0-3.2-0.4-4.6-1.1c-1.4-0.8-2.7-1.8-3.8-3.1
		c-0.7-0.8-0.8-2-0.2-2.9c0.9-1.6,1.8-3.3,2.9-4.8c0.3-0.6,0.9-1,1.6-1.1c0.6,0,1.2,0.5,1.7,1.4c0.8,1.6,1.6,2.3,2.8,2.3
		c0.3,0,0.6,0,0.8-0.1c1.6-0.4,2.7-2,2.5-3.6c-0.1-1.3-0.3-2.7-0.8-3.9c-0.8-2.3-1.7-4.5-2.6-6.8c-0.5-1.1-0.8-1.7-1.3-1.7
		s-0.9,0.5-1.5,1.3c-3.3,4.2-6.5,8.5-9.9,12.6c-3.3,4.2-7.1,7.9-11.4,11.1c-2.5,1.9-5.4,2.9-8.5,3c-1.5,0-2.9-0.3-4.3-0.8
		c-4.1-1.6-6.2-5-7.5-9c-0.6-2-1-4.1-1.3-6.2c-1.8,0.3-3.8,0.6-5.7,1c-0.3,0.1-0.6,0.6-0.7,0.9c-1.5,5.9-5,11.1-10,14.7
		c-2.4,1.9-5.3,2.9-8.3,2.9c-5.9,0-11.2-4.4-12.2-11.6c-0.8-5.7,0.7-11,3.1-16.1c2.1-4.5,4.9-8.5,9.4-10.9c2.1-1.2,4.5-1.8,7-1.9
		c1.3,0,2.5,0.2,3.7,0.5c3.5,1,5.3,3.9,4.4,7c1.8,1.3,3.1,3.3,3.6,5.5c0.2,0.6,0.4,1,1,1h0.3c0.6-0.1,1.1-0.1,1.7-0.2
		c3-0.4,3.1-0.5,3.8-3.4c3.3-13.3,9.8-25.5,19.1-35.6c3-3.2,6.3-6,10.5-7.5c0.9-0.3,1.7-0.5,2.6-0.6h0.9 M245.8,157
		c0.2-0.1,0.4-0.1,0.6-0.2c0.4-0.2,0.7-0.5,1-0.8c5.6-5.1,10.4-11,14.3-17.5c0.9-1.7,1.6-3.5,2-5.4c0.3-1.3-0.2-2.1-1.1-2.1
		c-0.4,0-0.9,0.2-1.2,0.4c-1.7,1-3.3,2.2-4.6,3.7c-4.7,5.4-7.7,11.7-9.9,18.4C246.5,154.6,246.2,155.7,245.8,157 M212.3,179.6
		c1.3,0,2.6-0.4,3.6-1.2c3.1-2,4.8-5.1,5.9-8.5c0.1-0.4-0.3-1.2-0.7-1.6c-0.6-0.6-1.4-1-2-1.6c-1.2-1.2-2.1-2.6-1.5-4.3
		c0.4-1.3,1.1-2.6,1.6-3.9c-0.7-0.4-1.4-0.5-2.1-0.5c-1.4,0-2.7,0.6-3.6,1.6c-4,3.8-6.1,9.1-5.9,14.6
		C207.7,177.7,209.7,179.6,212.3,179.6 M269.7,111.4c-0.4,0-0.8,0-1.2,0c-1.3,0.1-2.6,0.4-3.9,0.8c-5.7,2-9.7,5.8-12.6,8.8
		c-9.2,10.1-16,22.2-19.6,35.4c-0.3-0.5-0.7-0.9-1.1-1.4c-0.1-1.6-0.5-3.1-1.2-4.4c-1.5-2.7-4-4.6-7-5.3c-1.6-0.5-3.3-0.7-5-0.7
		c-3.3,0-6.5,0.9-9.4,2.5c-4.9,2.7-8.6,6.9-11.6,13.2c-3.2,6.9-4.4,12.9-3.5,18.9c1.4,9.4,8.4,15.9,17.2,15.9
		c4.1-0.1,8.1-1.4,11.3-3.9c4.4-3.2,7.9-7.5,10.1-12.4c2.1,6,5.4,9.8,10.3,11.6c1.9,0.7,3.9,1.1,6,1.1c4.1-0.1,8.1-1.4,11.4-3.7
		c2.7-1.9,5.3-4.1,7.5-6.6c0.3,0.8,0.8,1.6,1.5,2.2c1.5,1.7,3.3,3.1,5.2,4.1c2.1,1,4.4,1.5,6.7,1.5c4.2-0.1,8.2-1.7,11.3-4.4
		c2.1-1.7,4.2-3.4,6.3-5.1l0.4-0.4c1.9,3.5,5.1,6,9,6.9c1.5,0.3,3,0.5,4.5,0.5c3.5,0,6.9-1,9.8-2.9c3.1-2,5.9-4.6,8.1-7.6
		c0.5,1.5,1.4,2.9,2.6,3.9c1,0.9,2.1,1.8,3.2,2.5c1.3,0.9,2.9,1.4,4.5,1.5c1.9,0,4.6-0.8,6.5-4.6c0.5-0.9,0.9-1.9,1.4-2.8
		c1.4-2.8,2.7-5.5,4.2-8.1l0.3-0.5c0.5,4.6,2.7,8.6,6.6,12.2c1.4,1.3,3.1,2,5,2s3.6-0.8,5-2.1l1.2-1.2c1.8-1.7,3.6-3.5,5.3-5.4
		c1.3-1.5,2.4-3.1,3.1-4.9c0.8-1.7,2-6-3-10c-0.8-0.6-1.7-1.1-2.7-1.4c1-2.3,1.9-4.5,3-6.6c3.1-6,3.4-10.5-4-15.5
		c-1.9-1.4-4.2-2.1-6.6-2.2c-2.4,0-4.7,0.9-6.6,2.4c-2.2,1.7-4.2,3.5-6.2,5.4c-0.5-0.5-1-0.9-1.6-1.3c-0.4-0.3-0.9-0.6-1.5-0.9
		c-1.4-0.9-2.9-1.3-4.5-1.4c-3.6,0-5.6,2.7-6.5,3.9c-1.8,2.5-3.7,4.8-5.8,7c-0.2,0.2-0.3,0.3-0.5,0.4c-0.4-0.1-0.7-0.3-1-0.6
		c-0.7-0.6-1.5-1-2.2-1.5c0-0.3,0-0.6,0-0.9c-0.3-3.9-3-7.1-6.8-8.1c-1.3-0.4-2.6-0.6-3.9-0.6c-3.1,0.1-6.1,1-8.8,2.6
		c-6.3,3.5-10.6,9.1-13.2,16.9c-0.1,0.4-0.3,0.9-0.4,1.3c-0.1,0.5-0.3,1-0.5,1.5c-0.2,0.2-0.4,0.5-0.6,0.7c-0.4-1-0.9-1.9-1.3-2.9
		c-0.4-0.8-0.7-1.5-1.1-2.2s-0.7-1.5-1-2.2c-0.4-0.7-0.6-1.4-0.7-2.1l0,0l0.1-0.1c0.4-0.7,0.7-1.4,0.8-2.1c1-3.5-1.1-7.2-4.6-8.2
		c-1.2-0.4-2.4-0.6-3.6-0.6c-2.2,0-4.3,0.8-6,2.2c-1.4,1.2-2.7,2.5-3.8,4c-1.1,1.4-2.2,2.9-3.3,4.4c-4.1,5.5-8.1,10.7-12.7,15.2
		c-2.4,2.4-4.5,4.2-7,4.9c-0.1-0.3-0.1-0.6-0.2-0.9l0.8-0.6c1.2-0.8,2.3-1.7,3.4-2.7c5.6-5.3,10.6-11.1,15-17.4
		c3.6-4.8,6.5-10,8.5-15.6c1.5-3.8,2-8,1.6-12.1c-0.8-6.1-4.6-9.6-10.4-9.6L269.7,111.4z M314.8,166.4c-0.1-0.5-0.2-1-0.2-1.5
		c0-1.5,0.3-3.1,0.7-4.5c0.1,0.2,0.2,0.4,0.3,0.6c0.6,0.9,1.3,1.7,2.1,2.4c-0.6,1-1.4,1.9-2.3,2.7
		C315.2,166.2,315,166.3,314.8,166.4L314.8,166.4z M212.7,174.5c0-0.2,0-0.3-0.1-0.5c-0.1-2.1,0.3-4.2,1.1-6.1
		c0.5,0.9,1.2,1.7,1.9,2.4c0.2,0.2,0.4,0.3,0.5,0.5c-0.6,1.4-1.6,2.6-2.9,3.4C213.1,174.3,212.9,174.4,212.7,174.5L212.7,174.5z
		 M207.3,114.8h0.5c0.4,0,0.8,0.1,1.1,0.3c4,1.8,6.2,7.3,4.3,11.2c-2.3,5-4.8,9.9-7.2,14.9c-5.9,12.5-11.5,25.1-15.9,38.2
		c-1.5,4.5-2.5,9.1-3.6,13.7c-0.2,0.9-0.1,1.8,0.1,2.7c0,0.5,0.5,0.9,1,0.9c0.2,0,0.4-0.1,0.6-0.1c0.5-0.3,1-0.4,1.5-0.5
		c0.4,0,0.8,0.2,1.1,0.6c1.1,1.1,1.4,2.7,0.9,4.1c-0.2,0.5-0.5,0.9-0.8,1.3c-4.5,5.8-9,11.6-13.5,17.4c-0.9,1.1-1.6,1.7-2.3,1.7
		s-1.3-0.8-1.7-2.4c-0.8-3-1.2-6-1.4-9.1c-0.5-8.4,2-16.2,4.5-24c4.6-14.3,10.4-28.1,16.4-41.8c0.2-0.6,0.4-1.2,0.6-1.8l-0.4-0.2
		c-0.5,0.5-1,1-1.5,1.5c-4.7,5-8.3,10.8-12.1,16.4c-6.6,9.7-13.3,19.4-18.9,29.8c-0.5,0.9-1.1,1.7-1.9,2.5c-0.8,1.1-2.1,1.8-3.5,1.8
		c-0.7,0-1.4-0.2-2.1-0.5c-1.3-0.6-2.5-1.3-3.7-2.2c-2.4-1.9-3-3.5-1.8-6.4c1.7-4.4,3.6-8.6,5.4-12.9c4-9.6,7.9-19.1,11.8-28.7
		c0.5-1.3,0.9-2.7,1.2-4.1c0.1-0.6,0.1-1.2-0.1-1.8c-0.6,0.2-1.1,0.5-1.6,0.9c-2.4,2.8-5,5.5-7.2,8.4c-11.8,15-22.7,30.7-32.7,47
		l-0.1,0.1c-0.9,1.8-2.7,3-4.8,3.1c-1.8,0-3.7-1.2-5-3.5c-0.6-1.1-0.6-2.5,0-3.6c0.7-1.6,1.6-3.1,2.5-4.6
		c6.1-10.6,12.2-21.2,16.7-32.6c2.5-6.2,4.2-12.7,5.1-19.3c0.1-0.5,0-1.1,0.1-1.8c-9.2,7.3-19.2,13.7-29.7,19c-2,0.9-4,1.7-6,2.4
		c-0.7,0.3-1.5,0.5-2.3,0.5c-0.9,0-1.7-0.3-2.3-1c-1.4-1.4-1.8-3.5-1.2-5.3c0.3-1.2,1-2.2,1.8-3.1c3-2.6,6.2-4.9,9.4-7.4
		c0.4-0.2,0.7-0.4,1.1-0.5c-0.2,1.2-0.4,2.2-0.6,3.2s0,1.4,0.5,1.4c0.3,0,0.6-0.1,0.9-0.2c1-0.4,2-0.9,3-1.5
		c9.3-5.7,17.8-12.5,25.4-20.3c0.9-1.1,2.2-1.8,3.6-1.9c1.5,0.1,2.8,0.9,3.6,2.1c1.9,2.3,2.7,5.2,2.3,8.1
		c-0.6,6.8-2.4,13.3-4.1,19.8c-0.1,0.5-0.1,1,0,1.4c1.5-2,3-4.1,4.6-6.1c5.4-6.7,10.9-13.4,16.4-20c1.4-1.5,2.8-2.8,4.4-4
		c0.6-0.5,1.4-0.8,2.3-0.8c0.7,0,1.3,0.1,1.9,0.4c4.3,1.6,6.3,5.2,4.8,9.6c-2.6,7.9-5.3,15.7-8,23.5c-0.9,2.6-1.7,5.2-2.6,7.8
		c-0.1,0.4-0.2,0.7-0.3,1.1l0.3,0.2c0.5-0.7,1-1.4,1.4-2.1c6.1-9.8,12.9-19.1,20.2-27.9c3.9-4.7,8.2-9.1,12.8-13.1
		C204.3,115.9,205.6,114.9,207.3,114.8 M110.1,136.3L110.1,136.3 M207.3,109.9c-2.8,0.1-5.4,1.2-7.4,3.2c-4.9,4.2-9.3,8.8-13.4,13.7
		c-1,1.2-2.1,2.5-3.1,3.7l0.5-1.5c2.2-6.9-0.9-13.2-7.8-15.8c-1.2-0.5-2.4-0.7-3.7-0.7c-2,0-4,0.7-5.5,2l-0.9,0.8
		c-1.5,1.2-2.8,2.4-4.1,3.8c-2.7,3.3-5.5,6.6-8.2,9.9c0.1-0.5,0.1-0.9,0.1-1.4c0.5-4.3-0.7-8.6-3.5-11.8c-2.7-3.2-5.5-3.8-7.4-3.8
		c-2.7,0.1-5.3,1.3-7.1,3.4c-6.1,6.2-12.7,11.7-19.9,16.5l0.7-4l-8.6,3.8l-0.3,0.1c-0.6,0.2-1.2,0.6-1.8,1l-2.2,1.7
		c-2.4,1.9-4.9,3.8-7.3,5.8c-1.6,1.4-2.7,3.3-3.3,5.3c-1.2,3.6-0.3,7.6,2.3,10.3c1.5,1.7,3.7,2.6,6,2.6c1.4,0,2.7-0.3,4-0.8l0.6-0.2
		c2-0.7,4.1-1.5,6-2.4c7-3.5,13.7-7.5,20.2-11.9c-0.7,2.6-1.6,5.2-2.6,7.7c-4.2,10.8-9.9,20.8-16.4,31.9c-0.9,1.5-1.8,3.1-2.7,4.9
		c-1.3,2.6-1.2,5.7,0.2,8.2c2.1,3.9,5.5,6.1,9.3,6.1c3.6,0,6.9-2,9-5.5c0.1-0.1,0.1-0.2,0.2-0.3c6.5-10.8,13.9-21.6,22.6-33.5
		c-1,2.4-2,4.9-3.1,7.5c-0.7,1.7-1.4,3.3-2.1,5c-1.1,2.6-2.2,5.3-3.3,8c-2,5-0.8,9,3.5,12.2c1.5,1.1,3,2,4.7,2.8
		c1.3,0.6,2.7,0.9,4.1,0.9c2.8,0,5.5-1.3,7.3-3.5c0.9-1.1,1.7-2.2,2.4-3.5c2.9-5.3,6.1-10.5,9.4-15.6c-0.9,2.6-1.8,5.2-2.6,7.8
		l-0.1,0.2c-2.6,8.1-5.2,16.4-4.7,25.6c0.2,3.4,0.7,6.7,1.6,10c1.4,5.3,4.7,6.1,6.5,6.1c3,0,5-2.1,6.2-3.6c4.3-5.4,8.6-11,12.7-16.3
		l0.8-1.1c0.6-0.8,1.2-1.7,1.5-2.6c1.1-3.1,0.5-6.6-1.7-9c-0.7-0.9-1.6-1.6-2.6-2c0-0.1,0.1-0.2,0.1-0.3c0.9-3.6,1.6-7,2.7-10.2
		c4.1-12.2,9.2-23.9,15.7-37.7c1.1-2.4,2.3-4.8,3.4-7.1c1.2-2.5,2.5-5.2,3.8-7.8c1.4-3.2,1.5-6.9,0.2-10.1c-1.2-3.4-3.7-6.2-7-7.8
		c-0.8-0.4-1.7-0.6-2.6-0.7c-0.3,0-0.7-0.1-1-0.1L207.3,109.9z"/>
	<path id="gold1" class="st4" d="M154.1,261.8c-11.5,0-16.6-11.4-16.6-22.7c0-14.5,6.2-23.1,16.6-23.1c6.8,0,11.9,4.1,14,11.2
		l0.7,2.2l-12.4,4.8h12.9v5.6C169.3,254,163.9,261.8,154.1,261.8z M151.6,246.5c0.6,2,1.5,3.1,2.7,3.1s1.6-1.5,1.9-3.1H151.6z
		 M153.9,228.2c-1.2,0-1.9,2.1-2.3,3.4c-1,4.7-1.1,9.6-0.1,14.4v-11.8h4.7l-0.5-2.9c-0.5-2.8-1-3-1.5-3L153.9,228.2z M187.4,261.8
		c-7.9,0-16.4-6-16.4-22.9s8.5-22.9,16.4-22.9s16.4,6,16.4,22.9S195.3,261.8,187.4,261.8z M187.4,228.2c-1.8,0-3.1,4.5-3.1,10.7
		s1.3,10.7,3.1,10.7s3.1-4.6,3.1-10.7S189.1,228.2,187.4,228.2L187.4,228.2z M206.9,261.2v-44.6h12.8v32.2h8.2v12.4H206.9z
		 M230.4,261.2v-44.6h8.6c0.3,0,0.8,0,1.4,0c5.6,0,18.7,2.2,18.7,22.7c0,14.2-6.8,22-19.2,22L230.4,261.2z M243.2,248.5
		c0.7-0.6,1.3-1.4,1.7-2.3c0.9-2.2,1.4-4.6,1.4-7c0-0.9-0.1-7.3-3-9.6L243.2,248.5z"/>
	<path id="gold2" class="st1" d="M154.1,218.5c6,0,10,3.8,11.7,9.4l-7.6,2.9c-0.4-2-1-5.1-4-5.1H154c-5.1,0-5.6,9.5-5.6,13.2
		c0,4.1,0.3,13.2,6,13.2c4,0,4.6-5.4,4.6-8.1h-5v-7.4h12.8v3.1c0,8.4-2,19.6-12.7,19.6s-14-11.5-14-20.2
		C140,230,142.9,218.5,154.1,218.5 M154.1,213.5c-11.8,0-19.1,9.8-19.1,25.6c0,12.6,5.9,25.2,19.1,25.2c5.3,0,17.7-2.4,17.7-24.6
		v-8.1h-1.9l2-0.8l-1.3-4.4C168.1,218.3,162,213.4,154.1,213.5L154.1,213.5z M187.4,218.5c7,0,13.9,5.6,13.9,20.4
		s-6.9,20.4-13.9,20.4s-13.9-5.6-13.9-20.4S180.4,218.5,187.4,218.5 M187.4,252.1c5.2,0,5.6-10,5.6-13.2c0-3.5-0.4-13.2-5.6-13.2
		s-5.6,9.7-5.6,13.2C181.8,242,182.2,252.1,187.4,252.1 M187.4,213.5c-8.7,0-18.9,6.7-18.9,25.4s10.2,25.4,18.9,25.4
		s18.9-6.6,18.9-25.4S196.1,213.5,187.4,213.5L187.4,213.5z M187.4,245c-0.4-2-0.6-4-0.6-6.1s0.2-4.2,0.6-6.2c0.4,2,0.6,4.1,0.6,6.2
		C188,240.9,187.8,243,187.4,245z M217.2,219.1v32.2h8.2v7.3h-16V219h7.8 M222.2,214.1h-17.8v49.6h26v-17.3h-8.2V214.1L222.2,214.1z
		 M240.4,219c4.4,0,16.2,1.4,16.2,20.2c0,11.3-4.4,19.5-16.7,19.5h-7v-39.6h5.9C239,219.1,239.6,219,240.4,219 M241.1,251.7
		c6,0,7.7-7.7,7.7-12.5c0-5-1.6-13-8-13v25.5H241.1 M240.4,214L240.4,214c-0.6,0-1.2,0-1.5,0h-11v49.6h12c13.8,0,21.7-8.9,21.7-24.5
		C261.6,215.8,245.4,213.9,240.4,214L240.4,214z"/>
	<path id="healing" class="st1" d="M273.6,255.6l0.6,1.3l-1.7,0.8l4.4,9.9l-1.5,0.7l-4.4-9.9l-1.7,0.8l-0.6-1.3L273.6,255.6z
		 M283.2,257.4c1.1,1.9,3,5.5,0.2,7s-4.8-2-5.8-4s-3-5.5-0.2-7S282.2,255.4,283.2,257.4z M279.2,259.6c1.2,2.3,2.4,4.1,3.6,3.5
		s0.2-2.6-1-4.9s-2.4-4.1-3.6-3.5S277.9,257.3,279.2,259.6z M289.1,246l0.8,1.1l-1.5,1.1l6.4,8.7l-1.3,1l-6.4-8.7l-1.5,1.1l-0.8-1.1
		L289.1,246z M298.9,245.7c1.5,1.7,4.1,4.8,1.7,6.8s-5.1-1-6.5-2.7s-4.1-4.8-1.7-6.8S297.4,244,298.9,245.7z M295.4,248.7
		c1.7,2,3.2,3.5,4.2,2.6s-0.3-2.6-2-4.6s-3.2-3.5-4.2-2.6S293.7,246.7,295.4,248.7L295.4,248.7z M299.6,236.2l1,1l-1.9,2l2.8,2.7
		l1.7-1.8l1,1l-1.7,1.8l3,2.9l1.9-2l1,1l-3,3.1l-8.8-8.5L299.6,236.2z M244,62.7l-0.6,4.7l2.4,0.3l0.6-4.7l1.6,0.2l-1.5,12.1
		l-1.6-0.2l0.7-6l-2.4-0.3l-0.7,6l-1.6-0.2l1.5-12.1L244,62.7z M256.3,64.8l-0.3,1.4l-2.7-0.6l-0.8,3.8l2.4,0.5l-0.3,1.4l-2.4-0.5
		l-0.8,4.1l2.7,0.6l-0.3,1.4l-4.3-0.9l2.5-12L256.3,64.8z M262.2,66.4l-0.8,12.5l-1.6-0.4l0.2-2.4l-2.3-0.7l-1.1,2.2l-1.5-0.4
		l5.9-11L262.2,66.4z M260.4,73l0.6-4.5l0,0l-2.7,5.7l1.9,0.5L260.4,73z M269.1,68.7l-3.8,10.2l2.6,0.9l-0.5,1.3l-4.1-1.5l4.2-11.5
		L269.1,68.7z M270.8,82.6l-1.5-0.7l4.9-11.2l1.5,0.7L270.8,82.6z M278.8,76.8l-1.7,3.8l-2.1,4l-1.4-0.8l5.7-10.8l1.4,0.7l-1.8,9.6
		l0,0l1.9-4.5l2-3.9l1.4,0.8l-5.7,10.8l-1.3-0.7l1.9-9.7l0,0L278.8,76.8z M289.6,85.7l-0.1,0.2c-1.3,2-3.2,5.6-5.9,3.8
		c-2.4-1.6-1.2-4.1,0.7-7s3.7-5.2,6-3.6c1.5,0.9,1.7,2.1,1.1,3.7l-1.6-0.3c0.3-0.8,0.5-1.6-0.3-2.1c-1.1-0.7-2.2,0.8-3.8,3.2
		c-2.3,3.6-2,4.4-1.4,4.8s1.2,0.7,2.8-1.8l0.4-0.6l-1.1-0.7l0.8-1.2L289.6,85.7z M302.9,88.8l-0.9,1.1l-2.1-1.8l-2.5,2.9l1.9,1.6
		l-0.9,1.1l-1.9-1.6l-3.6,4.2l-1.2-1l7.9-9.4L302.9,88.8z M305.2,90.9l1.4,1.4c0.9,0.8,2.1,2.2,0,4.4c-0.8,0.8-2.3,1.8-3.4,1.1
		l-2.5,5.8l-1.2-1.2l2.6-5.8l0,0l-4.2,4.3l-1.2-1.1L305.2,90.9z M305.1,95.7c0.8-0.8,1.4-1.6,0.5-2.5l-0.2-0.2l-2.8,2.9
		C303.4,96.8,304.2,96.5,305.1,95.7z M310.7,105.7c-1.7,1.4-4.8,4.1-6.8,1.7s1-5.1,2.7-6.5s4.8-4.1,6.8-1.7S312.4,104.2,310.7,105.7
		z M307.7,102.2c-2,1.7-3.5,3.2-2.6,4.2s2.6-0.3,4.5-2s3.5-3.2,2.6-4.2S309.6,100.5,307.7,102.2L307.7,102.2z M318.7,106.2l-6.2,6.5
		l0,0l0.4-0.2l2.7-1.3l5-2.2l0.8,1.2l-9.4,8l-0.9-1.3l3.6-2.9l1.8-1.4l1.3-0.9l0,0l-1.6,0.8l-6.2,2.8l-0.6-0.9l6-6.1l0,0l-7.2,4.5
		l-0.9-1.3l10.6-6.3L318.7,106.2z M328.2,121.7l-1.2,0.7l-0.9-1.6l-9.6,5l-0.8-1.4l9.6-5l-0.9-1.7l1.2-0.7L328.2,121.7z
		 M326.1,132.1c-2,0.9-5.8,2.4-7-0.4s2.5-4.5,4.5-5.4s5.8-2.4,7,0.4S328.1,131.2,326.1,132.1z M324.3,127.8c-2.4,1-4.3,2-3.8,3.2
		s2.6,0.5,4.9-0.5s4.3-2,3.8-3.2S326.6,126.8,324.3,127.8z M321.4,137l11.6-3.9l0.6,1.8c0.5,1.3,0.9,3.1-2.1,4.1
		c-2.4,0.8-3.8,0.2-4.5-2.2l-5.1,1.7L321.4,137z M332.2,135.1l-3.8,1.3c0.4,1.4,1.2,1.5,2.5,1.1c1-0.4,1.8-1,1.4-2.1L332.2,135.1z"
		/>
</g>
</svg>
