<?xml version="1.0" encoding="utf-8"?>
<!-- Generator: Adobe Illustrator 26.0.3, SVG Export Plug-In . SVG Version: 6.00 Build 0)  -->
<svg version="1.1" id="Camada_1" xmlns="http://www.w3.org/2000/svg" xmlns:xlink="http://www.w3.org/1999/xlink" x="0px" y="0px"
	 viewBox="0 0 100 97.8" style="enable-background:new 0 0 100 97.8;" xml:space="preserve">
<style type="text/css">
	.st0{fill:#DBC288;}
	.st1{fill:#D5313E;}
	.st2{fill:#FFFFFF;}
	.st3{fill:#CA9E67;}
</style>
<g>
	<g>
		<g>
			<path class="st0" d="M65.6,10.3L60.6,0l-8.8,7.4C56.7,7.6,61.3,8.6,65.6,10.3z"/>
		</g>
		<g>
			<path class="st0" d="M48.6,7.4L39.8,0l-5,10.3C39.2,8.6,43.8,7.6,48.6,7.4z"/>
		</g>
		<g>
			<path class="st0" d="M31.8,11.6l-11-3.2l-0.2,11.2C23.8,16.3,27.6,13.6,31.8,11.6z"/>
		</g>
		<g>
			<path class="st0" d="M8.2,48.9c0-3.9,0.6-7.8,1.6-11.4l-9.3,5.7l7.8,7.3C8.3,50,8.2,49.4,8.2,48.9z"/>
		</g>
		<g>
			<path class="st0" d="M100,43.2l-9.4-5.7c1.1,3.6,1.6,7.4,1.6,11.4c0,0.5,0,1.1,0,1.6L100,43.2z"/>
		</g>
		<g>
			<path class="st0" d="M89.3,33.7l4.2-10.1l-11.2-1.4C85.3,25.6,87.6,29.5,89.3,33.7z"/>
		</g>
		<g>
			<path class="st0" d="M79.9,19.6L79.6,8.4l-11,3.2C72.8,13.6,76.7,16.3,79.9,19.6z"/>
		</g>
		<g>
			<path class="st0" d="M18.1,22.2L6.9,23.6l4.2,10.1C12.8,29.5,15.2,25.6,18.1,22.2z"/>
		</g>
		<g>
			<path class="st0" d="M8.7,55l-6,8.7l9.8,3.4C10.6,63.3,9.3,59.3,8.7,55z"/>
		</g>
		<g>
			<path class="st0" d="M88,67.1l9.8-3.4l-6-8.7C91.1,59.3,89.8,63.3,88,67.1z"/>
		</g>
		<g>
			<path class="st0" d="M61.8,88.8l8.8,4.7l2.4-9.7C69.5,86,65.8,87.7,61.8,88.8z"/>
		</g>
		<g>
			<path class="st0" d="M77.2,80.6l10.1,0.8l-1.9-10C83.2,74.9,80.4,78,77.2,80.6z"/>
		</g>
		<g>
			<path class="st0" d="M14.9,71.4l-1.9,10l10.1-0.8C20,78,17.2,74.9,14.9,71.4z"/>
		</g>
		<g>
			<path class="st0" d="M27.5,83.8l2.4,9.7l8.8-4.7C34.7,87.7,30.9,86,27.5,83.8z"/>
		</g>
		<g>
			<path class="st0" d="M50.2,90.4c-2.1,0-4.1-0.1-6.1-0.4l6.1,7.9l6.1-7.9C54.3,90.3,52.3,90.4,50.2,90.4z"/>
		</g>
	</g>
	<g>
		<g>
			<g>
				<path class="st0" d="M50.2,88.5c-21.8,0-39.5-17.7-39.5-39.5S28.4,9.4,50.2,9.4s39.5,17.7,39.5,39.5S72,88.5,50.2,88.5z
					 M50.2,10.7C29.1,10.7,12,27.8,12,48.9s17.2,38.2,38.2,38.2S88.4,70,88.4,48.9S71.3,10.7,50.2,10.7z"/>
			</g>
		</g>
	</g>
	<g>
		<g>
			<path class="st1" d="M40.8,57.2c-2.6,0-4.7-2-5.1-4.8c-0.3-1.9,0.1-3.8,1.1-6c0.9-2,2.1-3.3,3.7-4.2c0.9-0.5,1.9-0.7,2.8-0.7
				c0.5,0,1,0.1,1.5,0.2c0.8,0.2,1.5,0.7,1.9,1.4c0.2,0.5,0.4,0.9,0.3,1.5c0.6,0.5,0.8,1.2,1.1,1.7c0.1,0,0.1,0,0.2,0
				c0.1,0,0.4,0,0.5-0.1c0-0.1,0.1-0.3,0.1-0.5c1.3-4.9,3.5-9.2,6.8-12.7c0.9-1,2.2-2.2,4-2.8c0.4-0.1,0.8-0.2,1.1-0.2
				c0.1,0,0.2,0,0.4,0c1.1,0,2.5,0.5,2.7,2.6c0.2,1.5-0.2,2.8-0.5,3.8c-0.6,1.7-1.5,3.3-2.8,5.2c-1.3,1.7-3,4-5.1,5.9
				c-0.4,0.3-0.7,0.6-1.1,0.9c-0.2,0.2-0.5,0.3-0.7,0.5l0,0c0,0.4,0.1,0.8,0.2,1.1c0.1,0.3,0.3,0.5,0.6,0.5c0.1,0,0.2,0,0.3,0
				c1.1-0.3,1.9-1.1,2.8-1.9c1.7-1.6,3.1-3.5,4.5-5.3c0.4-0.5,0.8-1,1.2-1.5s0.8-0.9,1.2-1.3c0.4-0.4,0.9-0.6,1.5-0.6
				c0.3,0,0.6,0.1,1,0.2c0.8,0.2,1.2,1,1,1.8c0,0.1,0,0.3-0.2,0.5c-0.2,0.4-0.2,0.8,0.2,1.6c0.1,0.2,0.2,0.5,0.4,0.8
				c0.1,0.2,0.2,0.5,0.4,0.8c0.3,0.7,0.6,1.3,0.9,2c0.5-0.4,0.9-0.7,1.2-1.1c0.1-0.2,0.2-0.5,0.3-0.8c0-0.1,0.1-0.3,0.1-0.4
				c0.8-2.5,2.2-4.3,4.2-5.4c0.6-0.4,1.5-0.8,2.6-0.8c0.4,0,0.7,0.1,1.1,0.2c1,0.3,1.7,1.1,1.7,2.1c0,0.3,0,0.5-0.1,0.7
				c0,0,0.1,0,0.1,0c0.4,0.1,0.7,0.4,1.1,0.6c0.3,0.2,0.6,0.4,0.9,0.4c0.1,0,0.4,0,0.8-0.4c0.7-0.7,1.3-1.4,2.1-2.5
				c0.3-0.4,0.7-1,1.5-1c0.4,0,0.8,0.2,1.2,0.4c0.1,0.1,0.3,0.2,0.4,0.3c0.5,0.3,0.8,0.7,0.9,1.1c0.1-0.1,0.1-0.1,0.2-0.2
				c0.8-0.8,1.7-1.6,2.5-2.2c0.5-0.4,1.1-0.6,1.8-0.6c0.6,0,1.2,0.2,1.8,0.6c2.1,1.4,2,2.5,1.1,4.2c-0.5,1-0.9,2.1-1.4,3.2
				c-0.1,0.1-0.1,0.3-0.2,0.5c0.2-0.1,0.4-0.2,0.7-0.2c0.4,0,0.7,0.1,1,0.4c1.2,0.9,1,1.9,0.8,2.4c-0.3,0.6-0.6,1.1-0.9,1.5
				c-0.6,0.6-1.2,1.2-1.8,1.8l-0.4,0.4c-0.3,0.3-0.7,0.5-1.1,0.5s-0.8-0.2-1.2-0.5c-1.2-1.2-1.9-2.4-2-3.8c-0.1-1.2,0.2-2.2,0.5-3.2
				c-0.8,0.9-1.5,1.9-2.2,3.1c-0.5,0.9-1,1.9-1.5,2.8c-0.2,0.3-0.3,0.6-0.5,0.9c-0.1,0.3-0.6,1.1-1.5,1.1c-0.5,0-0.8-0.2-1.1-0.4
				c-0.4-0.2-0.7-0.5-1-0.8c-0.7-0.6-0.9-1.5-0.7-2.4c0,0,0.6-2.2,0.7-2.5c-0.2,0.1-0.4,0.1-0.6,0.1c0,0,0,0-0.1,0c0,0,0,0.1,0,0.1
				c-0.6,2.4-1.9,4.4-4.1,5.8C78,53.9,77,54.2,76,54.2c-0.5,0-0.9,0-1.4-0.1c-1.2-0.3-2.2-1.1-2.9-2.6c0-0.1-0.1-0.2-0.1-0.3
				c-0.3,0.3-0.6,0.5-1,0.8c-0.7,0.6-1.4,1.2-2.1,1.8c-1.1,0.9-2.2,1.3-3.4,1.3c-0.7,0-1.3-0.1-2-0.5c-0.6-0.3-1.1-0.8-1.5-1.2
				C61,52.8,61,52,61.4,51.3c0.1-0.1,0.2-0.3,0.3-0.5c0.2-0.4,0.4-0.7,0.6-1.1c-0.3,0.3-0.5,0.7-0.8,1c-1.2,1.4-2.5,2.9-4.1,4
				c-1.2,0.8-2.3,1.2-3.4,1.2c-0.6,0-1.2-0.1-1.8-0.3c-1.5-0.6-2.5-1.8-3.1-3.7c-0.1-0.5-0.2-0.9-0.3-1.4c-0.2,0-0.5,0.1-0.7,0.1
				c-0.6,2.1-1.8,3.9-3.7,5.3C43.2,56.7,42,57.2,40.8,57.2z M42.4,46.3c-1.2,1.2-1.8,2.7-1.8,4.4c0,0.3,0.1,1,0.7,1l0,0
				c0.2,0,0.5-0.1,0.8-0.3c0.7-0.5,1.2-1.1,1.6-2.2c0,0-0.1-0.1-0.2-0.1c-0.1-0.1-0.3-0.2-0.5-0.4C42.4,48,42.1,47.2,42.4,46.3
				C42.4,46.4,42.4,46.3,42.4,46.3z M63.6,48.8c0.3,0,0.9,0.1,1.4,1c0.1,0.2,0.2,0.3,0.2,0.3s0,0,0.1,0c0.2,0,0.2-0.2,0.2-0.4
				c0-0.4-0.1-0.8-0.2-1.1c-0.2-0.6-0.4-1.2-0.7-1.8l-0.3,0.4c-0.5,0.6-1,1.3-1.5,1.9C63,48.8,63.4,48.8,63.6,48.8z M78,43
				c-0.6,0.3-1,0.7-1.3,1.4c-0.6,1.1-0.8,2.1-0.8,3.2c0,0.4,0.1,0.7,0.2,1.1c0.1,0.2,0.3,0.4,0.6,0.4c0.1,0,0.1,0,0.2,0
				c0.3-0.1,0.5-0.2,0.7-0.4c0.6-0.5,1-1,1.4-1.8c-0.5-0.4-0.8-0.7-1.1-1.1c-0.3-0.5-0.4-1.2-0.2-1.8C77.6,43.6,77.8,43.4,78,43z
				 M58,37.2c-0.2,0.2-0.5,0.4-0.6,0.6c-0.9,1.1-1.8,2.4-2.4,3.9c1.1-1.2,2-2.5,2.7-3.8C57.8,37.7,57.9,37.5,58,37.2z"/>
			<path class="st2" d="M61.2,30.8c1.2,0,1.7,0.6,1.9,1.8c0.1,1.2-0.1,2.3-0.5,3.4c-0.6,1.8-1.6,3.4-2.7,5c-1.5,2.1-3.1,4.1-5,5.8
				c-0.5,0.5-1.2,0.9-1.7,1.3c-0.1,0.1-0.4,0.4-0.4,0.5c0,0.5,0.1,1.1,0.3,1.6c0.2,0.7,0.8,1.1,1.5,1.1c0.2,0,0.4,0,0.6-0.1
				c1.3-0.4,2.2-1.2,3.2-2.1c2.2-2.1,3.9-4.6,5.7-7c0.3-0.4,0.7-0.8,1.1-1.2c0.3-0.2,0.6-0.4,0.9-0.4c0.2,0,0.5,0,0.7,0.1
				c0.4,0.1,0.5,0.4,0.4,0.8c0,0.1,0,0.1,0,0.2c-0.5,0.8-0.2,1.7,0.1,2.4c0.2,0.5,0.5,1,0.7,1.5c0.4,0.9,0.9,1.9,1.3,2.9
				c0.9-0.5,1.7-1.1,2.3-1.9c0.3-0.4,0.4-0.9,0.6-1.4c0.7-2.1,1.8-3.8,3.8-4.9c0.7-0.4,1.4-0.7,2.2-0.7c0.3,0,0.6,0,0.9,0.1
				c0.6,0.2,1.1,0.7,1.1,1.3c0,0.4-0.1,0.7-0.6,0.7c-0.3,0-0.6,0-0.8,0.1c-1.3,0.2-2.2,1-2.8,2.1c-0.6,1.1-0.9,2.3-0.9,3.6
				c0,0.5,0.1,0.9,0.2,1.4c0.2,0.6,0.8,0.9,1.4,0.9c0.1,0,0.3,0,0.5-0.1c0.4-0.1,0.7-0.3,1-0.5c0.8-0.6,1.3-1.4,1.7-2.4
				c0.1-0.4,0-0.6-0.3-0.8c-0.4-0.2-0.7-0.5-1-0.9c-0.2-0.2-0.2-0.7-0.1-1c0.1-0.5,0.4-0.9,0.7-1.3c0.2-0.3,0.5-0.5,0.9-0.5
				c0.2,0,0.4,0,0.7,0.1c0.3,0.1,0.6,0.3,0.8,0.5c0.5,0.4,0.9,0.6,1.4,0.6c0.5,0,0.9-0.2,1.4-0.7c0.8-0.8,1.5-1.7,2.2-2.6
				c0.3-0.4,0.5-0.6,0.8-0.6c0.2,0,0.4,0.1,0.7,0.2c0.1,0.1,0.2,0.2,0.4,0.2c0.7,0.5,0.9,0.9,0.7,1.8c-0.1,0.4-0.2,0.8-0.4,1.3
				c0.7-0.8,1.3-1.7,2-2.4c0.8-0.8,1.6-1.5,2.4-2.2c0.4-0.3,0.8-0.5,1.2-0.5s0.9,0.2,1.3,0.5c1.6,1.1,1.6,1.5,0.8,3.1
				c-0.7,1.3-1.2,2.7-1.8,4.1c-0.1,0.2-0.1,0.6-0.1,0.8c0,0.3,0.1,0.5,0.3,0.5c0.1,0,0.2,0,0.4-0.1c0.2-0.1,0.4-0.2,0.5-0.3
				c0.2-0.2,0.4-0.3,0.7-0.3c0.1,0,0.3,0.1,0.5,0.2c0.5,0.4,0.8,0.9,0.5,1.4c-0.2,0.5-0.5,0.9-0.8,1.2c-0.7,0.8-1.4,1.5-2.2,2.2
				c-0.2,0.1-0.4,0.2-0.5,0.2c-0.2,0-0.4-0.1-0.6-0.2c-0.9-0.9-1.6-1.9-1.8-3.2c-0.1-1.2,0.2-2.2,0.7-3.3c0.2-0.7,0.5-1.3,0.8-2
				c0-0.1,0-0.2,0.1-0.3c0,0-0.1-0.1-0.1-0.1c-0.3,0.2-0.7,0.4-1,0.7c-1.5,1.3-2.7,2.9-3.7,4.7c-0.7,1.3-1.3,2.6-2,3.8
				c-0.2,0.4-0.4,0.6-0.7,0.6c-0.2,0-0.4-0.1-0.6-0.2c-0.3-0.2-0.6-0.5-0.9-0.7c-0.5-0.4-0.6-0.9-0.4-1.5c0.4-1.2,0.7-2.4,1.1-3.5
				c0-0.2,0.1-0.4,0.1-0.5c-0.7,0.2-1.3,0.5-2,0.6c-0.5,0.1-0.7,0.3-0.8,0.8c-0.5,2.2-1.8,4-3.8,5.3c-0.8,0.5-1.6,0.7-2.4,0.7
				c-0.4,0-0.8,0-1.2-0.1c-1.1-0.2-1.8-1.1-2.2-2.1c-0.2-0.4-0.4-0.8-0.6-1.3c-0.3,0.2-0.5,0.4-0.8,0.6c-1.1,0.9-2.1,1.8-3.3,2.7
				c-0.9,0.7-1.8,1.2-2.8,1.2c-0.5,0-1.1-0.1-1.6-0.4c-0.5-0.2-0.9-0.7-1.3-1.1c-0.2-0.3-0.2-0.7-0.1-1c0.3-0.6,0.6-1.1,1-1.7
				c0.2-0.2,0.4-0.4,0.6-0.4c0.2,0,0.4,0.2,0.6,0.5c0.3,0.5,0.6,0.8,1,0.8c0.1,0,0.2,0,0.3,0c0.5-0.1,0.9-0.6,0.8-1.3
				c0-0.5-0.1-0.9-0.3-1.4c-0.3-0.8-0.6-1.6-0.9-2.4c-0.2-0.4-0.3-0.6-0.4-0.6s-0.3,0.1-0.5,0.5c-1.1,1.4-2.2,2.9-3.4,4.3
				c-1.2,1.4-2.4,2.8-3.9,3.8c-0.9,0.6-1.9,1.1-2.9,1.1c-0.5,0-1-0.1-1.5-0.3c-1.4-0.5-2.1-1.7-2.6-3.1c-0.2-0.7-0.3-1.4-0.5-2.1
				c-0.6,0.1-1.3,0.2-2,0.4c-0.1,0-0.2,0.2-0.2,0.3c-0.5,2.1-1.7,3.8-3.4,5.1c-0.9,0.7-1.9,1-2.9,1c-2,0-3.9-1.5-4.2-4
				c-0.3-2,0.2-3.8,1.1-5.5c0.7-1.5,1.7-2.9,3.3-3.8c0.8-0.4,1.6-0.6,2.4-0.6c0.4,0,0.8,0.1,1.3,0.2c1.2,0.3,1.8,1.4,1.5,2.4
				c0.7,0.5,1,1.1,1.3,1.9c0.1,0.2,0.1,0.4,0.4,0.4c0,0,0.1,0,0.1,0c0.2,0,0.4,0,0.6-0.1c1-0.1,1.1-0.2,1.3-1.2
				c1.2-4.6,3.3-8.8,6.6-12.3c1-1.1,2.2-2.1,3.6-2.6c0.3-0.1,0.6-0.2,0.9-0.2C61,30.8,61.1,30.8,61.2,30.8 M53,44.8
				c0.1,0,0.1,0,0.2-0.1c0.1-0.1,0.2-0.2,0.4-0.3c1.9-1.8,3.6-3.8,4.9-6c0.3-0.6,0.6-1.2,0.7-1.9c0.1-0.5-0.1-0.7-0.4-0.7
				c-0.1,0-0.3,0-0.4,0.1c-0.6,0.4-1.2,0.8-1.6,1.3c-1.6,1.9-2.7,4-3.4,6.4C53.2,44,53.1,44.3,53,44.8 M41.4,52.6
				c0.4,0,0.8-0.1,1.3-0.4c1.1-0.7,1.7-1.8,2-2.9c0-0.1-0.1-0.4-0.2-0.6c-0.2-0.2-0.5-0.4-0.7-0.6c-0.4-0.4-0.7-0.9-0.5-1.5
				c0.1-0.5,0.4-0.9,0.6-1.4c-0.2-0.1-0.5-0.2-0.7-0.2c-0.4,0-0.9,0.2-1.2,0.6c-1.4,1.4-2.1,3.1-2,5.1
				C39.8,51.9,40.5,52.6,41.4,52.6 M61.2,29c-0.1,0-0.3,0-0.4,0c-0.4,0-0.9,0.1-1.4,0.3c-2,0.7-3.4,2-4.4,3.1
				c-3.1,3.4-5.4,7.5-6.7,12.2c-0.1-0.1-0.2-0.3-0.3-0.4c0-0.5-0.2-1.1-0.4-1.5c-0.5-0.9-1.4-1.5-2.4-1.9c-0.6-0.2-1.2-0.2-1.8-0.2
				c-1.1,0-2.2,0.3-3.3,0.8c-1.7,0.9-3,2.4-4,4.6c-1.1,2.4-1.5,4.5-1.2,6.6c0.5,3.2,2.9,5.5,6,5.5c1.4,0,2.7-0.5,3.9-1.4
				c1.6-1.2,2.7-2.6,3.5-4.2c0.7,2,1.9,3.3,3.5,4c0.7,0.2,1.4,0.4,2.1,0.4c1.3,0,2.6-0.5,3.9-1.4c0.9-0.7,1.8-1.4,2.6-2.2
				c0.1,0.3,0.3,0.5,0.5,0.7c0.5,0.5,1,1.1,1.8,1.4c0.8,0.4,1.5,0.5,2.3,0.5c1.3,0,2.6-0.5,3.9-1.5c0.7-0.6,1.5-1.2,2.2-1.8
				c0,0,0.1-0.1,0.1-0.1c0.8,1.3,1.8,2.1,3.1,2.4c0.5,0.1,1.1,0.2,1.5,0.2c1.2,0,2.4-0.4,3.4-1c1.1-0.7,2-1.6,2.8-2.6
				c0.2,0.5,0.5,0.9,0.9,1.3c0.3,0.3,0.7,0.6,1.1,0.9c0.4,0.2,0.9,0.5,1.6,0.5c0.7,0,1.6-0.3,2.2-1.6c0.2-0.3,0.3-0.6,0.5-1
				c0.5-1,0.9-1.9,1.4-2.8c0,0,0-0.1,0-0.1c0.2,1.5,0.9,2.9,2.3,4.1c0.5,0.5,1.1,0.7,1.8,0.7c0.6,0,1.3-0.2,1.7-0.7
				c0.1-0.1,0.3-0.3,0.4-0.4c0.6-0.6,1.2-1.2,1.8-1.9c0.4-0.5,0.8-1,1.1-1.7c0.3-0.6,0.7-2.1-1-3.5c-0.3-0.2-0.6-0.4-0.9-0.5
				c0.3-0.8,0.6-1.5,1-2.2c1.1-2.1,1.2-3.7-1.4-5.4c-0.7-0.5-1.5-0.8-2.3-0.8c-0.8,0-1.6,0.3-2.3,0.8c-0.7,0.6-1.4,1.2-2.1,1.9
				c-0.1-0.1-0.3-0.3-0.5-0.4c-0.1-0.1-0.3-0.2-0.5-0.3c-0.4-0.2-0.9-0.5-1.6-0.5c-1.3,0-2,0.9-2.2,1.4c-0.8,1.1-1.4,1.8-2,2.4
				c-0.1,0.1-0.1,0.1-0.2,0.1s-0.2-0.1-0.3-0.2c-0.2-0.2-0.5-0.4-0.8-0.5c0-0.1,0-0.2,0-0.3c-0.1-1.3-1-2.5-2.4-2.8
				c-0.5-0.1-0.9-0.2-1.4-0.2c-1.3,0-2.4,0.5-3.1,0.9c-2.2,1.2-3.7,3.2-4.6,5.9c0,0.1-0.1,0.3-0.1,0.5c0,0.2-0.1,0.5-0.2,0.5
				c0,0.1-0.1,0.1-0.2,0.2c-0.1-0.3-0.3-0.6-0.4-0.9c-0.1-0.2-0.2-0.5-0.4-0.8c-0.1-0.2-0.2-0.5-0.4-0.8c-0.2-0.5-0.2-0.7-0.2-0.7
				l0,0c0,0,0,0,0,0c0.2-0.3,0.2-0.6,0.3-0.7c0.3-1.3-0.4-2.5-1.6-2.8c-0.5-0.1-0.8-0.2-1.3-0.2c-0.8,0-1.5,0.3-2.1,0.8
				c-0.5,0.4-0.9,0.9-1.3,1.4c-0.4,0.5-0.8,1-1.2,1.5c-1.4,1.9-2.8,3.7-4.4,5.2c-0.8,0.8-1.5,1.4-2.4,1.7c0-0.1,0-0.2,0-0.2
				c0.1-0.1,0.2-0.1,0.2-0.2c0.4-0.3,0.8-0.6,1.2-0.9c2.2-2,3.9-4.3,5.2-6c1.4-1.9,2.3-3.7,2.9-5.4c0.4-1.1,0.8-2.5,0.6-4.2
				C64.5,30.2,63.2,29,61.2,29L61.2,29z M76.8,48c0-0.1-0.1-0.3-0.1-0.5c0-0.5,0.1-1,0.2-1.5c0,0,0,0.1,0.1,0.1
				c0.2,0.3,0.4,0.6,0.7,0.8c-0.2,0.4-0.5,0.7-0.8,0.9C76.9,47.9,76.9,48,76.8,48L76.8,48z M41.5,50.8c0,0,0-0.1,0-0.1
				c0-0.7,0.1-1.4,0.4-2c0.2,0.2,0.4,0.5,0.6,0.8c0.1,0,0.1,0.1,0.2,0.1c-0.3,0.5-0.6,0.9-0.9,1.2C41.6,50.7,41.6,50.8,41.5,50.8
				L41.5,50.8z"/>
		</g>
		<g>
			<path class="st1" d="M28.5,67.8c-0.7,0-1.2-0.5-1.4-1.5c-0.3-1-0.4-2.1-0.5-3.3c-0.2-3,0.7-5.8,1.6-8.5l0-0.1
				c1.1-3.4,2.4-6.7,3.7-9.8c-0.2,0.2-0.4,0.5-0.5,0.8c-0.2,0.3-0.4,0.6-0.6,0.8l-0.7,1c-2,3-4.1,6-5.8,9.2c-0.2,0.4-0.5,0.7-0.7,1
				c-0.7,0.8-1.4,0.9-1.9,0.9c-0.4,0-0.7-0.1-1.1-0.2c-0.5-0.2-1-0.5-1.4-0.8c-1.2-0.9-1.4-1.9-0.9-3.2c0.4-0.9,0.8-1.8,1.1-2.7
				c0.2-0.6,0.5-1.2,0.7-1.8c1.4-3.3,2.5-6.1,3.5-8.6c-0.2,0.2-0.4,0.5-0.6,0.7c-4.6,5.9-8.1,11.1-11.2,16.1c0,0,0,0.1,0,0.1
				c-0.6,0.9-1.4,1.5-2.4,1.5c-1,0-1.9-0.6-2.5-1.7c-0.4-0.6-0.4-1.4,0-2c0.3-0.6,0.6-1.2,0.9-1.7c2.2-3.9,4.2-7.4,5.7-11.1
				c0.6-1.7,1.1-3.3,1.5-5c-2.9,2.1-5.7,3.9-8.7,5.3c-0.6,0.3-1.3,0.6-2,0.8l-0.2,0.1c-0.2,0.1-0.7,0.2-1.1,0.2
				c-0.6,0-1.1-0.2-1.4-0.6C0.9,43,0.6,42,1,41c0.1-0.5,0.4-1.1,0.9-1.5c0.8-0.7,1.7-1.3,2.5-2c0.2-0.2,0.5-0.4,0.8-0.6
				c0.1-0.1,0.3-0.2,0.4-0.2c0,0,0.1,0,0.1-0.1L7.2,36l-0.3,1.7l0,0c3.2-2,6.1-4.3,8.6-6.8c0.6-0.6,1.2-0.9,1.9-0.9
				c0.7,0,1.3,0.4,1.9,1c0.8,0.9,1.1,2.1,1,3.5c-0.1,1.2-0.3,2.4-0.6,3.6c1.6-2,3.2-4,4.8-5.9c0.4-0.5,0.8-0.8,1.3-1.2
				c0.1-0.1,0.2-0.2,0.4-0.3c0.4-0.3,0.8-0.5,1.3-0.5c0.3,0,0.6,0.1,1,0.2c2,0.7,2.8,2.5,2.2,4.4c-0.6,1.8-1.2,3.7-1.9,5.5
				c1.4-2,2.8-3.8,4.2-5.4c1.2-1.4,2.7-3.1,4.5-4.6c0.4-0.4,1.1-0.9,2-0.9c0.1,0,0.2,0,0.3,0c0.2,0,0.5,0.1,0.6,0.2
				c0.9,0.4,1.6,1.2,2,2.2c0.4,0.9,0.4,2-0.1,2.8c-0.4,0.9-0.9,1.8-1.3,2.7c-0.4,0.8-0.8,1.6-1.2,2.5c-2.2,4.8-4,8.8-5.4,13.1
				c-0.4,1.2-0.7,2.4-0.9,3.6c-0.1,0.4-0.2,0.7-0.2,1c0.1,0,0.1,0,0.2,0c0.3,0,0.7,0.1,1.1,0.5c0.7,0.9,0.7,1.8,0.5,2.3
				c-0.1,0.3-0.3,0.5-0.4,0.7l-0.3,0.4C33,63.1,31.5,65,30,66.8C29.6,67.3,29.2,67.8,28.5,67.8L28.5,67.8z"/>
			<path class="st2" d="M39.6,30.2c0.1,0,0.1,0,0.2,0c0.1,0,0.3,0,0.4,0.1c1.4,0.6,2.1,2.5,1.5,3.9c-0.8,1.7-1.7,3.4-2.5,5.1
				c-2,4.3-4,8.7-5.5,13.2c-0.5,1.5-0.8,3.1-1.2,4.7c-0.1,0.3,0,0.6,0,0.9c0,0.2,0.2,0.3,0.3,0.3c0.1,0,0.1,0,0.2,0
				c0.2-0.1,0.4-0.2,0.5-0.2c0.1,0,0.2,0,0.4,0.2c0.4,0.4,0.5,0.9,0.3,1.4c-0.1,0.2-0.2,0.3-0.3,0.5c-1.5,2-3.1,4-4.7,6
				c-0.3,0.4-0.6,0.6-0.8,0.6c-0.2,0-0.4-0.3-0.6-0.8c-0.3-1-0.4-2.1-0.5-3.1c-0.2-2.9,0.7-5.6,1.5-8.3c1.6-4.9,3.6-9.7,5.7-14.4
				c0.1-0.2,0.1-0.4,0.2-0.6c0,0-0.1-0.1-0.1-0.1c-0.2,0.2-0.4,0.4-0.5,0.5c-1.6,1.7-2.9,3.7-4.2,5.7c-2.3,3.4-4.6,6.7-6.5,10.3
				c-0.2,0.3-0.4,0.6-0.6,0.9c-0.4,0.4-0.8,0.6-1.2,0.6c-0.2,0-0.5-0.1-0.7-0.2c-0.5-0.2-0.9-0.5-1.3-0.7c-0.8-0.6-1-1.2-0.6-2.2
				c0.6-1.5,1.3-3,1.9-4.5c1.4-3.3,2.7-6.6,4.1-9.9c0.2-0.5,0.3-0.9,0.4-1.4c0-0.2,0-0.4,0-0.6c-0.2,0.1-0.4,0.2-0.6,0.3
				c-0.8,0.9-1.7,1.9-2.5,2.9c-4,5.2-7.9,10.6-11.3,16.2c0,0,0,0,0,0c-0.5,0.7-1.1,1.1-1.7,1.1c-0.6,0-1.3-0.4-1.7-1.2
				c-0.2-0.4-0.2-0.8,0-1.3c0.2-0.5,0.6-1.1,0.8-1.6c2.1-3.7,4.2-7.3,5.8-11.2c0.8-2.1,1.4-4.4,1.8-6.7c0-0.2,0-0.4,0-0.6
				c-3.2,2.6-6.6,4.7-10.3,6.5c-0.7,0.3-1.4,0.6-2.1,0.8c-0.2,0.1-0.5,0.2-0.8,0.2s-0.6-0.1-0.8-0.4c-0.5-0.5-0.6-1.2-0.4-1.9
				C1.9,41,2,40.6,2.4,40.3c1.1-0.9,2.1-1.7,3.3-2.6c0.1-0.1,0.2-0.1,0.4-0.2c-0.1,0.4-0.1,0.8-0.2,1.1c-0.1,0.3,0,0.5,0.2,0.5
				c0.1,0,0.2,0,0.3-0.1c0.4-0.1,0.7-0.3,1.1-0.5c3.2-2,6.1-4.3,8.8-7c0.4-0.4,0.8-0.6,1.2-0.6c0.4,0,0.8,0.2,1.3,0.7
				c0.7,0.8,0.9,1.8,0.8,2.8c-0.2,2.4-0.8,4.6-1.4,6.8c0,0.1-0.1,0.3,0,0.5c0.5-0.7,1.1-1.4,1.6-2.1c1.9-2.3,3.8-4.6,5.7-6.9
				c0.4-0.5,1-0.9,1.5-1.4c0.2-0.2,0.5-0.3,0.8-0.3c0.2,0,0.5,0,0.7,0.1c1.5,0.6,2.2,1.8,1.7,3.3c-0.9,2.7-1.8,5.4-2.7,8.1
				c-0.3,0.9-0.6,1.8-0.9,2.7c0,0.1-0.1,0.2-0.1,0.4c0,0,0.1,0,0.1,0.1c0.2-0.2,0.4-0.5,0.5-0.7c2.1-3.4,4.4-6.6,7-9.6
				c1.4-1.6,2.8-3.2,4.4-4.5C38.6,30.5,39.1,30.2,39.6,30.2 M6.1,37.5L6.1,37.5 M39.6,28.4c-1.3,0-2.1,0.7-2.6,1.1
				c-1.9,1.6-3.5,3.4-4.6,4.7c-0.3,0.4-0.6,0.8-0.9,1.2c0-0.1,0.1-0.2,0.1-0.4c0.8-2.4-0.3-4.6-2.7-5.5c-0.5-0.2-0.9-0.2-1.3-0.2
				c-0.7,0-1.4,0.2-1.9,0.7c-0.1,0.1-0.2,0.2-0.3,0.3c-0.5,0.4-0.9,0.8-1.4,1.3c-0.9,1.1-1.8,2.2-2.7,3.3c0-0.1,0-0.2,0-0.4
				c0.1-1.6-0.2-3-1.2-4.1c-0.9-1.1-1.9-1.3-2.6-1.3c-0.9,0-1.7,0.4-2.5,1.2c-2,2.1-4.3,4-6.8,5.7l0.2-1.4l-3,1.3c0,0-0.1,0-0.1,0
				c-0.1,0.1-0.4,0.1-0.6,0.4s-0.5,0.4-0.8,0.6c-0.8,0.6-1.7,1.3-2.5,2c-0.6,0.6-1,1.3-1.2,1.9C-0.2,42,0.1,43.4,1,44.3
				c0.6,0.6,1.3,0.9,2.1,0.9c0.6,0,1.1-0.1,1.4-0.3l0.2-0.1C5.3,44.6,6,44.4,6.7,44c2.4-1.2,4.6-2.5,6.9-4.1
				c-0.2,0.9-0.5,1.7-0.9,2.6c-1.5,3.7-3.4,7.2-5.7,11c-0.3,0.5-0.6,1.1-0.9,1.7c-0.5,0.9-0.4,2,0.1,2.8c0.7,1.3,1.9,2.1,3.3,2.1
				c1.2,0,2.4-0.7,3.1-1.9c0,0,0-0.1,0.1-0.1c2.2-3.7,4.7-7.3,7.6-11.4c-0.3,0.7-0.6,1.5-1,2.4c-0.2,0.6-0.5,1.2-0.7,1.8
				c-0.4,0.9-0.8,1.8-1.2,2.7c-0.7,1.7-0.3,3.1,1.2,4.2c0.5,0.4,1.1,0.7,1.6,0.9c0.5,0.2,0.9,0.3,1.4,0.3c0.7,0,1.7-0.2,2.5-1.2
				c0.3-0.4,0.6-0.7,0.9-1.2c0.9-1.8,2-3.5,3.1-5.2c-0.3,0.8-0.6,1.7-0.8,2.5l0,0.1c-0.9,2.8-1.8,5.7-1.6,8.8
				c0.1,1.3,0.2,2.4,0.5,3.5c0.5,1.9,1.7,2.1,2.3,2.1c1.1,0,1.7-0.7,2.2-1.3c1.5-1.9,2.9-3.8,4.4-5.7l0.3-0.4
				c0.1-0.2,0.4-0.5,0.5-0.9c0.2-0.6,0.5-1.9-0.6-3.2c-0.2-0.3-0.6-0.5-0.9-0.7c0,0,0-0.1,0-0.1c0.3-1.2,0.6-2.4,0.9-3.5
				c1.4-4.2,3.2-8.3,5.4-13c0.4-0.8,0.8-1.7,1.2-2.4c0.4-0.9,0.9-1.8,1.3-2.7c0.5-1.1,0.5-2.4,0.1-3.5c-0.5-1.2-1.3-2.2-2.5-2.7
				c-0.3-0.1-0.6-0.2-0.9-0.2C39.9,28.4,39.8,28.4,39.6,28.4L39.6,28.4z M6.1,35.8L6.1,35.8L6.1,35.8L6.1,35.8z"/>
		</g>
	</g>
	<g>
		<g>
			<path class="st3" d="M21.2,80.9c-4,0-5.8-3.9-5.8-7.9c0-5,2.1-8,5.8-8c2.4,0,4.1,1.4,4.9,3.9l0.2,0.8l-4.2,1.6h4.4v1.9
				C26.5,78.2,24.7,80.9,21.2,80.9z M20.4,75.6c0.2,0.7,0.5,1.1,0.9,1.1c0.4,0,0.6-0.5,0.6-1.1H20.4z M21.2,69.3
				c-0.4,0-0.7,0.7-0.8,1.2c-0.2,0.9-0.3,2-0.3,2.5c0,0.9,0.1,1.7,0.2,2.3v-4H22l-0.2-1C21.6,69.4,21.4,69.3,21.2,69.3
				C21.3,69.3,21.2,69.3,21.2,69.3z"/>
			<path class="st2" d="M21.2,65.9c2.1,0,3.4,1.3,4,3.2l-2.6,1c-0.1-0.7-0.4-1.8-1.4-1.8c0,0-0.1,0-0.1,0c-1.8,0-1.9,3.3-1.9,4.6
				c0,1.4,0.1,4.6,2.1,4.6c1.4,0,1.6-1.9,1.6-2.8h-1.7v-2.5h4.4v1.1c0,2.9-0.7,6.8-4.4,6.8s-4.9-4-4.9-7
				C16.4,69.9,17.4,65.9,21.2,65.9 M21.2,64.2c-4.1,0-6.6,3.4-6.6,8.9c0,4.4,2,8.7,6.6,8.7c1.9,0,6.1-0.8,6.1-8.5v-1.1v-1.8h-0.5
				l0.6-0.2L27,68.7C26.1,65.9,24,64.2,21.2,64.2L21.2,64.2z"/>
		</g>
		<g>
			<path class="st3" d="M32.8,80.9c-2.7,0-5.7-2.1-5.7-7.9s2.9-7.9,5.7-7.9s5.7,2.1,5.7,7.9S35.5,80.9,32.8,80.9z M32.8,69.3
				c-0.5,0-1.1,1.3-1.1,3.7c0,2.1,0.5,3.7,1.1,3.7s1.1-1.6,1.1-3.7C33.8,70.6,33.3,69.3,32.8,69.3z"/>
			<path class="st2" d="M32.8,65.9c2.4,0,4.8,1.9,4.8,7.1S35.2,80,32.8,80C30.3,80,28,78.1,28,73C28,67.9,30.3,65.9,32.8,65.9
				 M32.8,77.5c1.8,0,1.9-3.5,1.9-4.6c0-1.2-0.1-4.6-1.9-4.6c-1.8,0-1.9,3.3-1.9,4.6C30.8,74.1,30.9,77.5,32.8,77.5 M32.8,64.2
				c-3,0-6.6,2.3-6.6,8.8s3.5,8.8,6.6,8.8c3,0,6.6-2.3,6.6-8.8S35.8,64.2,32.8,64.2L32.8,64.2z M32.8,74.9c-0.1-0.5-0.2-1.1-0.2-1.9
				c0-0.9,0.1-1.5,0.2-2c0.1,0.5,0.2,1.1,0.2,2C32.9,73.8,32.8,74.5,32.8,74.9L32.8,74.9z"/>
		</g>
		<g>
			<polygon class="st3" points="39.5,80.7 39.5,65.3 43.9,65.3 43.9,76.4 46.7,76.4 46.7,80.7 			"/>
			<path class="st2" d="M43.1,66.1v11.1h2.8v2.5h-5.5V66.1H43.1 M44.8,64.4h-1.8h-2.7h-1.8v1.8v13.7v1.8h1.8h5.5h1.8v-1.8v-2.5v-1.8
				h-1.8h-1.1v-9.4L44.8,64.4L44.8,64.4z"/>
		</g>
		<g>
			<path class="st3" d="M47.6,80.7V65.3h2.9h0.1c0.1,0,0.3,0,0.5,0c1.9,0,6.5,0.8,6.5,7.8c0,4.9-2.4,7.6-6.6,7.6L47.6,80.7
				L47.6,80.7z M52,76.3c0.2-0.1,0.4-0.4,0.6-0.8c0.3-0.6,0.5-1.5,0.5-2.4c0-0.3,0-2.5-1-3.3L52,76.3L52,76.3z"/>
			<path class="st2" d="M51.1,66.1c1.5,0,5.6,0.5,5.6,7c0,3.9-1.5,6.7-5.8,6.7h-2.4V66.2h2C50.6,66.1,50.8,66.1,51.1,66.1
				 M51.3,77.4c2.1,0,2.6-2.6,2.6-4.3c0-1.8-0.5-4.5-2.8-4.5v8.8C51.2,77.4,51.2,77.4,51.3,77.4 M51.1,64.4L51.1,64.4
				c-0.2,0-0.4,0-0.5,0h0h-2h-1.8v1.8v13.7v1.8h1.8h2.4c4.8,0,7.5-3.1,7.5-8.5C58.4,65,52.8,64.4,51.1,64.4L51.1,64.4z"/>
		</g>
	</g>
	<g>
		<g>
			<path class="st2" d="M62.5,78.8l0.2,0.5l-0.6,0.2l1.5,3.4l-0.5,0.2l-1.5-3.4L61,79.9l-0.2-0.5L62.5,78.8z"/>
		</g>
		<g>
			<path class="st2" d="M65.8,79.3c0.4,0.7,1,1.9,0.1,2.4s-1.7-0.7-2-1.4c-0.4-0.7-1-1.9-0.1-2.4C64.8,77.5,65.5,78.7,65.8,79.3z
				 M64.4,80.1c0.4,0.8,0.8,1.4,1.2,1.2s0.1-0.9-0.4-1.7c-0.4-0.8-0.8-1.4-1.2-1.2C63.7,78.7,64,79.3,64.4,80.1z"/>
		</g>
		<g>
			<path class="st2" d="M67.9,75.4l0.3,0.4l-0.5,0.4l2.2,3l-0.5,0.3l-2.2-3l-0.5,0.4l-0.3-0.4L67.9,75.4z"/>
		</g>
		<g>
			<path class="st2" d="M71.2,75.3c0.5,0.6,1.4,1.7,0.6,2.4s-1.8-0.4-2.2-0.9s-1.4-1.7-0.6-2.4S70.7,74.7,71.2,75.3z M70,76.4
				c0.6,0.7,1.1,1.2,1.4,0.9c0.4-0.3-0.1-0.9-0.7-1.6c-0.6-0.7-1.1-1.2-1.4-0.9C69,75.1,69.4,75.7,70,76.4z"/>
		</g>
		<g>
			<path class="st2" d="M71.5,72l0.4,0.4l-0.7,0.7l0.9,0.9l0.6-0.6l0.4,0.4l-0.6,0.6l1,1l0.7-0.7l0.4,0.4l-1.1,1.1l-3-2.9L71.5,72z"
				/>
		</g>
	</g>
	<g>
		<g>
			<path class="st2" d="M52.3,12.2l-0.2,1.7l0.8,0.1l0.2-1.7l0.6,0.1l-0.5,4.2l-0.6-0.1l0.2-2.1L52,14.3l-0.2,2.1l-0.6-0.1l0.5-4.2
				L52.3,12.2z"/>
		</g>
		<g>
			<path class="st2" d="M56.5,12.9l-0.1,0.5l-0.9-0.2l-0.3,1.3l0.8,0.2L56,15.2L55.1,15l-0.3,1.4l0.9,0.2l-0.1,0.5l-1.5-0.3l0.8-4.1
				L56.5,12.9z"/>
		</g>
		<g>
			<path class="st2" d="M58.6,13.4l-0.3,4.3l-0.5-0.1l0.1-0.8l-0.8-0.2l-0.4,0.7l-0.5-0.1l2-3.8L58.6,13.4z M57.9,15.7l0.2-1.5l0,0
				l-0.9,2l0.6,0.2L57.9,15.7z"/>
		</g>
		<g>
			<path class="st2" d="M61,14.3l-1.3,3.5l0.9,0.3l-0.2,0.5L59,18l1.5-4L61,14.3z"/>
		</g>
		<g>
			<path class="st2" d="M61.6,19L61,18.8l1.7-3.9l0.5,0.2L61.6,19z"/>
		</g>
		<g>
			<path class="st2" d="M64.3,17.1l-0.6,1.3L63,19.7l-0.5-0.2l2-3.8L65,16l-0.6,3.3l0,0l0.7-1.5l0.7-1.3l0.5,0.2l-2,3.8l-0.5-0.2
				l0.6-3.3l0,0L64.3,17.1z"/>
		</g>
		<g>
			<path class="st2" d="M68,20.1L68,20.1c-0.5,0.7-1.1,2-2.1,1.4c-0.8-0.5-0.4-1.4,0.2-2.4c0.6-1,1.3-1.8,2.1-1.3
				c0.5,0.3,0.6,0.7,0.4,1.3L68.1,19c0.1-0.3,0.2-0.5-0.1-0.7c-0.4-0.2-0.7,0.2-1.3,1.1c-0.8,1.2-0.7,1.5-0.5,1.7
				c0.2,0.1,0.4,0.2,1-0.6l0.1-0.2L66.9,20l0.3-0.4L68,20.1z"/>
		</g>
		<g>
			<path class="st2" d="M72.6,21.2l-0.3,0.4L71.6,21l-0.8,1l0.7,0.6l-0.3,0.4l-0.7-0.6l-1.2,1.5l-0.4-0.4l2.7-3.2L72.6,21.2z"/>
		</g>
		<g>
			<path class="st2" d="M73.4,21.9l0.5,0.5c0.3,0.3,0.7,0.7,0,1.5c-0.3,0.3-0.8,0.6-1.2,0.4l-0.9,2l-0.4-0.4l0.9-2l0,0l-1.4,1.5
				l-0.4-0.4L73.4,21.9z M73.4,23.6c0.3-0.3,0.5-0.6,0.2-0.8l-0.1-0.1l-1,1C72.8,23.9,73.1,23.8,73.4,23.6z"/>
		</g>
		<g>
			<path class="st2" d="M75.3,27c-0.6,0.5-1.7,1.4-2.4,0.6c-0.7-0.8,0.4-1.8,0.9-2.2s1.7-1.4,2.4-0.6C76.9,25.6,75.9,26.5,75.3,27z
				 M74.3,25.8c-0.7,0.6-1.2,1.1-0.9,1.4c0.3,0.4,0.9-0.1,1.6-0.7c0.7-0.6,1.2-1.1,0.9-1.4C75.5,24.8,74.9,25.2,74.3,25.8z"/>
		</g>
		<g>
			<path class="st2" d="M78.1,27.2L76,29.4l0,0l0.1-0.1l0.9-0.5l1.7-0.8l0.3,0.4l-3.2,2.7l-0.3-0.5l1.2-1l0.6-0.5l0.5-0.3l0,0
				l-0.6,0.3l-2.1,1l-0.2-0.3l2.1-2.1l0,0l-2.5,1.5L74.1,29l3.7-2.1L78.1,27.2z"/>
		</g>
		<g>
			<path class="st2" d="M81.3,32.5l-0.4,0.2l-0.3-0.6L77.3,34l-0.2-0.5l3.3-1.8l-0.3-0.6l0.4-0.2L81.3,32.5z"/>
		</g>
		<g>
			<path class="st2" d="M80.6,36.1c-0.7,0.3-2,0.8-2.4-0.1c-0.4-1,0.8-1.6,1.5-1.9c0.7-0.3,2-0.8,2.4,0.1
				C82.6,35.3,81.3,35.8,80.6,36.1z M80,34.7c-0.8,0.4-1.5,0.7-1.3,1.1c0.2,0.4,0.9,0.2,1.7-0.2c0.8-0.4,1.5-0.7,1.3-1.1
				C81.5,34.1,80.8,34.3,80,34.7z"/>
		</g>
		<g>
			<path class="st2" d="M79,37.8l4-1.3l0.2,0.6c0.1,0.5,0.3,1.1-0.7,1.4c-0.8,0.3-1.3,0.1-1.5-0.8l-1.8,0.6L79,37.8z M82.7,37.2
				l-1.3,0.5c0.1,0.5,0.4,0.5,0.8,0.4C82.6,37.9,82.9,37.7,82.7,37.2L82.7,37.2z"/>
		</g>
	</g>
</g>
</svg>
